<svg width="26" height="28" viewBox="0 0 26 28" fill="none" xmlns="http://www.w3.org/2000/svg">
<path d="M1.1624 17.3606C0.896585 19.1031 2.085 20.3126 3.54007 20.9154C9.11851 23.2263 16.8815 23.2263 22.4599 20.9154C23.915 20.3126 25.1034 19.1031 24.8376 17.3606C24.6742 16.2897 23.8665 15.398 23.268 14.5272C22.4841 13.3726 22.4062 12.1133 22.4061 10.7736C22.4061 5.59589 18.1948 1.39856 13 1.39856C7.80516 1.39856 3.59391 5.59589 3.59391 10.7736C3.59379 12.1133 3.5159 13.3726 2.73201 14.5272C2.13355 15.398 1.32577 16.2897 1.1624 17.3606Z" stroke="#767676" stroke-width="2" stroke-linecap="round" stroke-linejoin="round"/>
<path d="M8 22.6486C8.57311 24.8051 10.5944 26.3986 13 26.3986C15.4056 26.3986 17.4269 24.8051 18 22.6486" stroke="#767676" stroke-width="2" stroke-linecap="round" stroke-linejoin="round"/>
</svg>
