<svg width="120" height="120" viewBox="0 0 120 120" fill="none" xmlns="http://www.w3.org/2000/svg">
<circle cx="60" cy="60" r="60" fill="#FFF2F3"/>
<path d="M38.9744 52.7386C38.9745 40.9107 48.618 31.3333 60.5002 31.3333C72.3824 31.3333 82.0259 40.9108 82.0259 52.7387C82.0261 55.4901 82.2111 57.5663 83.4798 59.4327C83.6561 59.6884 83.8901 60.0087 84.1457 60.3586L84.1459 60.3589C84.59 60.9667 85.0995 61.664 85.4859 62.268C86.1681 63.3341 86.8346 64.6198 87.0637 66.1178C87.8112 71.0053 84.3653 74.1697 80.9336 75.5876C68.8464 80.5819 52.1539 80.5819 40.0667 75.5876C36.635 74.1697 33.1891 71.0053 33.9366 66.1178C34.1657 64.6198 34.8322 63.3341 35.5144 62.268C35.9009 61.6639 36.4104 60.9665 36.8546 60.3586C37.1103 60.0086 37.3443 59.6882 37.5207 59.4325C38.7892 57.5662 38.9742 55.4897 38.9744 52.7386Z" fill="#92163A"/>
<path fill-rule="evenodd" clip-rule="evenodd" d="M49.1494 75.4234C50.5728 75.0452 52.0333 75.8924 52.4115 77.3157C53.3179 80.7263 56.5556 83.334 60.501 83.334C64.4464 83.334 67.6841 80.7263 68.5904 77.3157C68.9687 75.8924 70.4292 75.0452 71.8526 75.4234C73.2759 75.8017 74.1231 77.2622 73.7449 78.6855C72.206 84.4762 66.8194 88.6673 60.501 88.6673C54.1826 88.6673 48.796 84.4762 47.2571 78.6855C46.8788 77.2622 47.7261 75.8017 49.1494 75.4234Z" fill="#92163A"/>
</svg>
