<svg width="16" height="20" viewBox="0 0 16 20" fill="none" xmlns="http://www.w3.org/2000/svg">
<path d="M13.935 8.81853C13.6886 8.49716 13.3886 8.21864 13.1101 7.94012C12.3924 7.29738 11.5783 6.83675 10.8927 6.16187C9.29654 4.59787 8.94304 2.0162 9.96071 0.0344238C8.94304 0.280807 8.05391 0.837848 7.29334 1.44845C4.51885 3.67661 3.42619 7.60804 4.73309 10.9824C4.77594 11.0895 4.81879 11.1967 4.81879 11.3359C4.81879 11.5716 4.65811 11.7858 4.44386 11.8715C4.19748 11.9787 3.94038 11.9144 3.73685 11.743C3.67568 11.6924 3.62478 11.6306 3.58687 11.5609C2.37638 10.029 2.18356 7.833 2.9977 6.07618C1.20874 7.53305 0.233916 9.99689 0.373176 12.3215C0.43745 12.8571 0.501724 13.3927 0.683834 13.9283C0.833806 14.571 1.12304 15.2138 1.44441 15.7815C2.60134 17.6348 4.60454 18.9631 6.75772 19.2309C9.05016 19.5201 11.5033 19.1024 13.2601 17.5169C15.2205 15.7387 15.906 12.8892 14.8991 10.4468L14.7598 10.1683C14.5349 9.67552 13.935 8.81853 13.935 8.81853ZM10.5499 15.5673C10.2499 15.8244 9.75717 16.1029 9.37153 16.21C8.17175 16.6385 6.97197 16.0386 6.26495 15.3316C7.53972 15.0317 8.3003 14.089 8.52525 13.1356C8.70736 12.2786 8.36457 11.5716 8.22531 10.7467C8.09676 9.95404 8.11819 9.27916 8.40742 8.54001C8.61095 8.94708 8.8252 9.35415 9.0823 9.67552C9.90715 10.7467 11.2033 11.2181 11.4819 12.675C11.5247 12.8249 11.5461 12.9749 11.5461 13.1356C11.5783 14.014 11.1926 14.9781 10.5499 15.5673Z" fill="white"/>
</svg>
