<svg width="23" height="21" viewBox="0 0 23 21" fill="none" xmlns="http://www.w3.org/2000/svg">
<g clip-path="url(#clip0_1504_5952)">
<path d="M20.8421 11.1113L15.7337 11.7131L12.7351 9.98189L15.7337 8.25064L20.8421 8.8525C20.8703 8.85581 20.8983 8.85744 20.926 8.85744C21.2805 8.85744 21.5867 8.59207 21.6292 8.23135C21.675 7.84248 21.3969 7.49009 21.008 7.44429L17.7876 7.06487L19.7938 5.90657C20.1329 5.71076 20.2491 5.27716 20.0533 4.93805C19.8576 4.59894 19.424 4.48271 19.0849 4.67852L17.0786 5.83683L18.3602 2.8581C18.515 2.49841 18.3488 2.0814 17.9891 1.92663C17.6296 1.7719 17.2124 1.93797 17.0577 2.29766L15.0247 7.02264L12.0872 8.71861V5.25598L15.1626 1.13291C15.3967 0.819022 15.332 0.374811 15.0182 0.140717C14.7043 -0.0933763 14.2601 -0.0287513 14.026 0.285135L12.0872 2.8844V0.806217C12.0872 0.414643 11.7698 0.0972331 11.3782 0.0972331C10.9867 0.0972331 10.6693 0.414643 10.6693 0.806217V2.88444L8.73042 0.285135C8.49628 -0.0287513 8.05203 -0.0933333 7.73822 0.140717C7.42434 0.374854 7.35971 0.819065 7.59381 1.13291L10.6693 5.25602V8.78917L7.6094 7.02255L5.57642 2.29766C5.42165 1.93801 5.00464 1.7719 4.64495 1.92663C4.28526 2.0814 4.11914 2.49846 4.27391 2.8581L5.55558 5.83683L3.7558 4.79771C3.41669 4.60199 2.98309 4.71814 2.78728 5.05724C2.59151 5.39635 2.70766 5.82995 3.04681 6.02576L4.8466 7.06487L1.62609 7.44429C1.23723 7.49009 0.959132 7.84248 1.00494 8.23135C1.04743 8.59207 1.35367 8.85749 1.70816 8.85744C1.73583 8.85744 1.76385 8.85581 1.79199 8.8525L6.90046 8.25064L9.89912 9.98185L6.90046 11.7131L1.79204 11.1113C1.40304 11.0656 1.05078 11.3436 1.00498 11.7325C0.959175 12.1214 1.23727 12.4737 1.62614 12.5195L4.8466 12.899L3.04685 13.938C2.70774 14.1338 2.59156 14.5674 2.78732 14.9065C2.91864 15.134 3.15694 15.2611 3.40199 15.2611C3.52226 15.2611 3.64416 15.2304 3.7558 15.166L5.55563 14.1269L4.27391 17.1056C4.11914 17.4653 4.2853 17.8823 4.64495 18.0371C4.73333 18.0753 4.82857 18.095 4.92485 18.095C5.19955 18.095 5.46101 17.9345 5.57647 17.6661L7.60949 12.9412L10.6693 11.1746V14.6371L7.59385 18.7602C7.35976 19.0741 7.42438 19.5183 7.73827 19.7524C7.86045 19.8439 8.00901 19.8933 8.16164 19.8932C8.37781 19.8932 8.59128 19.7946 8.7305 19.608L10.6693 17.0087V19.3254C10.6693 19.7169 10.9867 20.0343 11.3783 20.0343C11.7699 20.0343 12.0873 19.7169 12.0873 19.3254V17.0087L14.0261 19.608C14.2602 19.9219 14.7045 19.9865 15.0183 19.7524C15.3322 19.5183 15.3968 19.0741 15.1627 18.7602L12.0873 14.6371V11.2451L15.0248 12.9411L17.0578 17.666C17.1733 17.9344 17.4347 18.095 17.7094 18.095C17.8057 18.0949 17.9009 18.0752 17.9893 18.037C18.349 17.8823 18.515 17.4652 18.3603 17.1056L17.0786 14.1268L19.0849 15.2851C19.1924 15.3475 19.3145 15.3803 19.4387 15.3803C19.6838 15.3803 19.9221 15.2531 20.0534 15.0257C20.2492 14.6865 20.133 14.2529 19.7939 14.0572L17.7877 12.8989L21.0081 12.5195C21.397 12.4737 21.6751 12.1212 21.6293 11.7324C21.5834 11.3437 21.2313 11.0655 20.8421 11.1113Z" fill="white"/>
</g>
<defs>
<clipPath id="clip0_1504_5952">
<rect width="23" height="21" fill="white"/>
</clipPath>
</defs>
</svg>
