<svg width="327" height="35" viewBox="0 0 327 35" fill="none" xmlns="http://www.w3.org/2000/svg">
<g filter="url(#filter0_bd_1406_6286)">
<path d="M4.17578 11.1973C4.17578 8.05273 4.99609 5.55534 6.63672 3.70508C8.27734 1.85482 10.6016 0.929688 13.6094 0.929688C15.4232 0.929688 16.8451 1.16211 17.875 1.62695C18.9141 2.0918 19.8255 2.81185 20.6094 3.78711C21.0833 4.37956 21.0697 4.83984 20.5684 5.16797L19.0098 6.17969C18.554 6.48047 18.0664 6.34831 17.5469 5.7832C17.1185 5.31836 16.5762 4.93099 15.9199 4.62109C15.2637 4.3112 14.5391 4.15625 13.7461 4.15625C11.832 4.15625 10.4694 4.76237 9.6582 5.97461C8.84701 7.17773 8.44141 8.91862 8.44141 11.1973C8.44141 13.4759 8.84701 15.2214 9.6582 16.4336C10.4694 17.6367 11.832 18.2383 13.7461 18.2383C14.6758 18.2383 15.4779 18.1471 16.1523 17.9648C16.8268 17.7734 17.4648 17.4316 18.0664 16.9395V14.4922H15.0996C14.416 14.4922 14.0742 14.196 14.0742 13.6035V11.9902C14.0742 11.3978 14.416 11.1016 15.0996 11.1016H21.0332C21.7168 11.1016 22.0586 11.3978 22.0586 11.9902V18.9355C20.7826 19.8743 19.4928 20.5306 18.1895 20.9043C16.8952 21.278 15.3685 21.4648 13.6094 21.4648C10.6471 21.4648 8.33203 20.5397 6.66406 18.6895C5.00521 16.8392 4.17578 14.3418 4.17578 11.1973ZM24.6836 13.8223C24.6836 11.5163 25.2578 9.69792 26.4062 8.36719C27.5638 7.03646 29.1953 6.37109 31.3008 6.37109C33.7435 6.37109 35.5573 7 36.7422 8.25781C37.9271 9.51562 38.5195 11.5391 38.5195 14.3281C38.5195 14.875 38.2643 15.1484 37.7539 15.1484H28.7305C28.8763 16.6615 29.25 17.6139 29.8516 18.0059C30.4531 18.3978 31.1504 18.5938 31.9434 18.5938C32.6999 18.5938 33.2786 18.4935 33.6797 18.293C34.0807 18.0924 34.418 17.819 34.6914 17.4727C35.0013 17.0716 35.3841 17.0078 35.8398 17.2812L37.207 18.1152C37.7448 18.4434 37.8223 18.8353 37.4395 19.291C36.8835 19.9564 36.2318 20.4531 35.4844 20.7812C34.737 21.1094 33.5566 21.2734 31.9434 21.2734C29.3275 21.2734 27.4635 20.6081 26.3516 19.2773C25.2396 17.9466 24.6836 16.1283 24.6836 13.8223ZM28.7441 12.4141H34.6914C34.6914 11.4297 34.4453 10.6276 33.9531 10.0078C33.4609 9.37891 32.6771 9.06445 31.6016 9.06445C30.7448 9.06445 30.0658 9.36523 29.5645 9.9668C29.0632 10.5592 28.7897 11.375 28.7441 12.4141ZM41.0215 9.37891C40.4837 9.37891 40.2148 9.15104 40.2148 8.69531V7.32812C40.2148 6.8724 40.4837 6.64453 41.0215 6.64453H41.9512V6.16602C41.9512 5.75586 42.0469 5.38216 42.2383 5.04492L43.291 3.19922C43.4915 2.85286 43.7285 2.67969 44.002 2.67969H44.959C45.5059 2.67969 45.7793 2.95312 45.7793 3.5V6.64453H47.9941C48.5319 6.64453 48.8008 6.8724 48.8008 7.32812V8.69531C48.8008 9.15104 48.5319 9.37891 47.9941 9.37891H45.7793V16.1602C45.7793 17.0898 45.8431 17.7598 45.9707 18.1699C46.1074 18.571 46.4538 18.7715 47.0098 18.7715C47.2923 18.7715 47.6113 18.7259 47.9668 18.6348C48.3223 18.5345 48.6003 18.4388 48.8008 18.3477C49.1198 18.2018 49.3294 18.3066 49.4297 18.6621L49.8398 20.2207C49.9219 20.5306 49.8034 20.7585 49.4844 20.9043C49.1836 21.041 48.7689 21.1641 48.2402 21.2734C47.7207 21.3919 47.1966 21.4512 46.668 21.4512C45.3646 21.4512 44.2526 21.1823 43.332 20.6445C42.4115 20.1068 41.9512 18.9993 41.9512 17.3223V9.37891H41.0215ZM61.0918 7.71094C60.8457 7 60.9961 6.64453 61.543 6.64453H63.9902C64.4095 6.64453 64.6829 6.87695 64.8105 7.3418L66.875 14.9844C66.9753 15.3398 67.0618 15.8001 67.1348 16.3652C67.2168 16.9212 67.2578 17.2767 67.2578 17.4316H67.3398C67.4492 16.9486 67.5267 16.5658 67.5723 16.2832C67.627 15.9915 67.7682 15.431 67.9961 14.6016L69.9512 7.3418C70.0788 6.87695 70.3522 6.64453 70.7715 6.64453H73.2188C73.7565 6.64453 73.9069 7 73.6699 7.71094L69.0625 21.5742C68.5247 23.1966 67.8639 24.4635 67.0801 25.375C66.2962 26.2865 65.207 26.7422 63.8125 26.7422C63.0469 26.7422 62.3633 26.6784 61.7617 26.5508C61.4154 26.4779 61.2832 26.2409 61.3652 25.8398L61.666 24.3359C61.748 23.944 61.9805 23.8073 62.3633 23.9258C62.6458 24.0169 62.9102 24.0625 63.1562 24.0625C63.8945 24.0625 64.4551 23.7116 64.8379 23.0098C65.2298 22.3079 65.4896 21.7064 65.6172 21.2051L65.6582 21L61.0918 7.71094ZM74.75 13.8223C74.75 11.498 75.347 9.67513 76.541 8.35352C77.7441 7.0319 79.5306 6.37109 81.9004 6.37109C84.2702 6.37109 86.0521 7.0319 87.2461 8.35352C88.4492 9.67513 89.0508 11.498 89.0508 13.8223C89.0508 16.1465 88.4492 17.9694 87.2461 19.291C86.0521 20.6126 84.2702 21.2734 81.9004 21.2734C79.5306 21.2734 77.7441 20.6126 76.541 19.291C75.347 17.9694 74.75 16.1465 74.75 13.8223ZM78.7969 13.8223C78.7969 15.554 79.0612 16.7845 79.5898 17.5137C80.1276 18.2337 80.8978 18.5938 81.9004 18.5938C82.903 18.5938 83.6686 18.2337 84.1973 17.5137C84.735 16.7845 85.0039 15.554 85.0039 13.8223C85.0039 12.0905 84.735 10.8646 84.1973 10.1445C83.6686 9.41536 82.903 9.05078 81.9004 9.05078C80.8978 9.05078 80.1276 9.41536 79.5898 10.1445C79.0612 10.8646 78.7969 12.0905 78.7969 13.8223ZM91.9766 15.0391V7.46484C91.9766 6.91797 92.25 6.64453 92.7969 6.64453H94.9844C95.5312 6.64453 95.8047 6.91797 95.8047 7.46484V14.0547C95.8047 16.0417 95.9414 17.2949 96.2148 17.8145C96.4883 18.334 97.0625 18.5938 97.9375 18.5938C98.8672 18.5938 99.5736 18.2246 100.057 17.4863C100.54 16.7389 100.781 15.194 100.781 12.8516V7.46484C100.781 6.91797 101.055 6.64453 101.602 6.64453H103.789C104.336 6.64453 104.609 6.91797 104.609 7.46484V20.1797C104.609 20.7266 104.336 21 103.789 21H101.629C101.082 21 100.809 20.7266 100.809 20.1797V19.3867H100.754C100.335 20.1068 99.8014 20.6035 99.1543 20.877C98.5072 21.1413 97.7415 21.2734 96.8574 21.2734C95.4629 21.2734 94.3008 20.8268 93.3711 19.9336C92.4414 19.0404 91.9766 17.4089 91.9766 15.0391ZM109.148 21C108.602 21 108.328 20.7266 108.328 20.1797V7.46484C108.328 6.91797 108.602 6.64453 109.148 6.64453H111.309C111.855 6.64453 112.129 6.91797 112.129 7.46484V8.58594H112.184C112.421 8.0026 112.817 7.48763 113.373 7.04102C113.929 6.5944 114.585 6.37109 115.342 6.37109C115.861 6.37109 116.29 6.4349 116.627 6.5625C116.946 6.68099 117.069 6.89974 116.996 7.21875L116.613 8.8457C116.531 9.21029 116.285 9.31966 115.875 9.17383C115.638 9.0918 115.41 9.05078 115.191 9.05078C114.316 9.05078 113.592 9.57487 113.018 10.623C112.443 11.6712 112.156 13.1979 112.156 15.2031V20.1797C112.156 20.7266 111.883 21 111.336 21H109.148ZM129.465 26.4688C128.918 26.4688 128.645 26.1953 128.645 25.6484V7.46484C128.645 6.91797 128.918 6.64453 129.465 6.64453H131.625C132.081 6.64453 132.327 6.91797 132.363 7.46484L132.418 8.25781H132.473C132.947 7.47396 133.475 6.96354 134.059 6.72656C134.642 6.48958 135.344 6.37109 136.164 6.37109C138.306 6.37109 139.81 7.11393 140.676 8.59961C141.551 10.0762 141.988 11.8171 141.988 13.8223C141.988 15.8275 141.551 17.5729 140.676 19.0586C139.81 20.5352 138.306 21.2734 136.164 21.2734C135.344 21.2734 134.642 21.1549 134.059 20.918C133.475 20.681 132.947 20.1706 132.473 19.3867H132.418C132.454 19.7513 132.473 20.1159 132.473 20.4805V25.6484C132.473 26.1953 132.199 26.4688 131.652 26.4688H129.465ZM132.473 14.4375C132.473 15.668 132.714 16.6706 133.197 17.4453C133.689 18.2109 134.277 18.5938 134.961 18.5938C136.191 18.5938 136.993 18.1654 137.367 17.3086C137.75 16.4427 137.941 15.2806 137.941 13.8223C137.941 12.3639 137.75 11.2064 137.367 10.3496C136.993 9.48372 136.191 9.05078 134.961 9.05078C134.277 9.05078 133.689 9.43815 133.197 10.2129C132.714 10.9785 132.473 11.9766 132.473 13.207V14.4375ZM144.176 17.1719C144.176 15.349 145.046 14.0273 146.787 13.207C148.528 12.3867 150.515 11.9492 152.748 11.8945V11.3477C152.748 10.5091 152.538 9.91667 152.119 9.57031C151.7 9.22396 151.117 9.05078 150.369 9.05078C149.84 9.05078 149.371 9.12826 148.961 9.2832C148.56 9.42904 148.209 9.60221 147.908 9.80273C147.617 9.99414 147.352 10.1901 147.115 10.3906C146.696 10.7552 146.35 10.7734 146.076 10.4453L144.941 9.05078C144.659 8.70443 144.727 8.34896 145.146 7.98438C145.465 7.70182 145.835 7.45573 146.254 7.24609C146.682 7.03646 147.247 6.84049 147.949 6.6582C148.651 6.4668 149.562 6.37109 150.684 6.37109C152.579 6.37109 154.033 6.80859 155.045 7.68359C156.066 8.55859 156.576 9.84831 156.576 11.5527V20.1797C156.576 20.7266 156.303 21 155.756 21H153.514C153.021 21 152.775 20.7266 152.775 20.1797V19.7695H152.748C152.21 20.2891 151.563 20.6719 150.807 20.918C150.059 21.1549 149.371 21.2734 148.742 21.2734C147.247 21.2734 146.113 20.9089 145.338 20.1797C144.563 19.4414 144.176 18.4388 144.176 17.1719ZM148.223 17.0898C148.223 17.4089 148.286 17.6868 148.414 17.9238C148.542 18.1517 148.742 18.3203 149.016 18.4297C149.289 18.5391 149.594 18.5938 149.932 18.5938C150.396 18.5938 150.848 18.5299 151.285 18.4023C151.723 18.2747 152.21 17.974 152.748 17.5V14.5332C151.217 14.7064 150.191 14.9297 149.672 15.2031C149.152 15.4766 148.779 15.7591 148.551 16.0508C148.332 16.3424 148.223 16.6888 148.223 17.0898ZM160.021 20.043C159.575 19.724 159.452 19.3822 159.652 19.0176L160.35 17.7461C160.596 17.2904 160.979 17.2357 161.498 17.582C162.018 17.9284 162.628 18.1836 163.33 18.3477C164.041 18.5117 164.688 18.5938 165.271 18.5938C165.682 18.5938 166.064 18.5527 166.42 18.4707C166.775 18.3887 167.076 18.2292 167.322 17.9922C167.568 17.7552 167.691 17.4089 167.691 16.9531C167.691 16.6797 167.618 16.4473 167.473 16.2559C167.327 16.0645 167.14 15.9186 166.912 15.8184C166.684 15.7181 166.443 15.6361 166.188 15.5723C165.85 15.4902 165.363 15.3535 164.725 15.1621C164.096 14.9707 163.49 14.7474 162.906 14.4922C162.423 14.2826 161.949 13.9909 161.484 13.6172C161.029 13.2344 160.691 12.8105 160.473 12.3457C160.263 11.8809 160.158 11.3066 160.158 10.623C160.158 9.70247 160.423 8.89583 160.951 8.20312C161.489 7.51042 162.182 7.0319 163.029 6.76758C163.877 6.50326 164.934 6.37109 166.201 6.37109C167.058 6.37109 167.892 6.49414 168.703 6.74023C169.514 6.98633 170.093 7.21875 170.439 7.4375C170.986 7.78385 171.123 8.15299 170.85 8.54492L170.016 9.76172C169.76 10.1263 169.35 10.1536 168.785 9.84375C168.357 9.60677 167.933 9.41536 167.514 9.26953C167.104 9.1237 166.643 9.05078 166.133 9.05078C165.786 9.05078 165.454 9.08724 165.135 9.16016C164.816 9.23307 164.542 9.36979 164.314 9.57031C164.096 9.77083 163.986 10.0352 163.986 10.3633C163.986 10.7096 164.087 10.9831 164.287 11.1836C164.497 11.375 164.734 11.5163 164.998 11.6074C165.271 11.6986 165.531 11.7852 165.777 11.8672C166.288 12.0312 166.803 12.1908 167.322 12.3457C167.842 12.4915 168.37 12.6693 168.908 12.8789C169.373 13.0612 169.824 13.321 170.262 13.6582C170.699 13.9954 171.018 14.4238 171.219 14.9434C171.419 15.4629 171.52 16.0553 171.52 16.7207C171.52 17.6048 171.255 18.4251 170.727 19.1816C170.198 19.9382 169.501 20.4759 168.635 20.7949C167.769 21.1139 166.762 21.2734 165.613 21.2734C164.328 21.2734 163.234 21.1823 162.332 21C161.43 20.8177 160.66 20.4987 160.021 20.043ZM173.775 20.043C173.329 19.724 173.206 19.3822 173.406 19.0176L174.104 17.7461C174.35 17.2904 174.732 17.2357 175.252 17.582C175.771 17.9284 176.382 18.1836 177.084 18.3477C177.795 18.5117 178.442 18.5938 179.025 18.5938C179.436 18.5938 179.818 18.5527 180.174 18.4707C180.529 18.3887 180.83 18.2292 181.076 17.9922C181.322 17.7552 181.445 17.4089 181.445 16.9531C181.445 16.6797 181.372 16.4473 181.227 16.2559C181.081 16.0645 180.894 15.9186 180.666 15.8184C180.438 15.7181 180.197 15.6361 179.941 15.5723C179.604 15.4902 179.117 15.3535 178.479 15.1621C177.85 14.9707 177.243 14.7474 176.66 14.4922C176.177 14.2826 175.703 13.9909 175.238 13.6172C174.783 13.2344 174.445 12.8105 174.227 12.3457C174.017 11.8809 173.912 11.3066 173.912 10.623C173.912 9.70247 174.176 8.89583 174.705 8.20312C175.243 7.51042 175.936 7.0319 176.783 6.76758C177.631 6.50326 178.688 6.37109 179.955 6.37109C180.812 6.37109 181.646 6.49414 182.457 6.74023C183.268 6.98633 183.847 7.21875 184.193 7.4375C184.74 7.78385 184.877 8.15299 184.604 8.54492L183.77 9.76172C183.514 10.1263 183.104 10.1536 182.539 9.84375C182.111 9.60677 181.687 9.41536 181.268 9.26953C180.857 9.1237 180.397 9.05078 179.887 9.05078C179.54 9.05078 179.208 9.08724 178.889 9.16016C178.57 9.23307 178.296 9.36979 178.068 9.57031C177.85 9.77083 177.74 10.0352 177.74 10.3633C177.74 10.7096 177.84 10.9831 178.041 11.1836C178.251 11.375 178.488 11.5163 178.752 11.6074C179.025 11.6986 179.285 11.7852 179.531 11.8672C180.042 12.0312 180.557 12.1908 181.076 12.3457C181.596 12.4915 182.124 12.6693 182.662 12.8789C183.127 13.0612 183.578 13.321 184.016 13.6582C184.453 13.9954 184.772 14.4238 184.973 14.9434C185.173 15.4629 185.273 16.0553 185.273 16.7207C185.273 17.6048 185.009 18.4251 184.48 19.1816C183.952 19.9382 183.255 20.4759 182.389 20.7949C181.523 21.1139 180.516 21.2734 179.367 21.2734C178.082 21.2734 176.988 21.1823 176.086 21C175.184 20.8177 174.413 20.4987 173.775 20.043ZM188.637 26.4688C188.09 26.4688 187.816 26.1953 187.816 25.6484V7.46484C187.816 6.91797 188.09 6.64453 188.637 6.64453H190.797C191.253 6.64453 191.499 6.91797 191.535 7.46484L191.59 8.25781H191.645C192.118 7.47396 192.647 6.96354 193.23 6.72656C193.814 6.48958 194.516 6.37109 195.336 6.37109C197.478 6.37109 198.982 7.11393 199.848 8.59961C200.723 10.0762 201.16 11.8171 201.16 13.8223C201.16 15.8275 200.723 17.5729 199.848 19.0586C198.982 20.5352 197.478 21.2734 195.336 21.2734C194.516 21.2734 193.814 21.1549 193.23 20.918C192.647 20.681 192.118 20.1706 191.645 19.3867H191.59C191.626 19.7513 191.645 20.1159 191.645 20.4805V25.6484C191.645 26.1953 191.371 26.4688 190.824 26.4688H188.637ZM191.645 14.4375C191.645 15.668 191.886 16.6706 192.369 17.4453C192.861 18.2109 193.449 18.5938 194.133 18.5938C195.363 18.5938 196.165 18.1654 196.539 17.3086C196.922 16.4427 197.113 15.2806 197.113 13.8223C197.113 12.3639 196.922 11.2064 196.539 10.3496C196.165 9.48372 195.363 9.05078 194.133 9.05078C193.449 9.05078 192.861 9.43815 192.369 10.2129C191.886 10.9785 191.645 11.9766 191.645 13.207V14.4375ZM203.348 13.8223C203.348 11.498 203.945 9.67513 205.139 8.35352C206.342 7.0319 208.128 6.37109 210.498 6.37109C212.868 6.37109 214.65 7.0319 215.844 8.35352C217.047 9.67513 217.648 11.498 217.648 13.8223C217.648 16.1465 217.047 17.9694 215.844 19.291C214.65 20.6126 212.868 21.2734 210.498 21.2734C208.128 21.2734 206.342 20.6126 205.139 19.291C203.945 17.9694 203.348 16.1465 203.348 13.8223ZM207.395 13.8223C207.395 15.554 207.659 16.7845 208.188 17.5137C208.725 18.2337 209.495 18.5938 210.498 18.5938C211.501 18.5938 212.266 18.2337 212.795 17.5137C213.333 16.7845 213.602 15.554 213.602 13.8223C213.602 12.0905 213.333 10.8646 212.795 10.1445C212.266 9.41536 211.501 9.05078 210.498 9.05078C209.495 9.05078 208.725 9.41536 208.188 10.1445C207.659 10.8646 207.395 12.0905 207.395 13.8223ZM221.422 21C220.875 21 220.602 20.7266 220.602 20.1797V7.46484C220.602 6.91797 220.875 6.64453 221.422 6.64453H223.582C224.129 6.64453 224.402 6.91797 224.402 7.46484V8.58594H224.457C224.694 8.0026 225.09 7.48763 225.646 7.04102C226.202 6.5944 226.859 6.37109 227.615 6.37109C228.135 6.37109 228.563 6.4349 228.9 6.5625C229.219 6.68099 229.342 6.89974 229.27 7.21875L228.887 8.8457C228.805 9.21029 228.559 9.31966 228.148 9.17383C227.911 9.0918 227.684 9.05078 227.465 9.05078C226.59 9.05078 225.865 9.57487 225.291 10.623C224.717 11.6712 224.43 13.1979 224.43 15.2031V20.1797C224.43 20.7266 224.156 21 223.609 21H221.422ZM230.869 9.37891C230.331 9.37891 230.062 9.15104 230.062 8.69531V7.32812C230.062 6.8724 230.331 6.64453 230.869 6.64453H231.799V6.16602C231.799 5.75586 231.895 5.38216 232.086 5.04492L233.139 3.19922C233.339 2.85286 233.576 2.67969 233.85 2.67969H234.807C235.354 2.67969 235.627 2.95312 235.627 3.5V6.64453H237.842C238.38 6.64453 238.648 6.8724 238.648 7.32812V8.69531C238.648 9.15104 238.38 9.37891 237.842 9.37891H235.627V16.1602C235.627 17.0898 235.691 17.7598 235.818 18.1699C235.955 18.571 236.301 18.7715 236.857 18.7715C237.14 18.7715 237.459 18.7259 237.814 18.6348C238.17 18.5345 238.448 18.4388 238.648 18.3477C238.967 18.2018 239.177 18.3066 239.277 18.6621L239.688 20.2207C239.77 20.5306 239.651 20.7585 239.332 20.9043C239.031 21.041 238.617 21.1641 238.088 21.2734C237.568 21.3919 237.044 21.4512 236.516 21.4512C235.212 21.4512 234.1 21.1823 233.18 20.6445C232.259 20.1068 231.799 18.9993 231.799 17.3223V9.37891H230.869ZM252.648 21C252.102 21 251.828 20.7266 251.828 20.1797V7.46484C251.828 6.91797 252.102 6.64453 252.648 6.64453H254.809C255.355 6.64453 255.629 6.91797 255.629 7.46484V8.58594H255.684C255.921 8.0026 256.317 7.48763 256.873 7.04102C257.429 6.5944 258.085 6.37109 258.842 6.37109C259.361 6.37109 259.79 6.4349 260.127 6.5625C260.446 6.68099 260.569 6.89974 260.496 7.21875L260.113 8.8457C260.031 9.21029 259.785 9.31966 259.375 9.17383C259.138 9.0918 258.91 9.05078 258.691 9.05078C257.816 9.05078 257.092 9.57487 256.518 10.623C255.943 11.6712 255.656 13.1979 255.656 15.2031V20.1797C255.656 20.7266 255.383 21 254.836 21H252.648ZM261.809 13.8223C261.809 11.5163 262.383 9.69792 263.531 8.36719C264.689 7.03646 266.32 6.37109 268.426 6.37109C270.868 6.37109 272.682 7 273.867 8.25781C275.052 9.51562 275.645 11.5391 275.645 14.3281C275.645 14.875 275.389 15.1484 274.879 15.1484H265.855C266.001 16.6615 266.375 17.6139 266.977 18.0059C267.578 18.3978 268.275 18.5938 269.068 18.5938C269.825 18.5938 270.404 18.4935 270.805 18.293C271.206 18.0924 271.543 17.819 271.816 17.4727C272.126 17.0716 272.509 17.0078 272.965 17.2812L274.332 18.1152C274.87 18.4434 274.947 18.8353 274.564 19.291C274.008 19.9564 273.357 20.4531 272.609 20.7812C271.862 21.1094 270.682 21.2734 269.068 21.2734C266.452 21.2734 264.589 20.6081 263.477 19.2773C262.365 17.9466 261.809 16.1283 261.809 13.8223ZM265.869 12.4141H271.816C271.816 11.4297 271.57 10.6276 271.078 10.0078C270.586 9.37891 269.802 9.06445 268.727 9.06445C267.87 9.06445 267.191 9.36523 266.689 9.9668C266.188 10.5592 265.915 11.375 265.869 12.4141ZM277.859 17.1719C277.859 15.349 278.73 14.0273 280.471 13.207C282.212 12.3867 284.199 11.9492 286.432 11.8945V11.3477C286.432 10.5091 286.222 9.91667 285.803 9.57031C285.383 9.22396 284.8 9.05078 284.053 9.05078C283.524 9.05078 283.055 9.12826 282.645 9.2832C282.243 9.42904 281.893 9.60221 281.592 9.80273C281.3 9.99414 281.036 10.1901 280.799 10.3906C280.38 10.7552 280.033 10.7734 279.76 10.4453L278.625 9.05078C278.342 8.70443 278.411 8.34896 278.83 7.98438C279.149 7.70182 279.518 7.45573 279.938 7.24609C280.366 7.03646 280.931 6.84049 281.633 6.6582C282.335 6.4668 283.246 6.37109 284.367 6.37109C286.263 6.37109 287.717 6.80859 288.729 7.68359C289.749 8.55859 290.26 9.84831 290.26 11.5527V20.1797C290.26 20.7266 289.986 21 289.439 21H287.197C286.705 21 286.459 20.7266 286.459 20.1797V19.7695H286.432C285.894 20.2891 285.247 20.6719 284.49 20.918C283.743 21.1549 283.055 21.2734 282.426 21.2734C280.931 21.2734 279.796 20.9089 279.021 20.1797C278.247 19.4414 277.859 18.4388 277.859 17.1719ZM281.906 17.0898C281.906 17.4089 281.97 17.6868 282.098 17.9238C282.225 18.1517 282.426 18.3203 282.699 18.4297C282.973 18.5391 283.278 18.5938 283.615 18.5938C284.08 18.5938 284.531 18.5299 284.969 18.4023C285.406 18.2747 285.894 17.974 286.432 17.5V14.5332C284.9 14.7064 283.875 14.9297 283.355 15.2031C282.836 15.4766 282.462 15.7591 282.234 16.0508C282.016 16.3424 281.906 16.6888 281.906 17.0898ZM293.227 13.8223C293.227 11.8171 293.66 10.0762 294.525 8.59961C295.4 7.11393 296.909 6.37109 299.051 6.37109C299.871 6.37109 300.573 6.48958 301.156 6.72656C301.74 6.96354 302.268 7.47396 302.742 8.25781H302.797C302.76 7.89323 302.742 7.52865 302.742 7.16406V1.64062C302.742 1.09375 303.016 0.820312 303.562 0.820312H305.75C306.297 0.820312 306.57 1.09375 306.57 1.64062V20.1797C306.57 20.7266 306.297 21 305.75 21H303.59C303.134 21 302.888 20.7266 302.852 20.1797L302.797 19.3867H302.742C302.268 20.1706 301.74 20.681 301.156 20.918C300.573 21.1549 299.871 21.2734 299.051 21.2734C296.909 21.2734 295.4 20.5352 294.525 19.0586C293.66 17.5729 293.227 15.8275 293.227 13.8223ZM297.273 13.8223C297.273 15.2806 297.46 16.4427 297.834 17.3086C298.217 18.1654 299.023 18.5938 300.254 18.5938C300.938 18.5938 301.521 18.2109 302.004 17.4453C302.496 16.6706 302.742 15.668 302.742 14.4375V13.207C302.742 11.9766 302.496 10.9785 302.004 10.2129C301.521 9.43815 300.938 9.05078 300.254 9.05078C299.023 9.05078 298.217 9.48372 297.834 10.3496C297.46 11.2064 297.273 12.3639 297.273 13.8223ZM309.4 7.71094C309.154 7 309.305 6.64453 309.852 6.64453H312.299C312.718 6.64453 312.992 6.87695 313.119 7.3418L315.184 14.9844C315.284 15.3398 315.37 15.8001 315.443 16.3652C315.525 16.9212 315.566 17.2767 315.566 17.4316H315.648C315.758 16.9486 315.835 16.5658 315.881 16.2832C315.936 15.9915 316.077 15.431 316.305 14.6016L318.26 7.3418C318.387 6.87695 318.661 6.64453 319.08 6.64453H321.527C322.065 6.64453 322.215 7 321.979 7.71094L317.371 21.5742C316.833 23.1966 316.173 24.4635 315.389 25.375C314.605 26.2865 313.516 26.7422 312.121 26.7422C311.355 26.7422 310.672 26.6784 310.07 26.5508C309.724 26.4779 309.592 26.2409 309.674 25.8398L309.975 24.3359C310.057 23.944 310.289 23.8073 310.672 23.9258C310.954 24.0169 311.219 24.0625 311.465 24.0625C312.203 24.0625 312.764 23.7116 313.146 23.0098C313.538 22.3079 313.798 21.7064 313.926 21.2051L313.967 21L309.4 7.71094Z" fill="white"/>
</g>
<defs>
<filter id="filter0_bd_1406_6286" x="-395.824" y="-399.18" width="1118.16" height="825.922" filterUnits="userSpaceOnUse" color-interpolation-filters="sRGB">
<feFlood flood-opacity="0" result="BackgroundImageFix"/>
<feGaussianBlur in="BackgroundImageFix" stdDeviation="200"/>
<feComposite in2="SourceAlpha" operator="in" result="effect1_backgroundBlur_1406_6286"/>
<feColorMatrix in="SourceAlpha" type="matrix" values="0 0 0 0 0 0 0 0 0 0 0 0 0 0 0 0 0 0 127 0" result="hardAlpha"/>
<feOffset dy="4"/>
<feGaussianBlur stdDeviation="2"/>
<feComposite in2="hardAlpha" operator="out"/>
<feColorMatrix type="matrix" values="0 0 0 0 0 0 0 0 0 0 0 0 0 0 0 0 0 0 0.25 0"/>
<feBlend mode="normal" in2="effect1_backgroundBlur_1406_6286" result="effect2_dropShadow_1406_6286"/>
<feBlend mode="normal" in="SourceGraphic" in2="effect2_dropShadow_1406_6286" result="shape"/>
</filter>
</defs>
</svg>
