<svg width="121" height="120" viewBox="0 0 121 120" fill="none" xmlns="http://www.w3.org/2000/svg">
<circle cx="60.5" cy="60" r="60" fill="#FFF2F3"/>
<path d="M41.8033 67.0649C50.2918 62.0895 61.0438 62.0895 69.5323 67.0649C69.8012 67.2225 70.1359 67.4083 70.5168 67.6198C72.2038 68.5563 74.7956 69.995 76.57 71.7047C77.6779 72.7722 78.7701 74.2142 78.9695 76.0099C79.1831 77.934 78.3235 79.7095 76.68 81.2508C73.8798 83.8769 70.4987 86 66.1191 86H45.2166C40.837 86 37.4559 83.8769 34.6556 81.2508C33.0121 79.7095 32.1525 77.934 32.3662 76.0099C32.5656 74.2142 33.6577 72.7722 34.7657 71.7047C36.5401 69.995 39.1318 68.5563 40.8189 67.6198C41.1997 67.4083 41.5345 67.2225 41.8033 67.0649Z" fill="#92163A"/>
<path d="M43.0012 46.6667C43.0012 39.6711 48.6722 34 55.6678 34C62.6634 34 68.3345 39.6711 68.3345 46.6667C68.3345 53.6623 62.6634 59.3333 55.6678 59.3333C48.6722 59.3333 43.0012 53.6623 43.0012 46.6667Z" fill="#92163A"/>
<path d="M79.6691 34.945C81.3537 33.9187 83.9019 33.4502 86.6269 34.9979C88.8418 36.2559 89.9917 38.8358 89.5888 41.617C89.1855 44.4019 87.2868 47.2732 83.7281 49.7121L83.5637 49.8251C82.4634 50.5821 81.3705 51.3339 79.6691 51.3339C77.9678 51.3339 76.8749 50.5821 75.7746 49.8251L75.6101 49.7121C72.0514 47.2732 70.1528 44.4019 69.7494 41.617C69.3466 38.8358 70.4964 36.2559 72.7113 34.9979C75.4364 33.4502 77.9845 33.9187 79.6691 34.945Z" fill="#92163A"/>
</svg>
