<svg width="116" height="116" viewBox="0 0 116 116" fill="none" xmlns="http://www.w3.org/2000/svg">
<circle cx="58" cy="58" r="57" fill="#282828" stroke="url(#paint0_linear_1401_17765)" stroke-width="2"/>
<circle cx="58.0001" cy="58.0002" r="44.8" fill="#282828"/>
<circle cx="57.0667" cy="58.0002" r="43.8" fill="#282828" stroke="#6A6A6A" stroke-width="2"/>
<path fill-rule="evenodd" clip-rule="evenodd" d="M41.8035 31.8662C40.9989 31.8665 40.2068 32.0658 39.4975 32.4465C38.7882 32.8273 38.1837 33.3776 37.7377 34.0487L27.7155 49.1075C27.1039 50.0308 27.0313 51.2116 27.5256 52.2021C33.0103 63.1928 40.6323 72.9741 49.9436 80.9711L54.8305 85.171C55.453 85.7056 56.2459 85.9995 57.0659 85.9995C57.8858 85.9995 58.6787 85.7056 59.3012 85.171L64.1881 80.9739C73.5008 72.9764 81.1238 63.1941 86.6089 52.2021C87.1032 51.2116 87.0278 50.0308 86.4162 49.1075L76.3884 34.0487C75.9424 33.3785 75.3382 32.829 74.6295 32.4488C73.9207 32.0686 73.1293 31.8694 72.3254 31.869L41.8035 31.8662ZM41.2227 36.3738C41.2866 36.2781 41.373 36.1998 41.4743 36.1456C41.5756 36.0914 41.6887 36.0631 41.8035 36.0632H48.338L42.9904 48.9228C42.8679 49.217 42.7743 49.5225 42.7111 49.835C40.7445 49.6879 38.7802 49.5106 36.819 49.3034L32.8955 48.8921L41.2227 36.3738ZM32.714 53.0919C37.7249 62.3031 44.3392 70.5423 52.2446 77.4205L43.5181 54.1019C41.1372 53.938 38.7595 53.731 36.3861 53.4808L32.714 53.0919ZM48.0894 54.3621L57.0645 78.3522L66.0423 54.3621C60.0602 54.6346 54.0688 54.6346 48.0866 54.3621M70.6136 54.1019L61.8871 77.4205C69.7926 70.5423 76.4069 62.3031 81.4177 53.0919L77.7456 53.4808C75.372 53.7298 72.9956 53.9369 70.6136 54.1019ZM81.2334 48.8921L77.3072 49.3062C75.3459 49.5135 73.3817 49.6907 71.415 49.8378C71.3529 49.5245 71.2603 49.218 71.1386 48.9228L65.791 36.0632H72.3254C72.4402 36.0631 72.5533 36.0914 72.6546 36.1456C72.7559 36.1998 72.8424 36.2781 72.9062 36.3738L81.2334 48.8921ZM67.0951 50.1092C60.4126 50.4561 53.7191 50.4561 47.0339 50.1092L52.8757 36.0632H61.2532L67.0951 50.1092Z" fill="url(#paint1_linear_1401_17765)"/>
<defs>
<linearGradient id="paint0_linear_1401_17765" x1="58" y1="2" x2="58" y2="114" gradientUnits="userSpaceOnUse">
<stop stop-color="#7A7A7A"/>
<stop offset="0.324" stop-color="#AFAFAF"/>
<stop offset="0.644" stop-color="#A4A4A4"/>
<stop offset="1" stop-color="#777777"/>
</linearGradient>
<linearGradient id="paint1_linear_1401_17765" x1="57.0667" y1="31.8662" x2="57.0667" y2="85.9995" gradientUnits="userSpaceOnUse">
<stop stop-color="#7A7A7A"/>
<stop offset="0.324" stop-color="#AFAFAF"/>
<stop offset="0.644" stop-color="#A4A4A4"/>
<stop offset="1" stop-color="#777777"/>
</linearGradient>
</defs>
</svg>
