<svg width="16" height="16" viewBox="0 0 16 16" fill="none" xmlns="http://www.w3.org/2000/svg">
<path fill-rule="evenodd" clip-rule="evenodd" d="M7.76865 1.20957C7.84479 1.16632 7.93714 1.16606 8.12185 1.16554L8.25908 1.16514C8.91342 1.16316 9.56858 1.16118 10.2223 1.18595C10.5122 1.19694 10.6572 1.20243 10.7114 1.30305C10.7657 1.40367 10.6896 1.52948 10.5373 1.78109L8.98654 4.34466C8.8915 4.50176 8.84398 4.58032 8.76777 4.62329C8.69155 4.66626 8.59974 4.66626 8.41613 4.66626H6.11544C5.90662 4.66626 5.80222 4.66626 5.76392 4.59862C5.72562 4.53098 5.77934 4.44145 5.88677 4.26239L5.88677 4.26239L7.55033 1.4898L7.55033 1.4898C7.64512 1.33182 7.69251 1.25282 7.76865 1.20957ZM6.06079 1.24678C6.02034 1.1787 5.91476 1.18262 5.70359 1.19047C5.2428 1.20759 4.8294 1.23679 4.45901 1.28659C3.54124 1.40998 2.81307 1.66801 2.24093 2.24014C1.66564 2.81543 1.41663 3.58591 1.29999 4.37107C1.27992 4.50619 1.26988 4.57375 1.30977 4.62C1.34966 4.66626 1.41966 4.66626 1.55966 4.66626H1.55967H3.73194H3.73194C3.91726 4.66626 4.00992 4.66626 4.08659 4.62261C4.16327 4.57896 4.21057 4.49929 4.30518 4.33994L5.9382 1.58946C6.04689 1.40639 6.10124 1.31486 6.06079 1.24678ZM12.7811 1.59541C12.5772 1.51151 12.4753 1.46956 12.3587 1.50746C12.2421 1.54537 12.1774 1.65057 12.0479 1.86099L10.5717 4.25983C10.461 4.43972 10.4056 4.52967 10.4438 4.59796C10.4819 4.66626 10.5876 4.66626 10.7988 4.66626H14.441C14.581 4.66626 14.651 4.66626 14.6909 4.62C14.7308 4.57375 14.7207 4.50619 14.7007 4.37107C14.584 3.58591 14.335 2.81543 13.7597 2.24014C13.4739 1.95427 13.149 1.74683 12.7811 1.59541ZM14.8282 6.51919V6.51919C14.8337 6.96215 14.8337 7.44197 14.8337 7.96142V8.03766C14.8337 9.49813 14.8337 10.6452 14.7133 11.5408C14.5899 12.4586 14.3319 13.1868 13.7597 13.7589C13.1876 14.3311 12.4594 14.5891 11.5416 14.7125C10.646 14.8329 9.4989 14.8329 8.03844 14.8329H7.96219C6.50173 14.8329 5.35462 14.8329 4.45901 14.7125C3.54124 14.5891 2.81307 14.3311 2.24093 13.7589C1.6688 13.1868 1.41078 12.4586 1.28739 11.5408C1.16698 10.6452 1.16698 9.49811 1.16699 8.03765V8.03764V7.9614V7.96136C1.16699 7.44193 1.16699 6.96213 1.1724 6.51919C1.17538 6.2754 1.17687 6.1535 1.25478 6.07655C1.33268 5.99959 1.45569 5.99959 1.70172 5.99959H14.2989C14.545 5.99959 14.668 5.99959 14.7459 6.07655C14.8238 6.1535 14.8253 6.2754 14.8282 6.51919ZM8.43626 11.2334C9.39081 10.6429 9.86808 10.3477 9.96906 9.92986C10.0107 9.75739 10.0107 9.57594 9.96906 9.40348C9.86808 8.98564 9.3908 8.69039 8.43625 8.09989C7.51348 7.52905 7.0521 7.24362 6.68028 7.35835C6.52655 7.40579 6.38649 7.49587 6.27354 7.61997C6.00033 7.92012 6.00033 8.5023 6.00033 9.66667C6.00033 10.831 6.00033 11.4132 6.27354 11.7134C6.38649 11.8375 6.52655 11.9275 6.68028 11.975C7.0521 12.0897 7.51348 11.8043 8.43625 11.2334L8.43626 11.2334Z" fill="#767676"/>
</svg>
