<svg width="36" height="45" viewBox="0 0 36 45" fill="none" xmlns="http://www.w3.org/2000/svg">
<path fill-rule="evenodd" clip-rule="evenodd" d="M18 0C11.4672 0 6.17139 5.29583 6.17139 11.8286V20.0571C6.17139 26.5899 11.4672 31.8857 18 31.8857C23.7747 31.8857 28.5828 27.7476 29.621 22.275C29.6788 21.9698 29.7078 21.8173 29.6178 21.7086C29.5278 21.6 29.3671 21.6 29.0456 21.6H22.1143C21.2622 21.6 20.5714 20.9092 20.5714 20.0571C20.5714 19.205 21.2622 18.5143 22.1143 18.5143H29.2285C29.5114 18.5143 29.6528 18.5143 29.7407 18.4264C29.8285 18.3385 29.8285 18.1971 29.8285 17.9143V13.9714C29.8285 13.6886 29.8285 13.5471 29.7407 13.4593C29.6528 13.3714 29.5114 13.3714 29.2285 13.3714H22.1143C21.2622 13.3714 20.5714 12.6806 20.5714 11.8285C20.5714 10.9764 21.2622 10.2857 22.1143 10.2857H29.0456C29.3671 10.2857 29.5278 10.2857 29.6178 10.177C29.7078 10.0684 29.6788 9.91582 29.6209 9.6107C28.5828 4.13809 23.7746 0 18 0Z" fill="white"/>
<path fill-rule="evenodd" clip-rule="evenodd" d="M2 18.5142C3.10457 18.5142 4 19.3998 4 20.4922C4 28.1392 10.268 34.3383 18 34.3383C25.732 34.3383 32 28.1392 32 20.4922C32 19.3998 32.8954 18.5142 34 18.5142C35.1046 18.5142 36 19.3998 36 20.4922C36 29.6555 28.9999 37.2018 20 38.1857V40.2724H24C25.1046 40.2724 26 41.158 26 42.2504C26 43.3429 25.1046 44.2284 24 44.2284H12C10.8954 44.2284 10 43.3429 10 42.2504C10 41.158 10.8954 40.2724 12 40.2724H16V38.1857C7.0001 37.2018 0 29.6555 0 20.4922C0 19.3998 0.89543 18.5142 2 18.5142Z" fill="white"/>
</svg>
