<svg width="54" height="51" viewBox="0 0 54 51" fill="none" xmlns="http://www.w3.org/2000/svg">
<path d="M50.4359 29.0789V29.0519C48.0599 26.5409 44.7389 25.002 41.0399 25.002C33.885 25.002 28.08 30.8069 28.08 37.9619C28.08 41.2829 29.349 44.3069 31.401 46.6019C33.777 49.2479 37.206 50.9219 41.0399 50.9219C48.1949 50.9219 53.9999 45.1169 53.9999 37.9619C53.9999 34.5329 52.6499 31.4009 50.4359 29.0789ZM45.8729 40.1489H43.0649V43.0919C43.0649 44.1989 42.1469 45.1169 41.0399 45.1169C39.9329 45.1169 39.0149 44.1989 39.0149 43.0919V40.1489H36.207C35.073 40.1489 34.182 39.2579 34.182 38.1239C34.182 37.0169 35.046 36.1259 36.18 36.0989H39.0149V33.3989C39.0149 33.3449 39.0149 33.2909 39.0419 33.2369C39.0959 32.2109 39.9869 31.3739 41.0399 31.3739C42.1199 31.3739 43.0109 32.2379 43.0649 33.3179V36.0989H45.8729C47.0069 36.0989 47.8979 37.0169 47.8979 38.1239C47.8979 39.2579 47.0069 40.1489 45.8729 40.1489Z" fill="#92163A"/>
<path d="M53.9998 15.093C53.9998 18.3059 53.4868 21.2759 52.5958 24.0299C52.4338 24.5969 51.7588 24.7589 51.2728 24.4079C48.3298 22.2209 44.7389 21.0599 41.0399 21.0599C31.6709 21.0599 24.0299 28.7009 24.0299 38.0699C24.0299 40.9859 24.7859 43.8479 26.2169 46.3859C26.6489 47.1419 26.1359 48.1139 25.3259 47.8169C18.8189 45.6029 5.66998 37.5299 1.404 24.0299C0.512998 21.2759 0 18.3059 0 15.093C0 6.74998 6.72298 0 15.012 0C19.8989 0 24.2729 2.37599 26.9999 6.02098C29.7269 2.37599 34.1009 0 38.9879 0C47.2769 0 53.9998 6.74998 53.9998 15.093Z" fill="#92163A"/>
</svg>
