<svg width="16" height="16" viewBox="0 0 16 16" fill="none" xmlns="http://www.w3.org/2000/svg">
<path fill-rule="evenodd" clip-rule="evenodd" d="M5.06787 2.58576C5.15497 2.94255 4.94839 3.30547 4.60646 3.39636L3.35242 3.72969C3.01049 3.82058 2.66269 3.60502 2.57559 3.24822C2.48849 2.89143 2.69507 2.52851 3.037 2.43762L4.29104 2.10429C4.63297 2.0134 4.98077 2.22896 5.06787 2.58576ZM10.2416 2.58863C10.3271 2.23144 10.674 2.01426 11.0163 2.10356L12.2941 2.43689C12.6364 2.52619 12.8445 2.88815 12.759 3.24535C12.6734 3.60254 12.3265 3.81972 11.9842 3.73042L10.7064 3.39708C10.3641 3.30779 10.156 2.94583 10.2416 2.58863Z" fill="white"/>
<path fill-rule="evenodd" clip-rule="evenodd" d="M3.14693 4.11766C5.96821 3.40544 9.36583 3.40544 12.1871 4.11766C12.844 4.28349 13.3505 4.77852 13.5824 5.42487C13.9557 6.46491 14.3837 8.21784 14.5288 10.5911C14.6344 12.3166 13.4047 13.2207 12.3183 13.7917C12.0257 13.9455 11.7234 13.9527 11.4474 13.8397C11.1927 13.7356 10.991 13.5425 10.8359 13.3503C10.5278 12.9684 10.2866 12.4394 10.1139 12.0331C10.003 11.7722 9.7612 11.6072 9.47384 11.6072H5.86021C5.57285 11.6072 5.33109 11.7722 5.22014 12.0331C5.0474 12.4394 4.80628 12.9684 4.49812 13.3503C4.34301 13.5425 4.14131 13.7356 3.88667 13.8397C3.61064 13.9527 3.30835 13.9455 3.01571 13.7917C1.94254 13.2276 0.698914 12.3293 0.805201 10.5911C0.950324 8.21784 1.37832 6.46491 1.7516 5.42487C1.98358 4.77852 2.49003 4.28349 3.14693 4.11766ZM6.20198 6.27876C6.45148 6.53911 6.45148 6.96122 6.20198 7.22157L5.69541 7.75016L6.20198 8.27876C6.45148 8.53911 6.45148 8.96122 6.20198 9.22157C5.95248 9.48192 5.54796 9.48192 5.29845 9.22157L4.79188 8.69297L4.28531 9.22157C4.03581 9.48192 3.63129 9.48192 3.38179 9.22157C3.13229 8.96122 3.13229 8.53911 3.38179 8.27876L3.88836 7.75016L3.38179 7.22157C3.13229 6.96122 3.13229 6.53911 3.38179 6.27876C3.63129 6.01841 4.03581 6.01841 4.28531 6.27876L4.79188 6.80735L5.29845 6.27876C5.54796 6.01841 5.95248 6.01841 6.20198 6.27876ZM9.57606 6.75016C9.57606 6.38197 9.8621 6.0835 10.215 6.0835H10.2207C10.5735 6.0835 10.8596 6.38197 10.8596 6.75016C10.8596 7.11835 10.5735 7.41683 10.2207 7.41683H10.215C9.8621 7.41683 9.57606 7.11835 9.57606 6.75016ZM11.4985 9.41683H11.4927C11.1399 9.41683 10.8538 9.11835 10.8538 8.75016C10.8538 8.38197 11.1399 8.0835 11.4927 8.0835H11.4985C11.8513 8.0835 12.1374 8.38197 12.1374 8.75016C12.1374 9.11835 11.8513 9.41683 11.4985 9.41683Z" fill="white"/>
</svg>
