<svg width="20" height="20" viewBox="0 0 20 20" fill="none" xmlns="http://www.w3.org/2000/svg">
<path fill-rule="evenodd" clip-rule="evenodd" d="M10.8711 1.875H10.8711C12.4016 1.87499 13.6012 1.87499 14.553 1.97811C15.5243 2.08334 16.3113 2.30194 16.9832 2.79013C17.39 3.08568 17.7477 3.44341 18.0433 3.8502C18.5315 4.52213 18.7501 5.30912 18.8553 6.2804C18.9584 7.23216 18.9584 8.43181 18.9584 9.96222V9.96227V10.0377V10.0378C18.9584 11.5682 18.9584 12.7678 18.8553 13.7196C18.7501 14.6909 18.5315 15.4779 18.0433 16.1498C17.7477 16.5566 17.39 16.9143 16.9832 17.2099C16.3113 17.6981 15.5243 17.9167 14.553 18.0219C13.6013 18.125 12.4016 18.125 10.8712 18.125H10.8711H9.12902H9.12897C7.59856 18.125 6.39891 18.125 5.44714 18.0219C4.47586 17.9167 3.68888 17.6981 3.01694 17.2099C2.61016 16.9143 2.25242 16.5566 1.95688 16.1498C1.46869 15.4779 1.25009 14.6909 1.14486 13.7196C1.04174 12.7678 1.04174 11.5682 1.04175 10.0377V10.0377V9.96229V9.96228C1.04174 8.43184 1.04174 7.23218 1.14486 6.2804C1.25009 5.30912 1.46869 4.52213 1.95688 3.8502C2.25242 3.44341 2.61016 3.08568 3.01694 2.79013C3.68888 2.30194 4.47586 2.08334 5.44714 1.97811C6.39892 1.87499 7.59859 1.87499 9.12903 1.875H9.12904H10.8711ZM10.8334 7.5C10.8334 7.03976 11.2065 6.66667 11.6667 6.66667H15.0001C15.4603 6.66667 15.8334 7.03976 15.8334 7.5C15.8334 7.96024 15.4603 8.33333 15.0001 8.33333H11.6667C11.2065 8.33333 10.8334 7.96024 10.8334 7.5ZM10.8334 10.4167C10.8334 9.95643 11.2065 9.58333 11.6667 9.58333H14.1667C14.627 9.58333 15.0001 9.95643 15.0001 10.4167C15.0001 10.8769 14.627 11.25 14.1667 11.25H11.6667C11.2065 11.25 10.8334 10.8769 10.8334 10.4167ZM7.08342 5.20823C5.81776 5.20823 4.79175 6.23425 4.79175 7.4999C4.79175 8.76555 5.81776 9.79157 7.08342 9.79157C8.34907 9.79157 9.37508 8.76555 9.37508 7.4999C9.37508 6.23425 8.34907 5.20823 7.08342 5.20823ZM3.60085 13.0682C3.4545 13.3809 3.58929 13.7529 3.90191 13.8993C3.98777 13.9395 4.07811 13.9584 4.16703 13.9584H10.0001C10.089 13.9585 10.1794 13.9395 10.2652 13.8993C10.5778 13.7529 10.7126 13.3809 10.5663 13.0682C9.89733 11.6393 8.41974 11.0218 7.04949 11.042C5.68685 11.0622 4.23403 11.7157 3.60085 13.0682Z" fill="#F84754"/>
</svg>
