<svg width="20" height="20" viewBox="0 0 20 20" fill="none" xmlns="http://www.w3.org/2000/svg">
<path d="M10 0C15.5228 0 20 4.47715 20 10C20 15.5228 15.5228 20 10 20C4.47715 20 0 15.5228 0 10C0 4.47715 4.47715 0 10 0ZM10 1.66667C5.39763 1.66667 1.66667 5.39763 1.66667 10C1.66667 14.6023 5.39763 18.3333 10 18.3333C14.6023 18.3333 18.3333 14.6023 18.3333 10C18.3333 5.39763 14.6023 1.66667 10 1.66667ZM13.1059 12.7776C13.4128 12.4346 13.9397 12.4054 14.2827 12.7124C14.6255 13.0193 14.6547 13.5462 14.3478 13.8892C13.2808 15.0812 11.7277 15.8333 10 15.8333C8.27228 15.8333 6.71913 15.0812 5.6522 13.8892C5.34527 13.5462 5.37445 13.0193 5.71738 12.7124C6.06033 12.4054 6.58715 12.4346 6.8941 12.7776C7.65823 13.6313 8.76605 14.1667 10 14.1667C11.2339 14.1667 12.3418 13.6313 13.1059 12.7776ZM7.08333 7.08333C7.77368 7.08333 8.33333 7.64298 8.33333 8.33333C8.33333 9.02368 7.77368 9.58333 7.08333 9.58333C6.39298 9.58333 5.83333 9.02368 5.83333 8.33333C5.83333 7.64298 6.39298 7.08333 7.08333 7.08333ZM12.9167 7.08333C13.607 7.08333 14.1667 7.64298 14.1667 8.33333C14.1667 9.02368 13.607 9.58333 12.9167 9.58333C12.2263 9.58333 11.6667 9.02368 11.6667 8.33333C11.6667 7.64298 12.2263 7.08333 12.9167 7.08333Z" fill="#767676"/>
</svg>
