<svg width="20" height="20" viewBox="0 0 20 20" fill="none" xmlns="http://www.w3.org/2000/svg">
<path fill-rule="evenodd" clip-rule="evenodd" d="M0 10C0 15.5228 4.47715 20 10 20C15.5228 20 20 15.5228 20 10C20 4.47715 15.5228 0 10 0C4.47715 0 0 4.47715 0 10ZM14.3495 6.52358C14.7282 6.87074 14.7538 7.45917 14.4067 7.83789L9.29038 13.4193C9.11893 13.6063 8.87852 13.7152 8.62486 13.7207C8.3712 13.7262 8.12629 13.6279 7.94688 13.4485L5.6213 11.1229C5.25802 10.7596 5.25802 10.1706 5.6213 9.80735C5.98457 9.44407 6.57357 9.44407 6.93684 9.80735L8.57543 11.4459L13.0352 6.58073C13.3824 6.20201 13.9708 6.17643 14.3495 6.52358Z" fill="white"/>
</svg>
