<svg width="35" height="35" viewBox="0 0 35 35" fill="none" xmlns="http://www.w3.org/2000/svg">
<path fill-rule="evenodd" clip-rule="evenodd" d="M8.91493 6.5625H17.3617C20.8938 6.5625 23.3599 8.99651 23.3599 12.4847V22.5153C23.3599 26.0035 20.8938 28.4375 17.3617 28.4375H8.91493C5.38281 28.4375 2.91675 26.0035 2.91675 22.5153V12.4847C2.91675 8.99651 5.38281 6.5625 8.91493 6.5625ZM29.1055 10.0319C29.7457 9.70613 30.4967 9.74019 31.1078 10.1251C31.7188 10.5086 32.0834 11.1748 32.0834 11.9033V23.0976C32.0834 23.8275 31.7188 24.4923 31.1078 24.8758C30.7738 25.0845 30.4005 25.1911 30.0242 25.1911C29.7107 25.1911 29.3971 25.1171 29.104 24.9676L26.9442 23.8779C26.145 23.4722 25.6492 22.6579 25.6492 21.7533V13.2461C25.6492 12.34 26.145 11.5257 26.9442 11.123L29.1055 10.0319Z" fill="white"/>
</svg>
