<svg width="20" height="20" viewBox="0 0 20 20" fill="none" xmlns="http://www.w3.org/2000/svg">
<g clip-path="url(#clip0_226_2784)">
<path fill-rule="evenodd" clip-rule="evenodd" d="M9.99984 3.75033C9.5396 3.75033 9.1665 3.37723 9.1665 2.91699V1.25033C9.1665 0.790088 9.5396 0.416992 9.99984 0.416992C10.4601 0.416992 10.8332 0.790088 10.8332 1.25033V2.91699C10.8332 3.37723 10.4601 3.75033 9.99984 3.75033ZM1.24984 9.16699C0.7896 9.16699 0.416504 9.54009 0.416504 10.0003C0.416504 10.4606 0.7896 10.8337 1.24984 10.8337H2.9165C3.37674 10.8337 3.74984 10.4606 3.74984 10.0003C3.74984 9.54009 3.37674 9.16699 2.9165 9.16699H1.24984ZM17.0832 9.16699C16.6229 9.16699 16.2498 9.54009 16.2498 10.0003C16.2498 10.4606 16.6229 10.8337 17.0832 10.8337H18.7498C19.2101 10.8337 19.5832 10.4606 19.5832 10.0003C19.5832 9.54009 19.2101 9.16699 18.7498 9.16699H17.0832ZM9.1665 18.7503C9.1665 19.2106 9.5396 19.5837 9.99984 19.5837C10.4601 19.5837 10.8332 19.2106 10.8332 18.7503V17.0837C10.8332 16.6234 10.4601 16.2503 9.99984 16.2503C9.5396 16.2503 9.1665 16.6234 9.1665 17.0837V18.7503Z" fill="#F84754"/>
<path d="M6.875 10C6.875 8.27411 8.27411 6.875 10 6.875C11.7259 6.875 13.125 8.27411 13.125 10C13.125 11.7259 11.7259 13.125 10 13.125C8.27411 13.125 6.875 11.7259 6.875 10Z" fill="#F84754"/>
<path fill-rule="evenodd" clip-rule="evenodd" d="M10.0114 3.75065C6.55961 3.75065 3.76139 6.54887 3.76139 10.0007C3.76139 13.4524 6.55961 16.2507 10.0114 16.2507C13.4632 16.2507 16.2614 13.4524 16.2614 10.0007C16.2614 6.54887 13.4632 3.75065 10.0114 3.75065ZM2.09473 10.0007C2.09473 5.6284 5.63914 2.08398 10.0114 2.08398C14.3836 2.08398 17.9281 5.6284 17.9281 10.0007C17.9281 14.3729 14.3836 17.9173 10.0114 17.9173C5.63914 17.9173 2.09473 14.3729 2.09473 10.0007Z" fill="#F84754"/>
</g>
<defs>
<clipPath id="clip0_226_2784">
<rect width="20" height="20" fill="white"/>
</clipPath>
</defs>
</svg>
