<svg width="20" height="20" viewBox="0 0 20 20" fill="none" xmlns="http://www.w3.org/2000/svg">
<path fill-rule="evenodd" clip-rule="evenodd" d="M8.12378 4.15511C7.02787 3.05919 5.25103 3.05919 4.15511 4.15511C3.05919 5.25103 3.05919 7.02787 4.15511 8.12378L5.44191 9.41058C5.76734 9.73602 5.76734 10.2637 5.44191 10.5891C5.11647 10.9145 4.58883 10.9145 4.2634 10.5891L2.9766 9.3023C1.22981 7.5555 1.22981 4.72339 2.9766 2.9766C4.72339 1.22981 7.5555 1.22981 9.3023 2.9766L17.0231 10.6974C18.7699 12.4442 18.7699 15.2763 17.0231 17.0231C15.2763 18.7699 12.4442 18.7699 10.6974 17.0231L7.80209 14.1278C6.5883 12.914 6.5883 10.9461 7.80209 9.73228C9.01587 8.5185 10.9838 8.5185 12.1976 9.73228L13.8061 11.3408C14.1315 11.6662 14.1315 12.1939 13.8061 12.5193C13.4806 12.8447 12.953 12.8447 12.6276 12.5193L11.0191 10.9108C10.4562 10.3479 9.54351 10.3479 8.9806 10.9108C8.41769 11.4737 8.41769 12.3864 8.9806 12.9493L11.8759 15.8446C12.9718 16.9405 14.7486 16.9405 15.8446 15.8446C16.9405 14.7486 16.9405 12.9718 15.8446 11.8759L8.12378 4.15511Z" fill="#767676"/>
<path d="M13.2168 11.9295L11.6084 10.321C10.72 9.4327 9.27971 9.4327 8.39136 10.321C7.50301 11.2094 7.50301 12.6497 8.39136 13.538L11.2867 16.4333C12.708 17.8547 15.0125 17.8547 16.4338 16.4333" stroke="#767676" stroke-width="2" stroke-linecap="round" stroke-linejoin="round"/>
</svg>
