<svg width="20" height="20" viewBox="0 0 20 20" fill="none" xmlns="http://www.w3.org/2000/svg">
<path d="M1.20467 5.97354C1.58761 5.71825 2.105 5.82173 2.36029 6.20467C2.38213 6.23587 2.44429 6.32442 2.49039 6.38688C2.58266 6.5119 2.72232 6.6942 2.90606 6.91468C3.27446 7.35676 3.81504 7.94632 4.50091 8.5342C5.88579 9.72125 7.78184 10.8336 10.0003 10.8336C12.2187 10.8336 14.1144 9.72125 15.4993 8.5342C16.1852 7.94632 16.7258 7.35676 17.0942 6.91468C17.2779 6.6942 17.4176 6.5119 17.5098 6.38688C17.556 6.32442 17.6181 6.23587 17.6399 6.20467C17.6401 6.20445 17.6402 6.20423 17.6404 6.20401C17.8958 5.82161 18.4128 5.71839 18.7956 5.97354C19.1785 6.22884 19.282 6.74623 19.0267 7.12917L19.022 7.13583C18.9885 7.18368 18.903 7.30595 18.8508 7.37664C18.7413 7.52506 18.5814 7.73339 18.3745 7.98165C17.9617 8.47708 17.3564 9.13752 16.584 9.79963C15.0522 11.1126 12.7818 12.5003 10.0003 12.5003C7.21866 12.5003 4.94804 11.1126 3.41626 9.79963C2.6438 9.13752 2.03854 8.47708 1.62569 7.98165C1.41881 7.73339 1.25899 7.52506 1.14943 7.37664C1.09463 7.30238 1.00297 7.17121 0.973543 7.12917C0.718249 6.74623 0.821727 6.22884 1.20467 5.97354Z" fill="#767676"/>
<path fill-rule="evenodd" clip-rule="evenodd" d="M3.92275 8.57745C4.24819 8.90289 4.24819 9.43053 3.92275 9.75596L2.25609 11.4226C1.93065 11.7481 1.40301 11.7481 1.07757 11.4226C0.752137 11.0972 0.752137 10.5696 1.07757 10.2441L2.74424 8.57745C3.06968 8.25201 3.59731 8.25201 3.92275 8.57745ZM16.0776 8.57745C16.403 8.25201 16.9306 8.25201 17.2561 8.57745L18.9228 10.2441C19.2482 10.5696 19.2482 11.0972 18.9228 11.4226C18.5973 11.7481 18.0697 11.7481 17.7442 11.4226L16.0776 9.75596C15.7521 9.43053 15.7521 8.90289 16.0776 8.57745ZM7.92891 10.5355C8.32356 10.7723 8.45153 11.2841 8.21474 11.6788L6.96474 13.7621C6.72795 14.1568 6.21607 14.2847 5.82142 14.048C5.42677 13.8112 5.2988 13.2993 5.53559 12.9046L6.78559 10.8213C7.02238 10.4266 7.53426 10.2987 7.92891 10.5355ZM12.0714 10.5355C12.4661 10.2987 12.978 10.4266 13.2147 10.8213L14.4647 12.9046C14.7015 13.2993 14.5736 13.8112 14.1789 14.048C13.7843 14.2847 13.2724 14.1568 13.0356 13.7621L11.7856 11.6788C11.5488 11.2841 11.6768 10.7723 12.0714 10.5355Z" fill="#767676"/>
</svg>
