<svg width="40" height="40" viewBox="0 0 40 40" fill="none" xmlns="http://www.w3.org/2000/svg">
<path d="M39.3101 19.9998C39.3101 30.6646 30.6646 39.3101 19.9998 39.3101C9.33499 39.3101 0.689453 30.6646 0.689453 19.9998C0.689453 9.33499 9.33499 0.689453 19.9998 0.689453C30.6646 0.689453 39.3101 9.33499 39.3101 19.9998Z" fill="#ECECEC"/>
<path fill-rule="evenodd" clip-rule="evenodd" d="M40 20C40 31.0457 31.0457 40 20 40C8.9543 40 0 31.0457 0 20C0 8.9543 8.9543 0 20 0C31.0457 0 40 8.9543 40 20ZM20 39.3103C30.6648 39.3103 39.3103 30.6648 39.3103 20C39.3103 9.33519 30.6648 0.689655 20 0.689655C9.33519 0.689655 0.689655 9.33519 0.689655 20C0.689655 30.6648 9.33519 39.3103 20 39.3103Z" fill="#767676"/>
<path d="M35.4483 20C35.4483 28.5319 28.5319 35.4483 20 35.4483C11.4682 35.4483 4.55176 28.5319 4.55176 20C4.55176 11.4682 11.4682 4.55176 20 4.55176C28.5319 4.55176 35.4483 11.4682 35.4483 20Z" fill="#ECECEC"/>
<path fill-rule="evenodd" clip-rule="evenodd" d="M20 34.7587C28.151 34.7587 34.7587 28.151 34.7587 20C34.7587 11.8491 28.151 5.24141 20 5.24141C11.8491 5.24141 5.24141 11.8491 5.24141 20C5.24141 28.151 11.8491 34.7587 20 34.7587ZM20 35.4483C28.5319 35.4483 35.4483 28.5319 35.4483 20C35.4483 11.4682 28.5319 4.55176 20 4.55176C11.4682 4.55176 4.55176 11.4682 4.55176 20C4.55176 28.5319 11.4682 35.4483 20 35.4483Z" fill="#767676"/>
<path fill-rule="evenodd" clip-rule="evenodd" d="M19.9998 10.9888C19.3341 10.9888 18.9256 11.4247 18.66 11.8002C18.3875 12.1855 18.1063 12.7406 17.7726 13.3993L17.7726 13.3994L17.7726 13.3994C17.643 13.6551 17.5172 13.9138 17.3913 14.1729C17.0982 14.7759 16.804 15.381 16.4577 15.957C16.1936 16.3964 15.7269 16.6471 15.158 16.4662C14.9435 16.398 14.6736 16.291 14.2659 16.1286C14.1678 16.0896 14.0654 16.046 13.9598 16.001C13.3992 15.7623 12.7464 15.4844 12.1553 15.6359C11.5741 15.7849 11.1605 16.2175 11.0247 16.7235C10.9422 17.0311 11.0142 17.3465 11.0985 17.6181C11.1857 17.8988 11.3275 18.2505 11.4986 18.6747L11.4986 18.6748L13.0628 22.5532L13.0628 22.5532C13.3817 23.344 13.6391 23.9823 13.9058 24.4778C14.4511 25.4909 15.311 26.1095 16.5706 26.2462C17.1446 26.3084 17.8487 26.3084 18.7046 26.3084H21.2951C22.151 26.3084 22.8551 26.3084 23.429 26.2462C24.6886 26.1095 25.5485 25.4909 26.0938 24.4778C26.3605 23.9823 26.618 23.344 26.9369 22.5531L28.501 18.6747L28.5011 18.6746C28.6722 18.2504 28.814 17.8987 28.9012 17.6181C28.9855 17.3465 29.0574 17.0311 28.9749 16.7235C28.8391 16.2175 28.4255 15.7849 27.8443 15.6359C27.2592 15.4859 26.6086 15.7613 26.0535 15.9963C25.9534 16.0387 25.8563 16.0798 25.7633 16.1169C25.7065 16.1395 25.6498 16.1623 25.593 16.1852C25.3454 16.2849 25.0971 16.385 24.8416 16.4662C24.2728 16.6471 23.8061 16.3964 23.5419 15.957C23.1956 15.381 22.9015 14.7758 22.6084 14.1729C22.4824 13.9138 22.3567 13.6551 22.2271 13.3993L22.2271 13.3993C21.8933 12.7406 21.6121 12.1855 21.3396 11.8002C21.074 11.4247 20.6655 10.9888 19.9998 10.9888ZM20.3804 17.9527C20.2606 17.5842 19.7393 17.5842 19.6195 17.9527L19.2226 19.1741C19.1691 19.3389 19.0155 19.4505 18.8422 19.4505H17.558C17.1705 19.4505 17.0094 19.9464 17.3228 20.1741L18.3618 20.929C18.502 21.0309 18.5607 21.2114 18.5071 21.3762L18.1103 22.5976C17.9905 22.9661 18.4123 23.2726 18.7258 23.0448L19.7648 22.29C19.905 22.1881 20.0949 22.1881 20.235 22.29L21.274 23.0448C21.5875 23.2726 22.0093 22.9661 21.8896 22.5976L21.4927 21.3762C21.4392 21.2114 21.4978 21.0309 21.638 20.929L22.677 20.1741C22.9905 19.9464 22.8294 19.4505 22.4419 19.4505H21.1576C20.9843 19.4505 20.8308 19.3389 20.7772 19.1741L20.3804 17.9527Z" fill="#767676"/>
<path fill-rule="evenodd" clip-rule="evenodd" d="M14.5928 28.1121C14.5928 27.6144 14.9962 27.2109 15.4939 27.2109H24.5055C25.0032 27.2109 25.4066 27.6144 25.4066 28.1121C25.4066 28.6098 25.0032 29.0132 24.5055 29.0132H15.4939C14.9962 29.0132 14.5928 28.6098 14.5928 28.1121Z" fill="#767676"/>
</svg>
