<svg width="16" height="16" viewBox="0 0 16 16" fill="none" xmlns="http://www.w3.org/2000/svg">
<path fill-rule="evenodd" clip-rule="evenodd" d="M1.08301 4.00016C1.08301 3.63197 1.38148 3.3335 1.74967 3.3335L3.41634 3.3335C3.78453 3.3335 4.08301 3.63197 4.08301 4.00016C4.08301 4.36835 3.78453 4.66683 3.41634 4.66683L1.74967 4.66683C1.38148 4.66683 1.08301 4.36835 1.08301 4.00016ZM1.08301 8.00016C1.08301 7.63197 1.38148 7.3335 1.74967 7.3335L3.41634 7.3335C3.78453 7.3335 4.08301 7.63197 4.08301 8.00016C4.08301 8.36835 3.78453 8.66683 3.41634 8.66683H1.74967C1.38148 8.66683 1.08301 8.36835 1.08301 8.00016ZM1.08301 12.0002C1.08301 11.632 1.38148 11.3335 1.74967 11.3335H3.41634C3.78453 11.3335 4.08301 11.632 4.08301 12.0002C4.08301 12.3684 3.78453 12.6668 3.41634 12.6668H1.74967C1.38148 12.6668 1.08301 12.3684 1.08301 12.0002Z" fill="#767676"/>
<path fill-rule="evenodd" clip-rule="evenodd" d="M9.12096 0.833496H9.12095H9.12094H8.04572H8.04572H8.04571C6.82054 0.833486 5.85013 0.833478 5.09065 0.935587C4.30904 1.04067 3.6764 1.26208 3.1775 1.76099C2.67859 2.2599 2.45718 2.89253 2.35209 3.67415C2.24998 4.43362 2.24999 5.40404 2.25 6.6292V6.62921V6.62922V9.37111V9.37112C2.24999 10.5963 2.24998 11.5667 2.35209 12.3262C2.45718 13.1078 2.67859 13.7404 3.1775 14.2393C3.6764 14.7382 4.30904 14.9597 5.09065 15.0647C5.85011 15.1668 6.82051 15.1668 8.04566 15.1668H8.04573H9.12094H9.12101C10.3462 15.1668 11.3166 15.1668 12.076 15.0647C12.8576 14.9597 13.4903 14.7382 13.9892 14.2393C14.4881 13.7404 14.7095 13.1078 14.8146 12.3262C14.9167 11.5667 14.9167 10.5963 14.9167 9.37112V9.37111V9.3711V6.62922V6.62921V6.6292C14.9167 5.40404 14.9167 4.43362 14.8146 3.67415C14.7095 2.89253 14.4881 2.2599 13.9892 1.76099C13.4903 1.26208 12.8576 1.04067 12.076 0.935587C11.3165 0.833478 10.3461 0.833486 9.12096 0.833496ZM6.08333 5.66683C5.71514 5.66683 5.41667 5.96531 5.41667 6.3335C5.41667 6.70169 5.71514 7.00016 6.08333 7.00016H11.4167C11.7849 7.00016 12.0833 6.70169 12.0833 6.3335C12.0833 5.96531 11.7849 5.66683 11.4167 5.66683H6.08333ZM6.08333 9.00016C5.71514 9.00016 5.41667 9.29864 5.41667 9.66683C5.41667 10.035 5.71514 10.3335 6.08333 10.3335H8.75C9.11819 10.3335 9.41667 10.035 9.41667 9.66683C9.41667 9.29864 9.11819 9.00016 8.75 9.00016H6.08333Z" fill="#767676"/>
</svg>
