<svg width="20" height="20" viewBox="0 0 20 20" fill="none" xmlns="http://www.w3.org/2000/svg">
<path d="M14.9944 7.81945C14.9855 7.06444 14.9596 6.41183 14.8849 5.85648C14.8811 5.82805 14.8772 5.79976 14.873 5.77159C15.2549 5.47136 15.6003 5.21836 15.912 5.03008C16.4956 4.67751 17.2352 4.38228 17.9941 4.7585C18.7412 5.12886 18.9727 5.88795 19.0691 6.56902C19.1659 7.25371 19.1659 8.17509 19.1658 9.28184V10.7204C19.1659 11.8271 19.1659 12.7485 19.0691 13.4332C18.9727 14.1143 18.7412 14.8734 17.9941 15.2437C17.2352 15.6199 16.4956 15.3247 15.912 14.9721C15.6003 14.7839 15.2549 14.5309 14.8731 14.2307C14.8772 14.2026 14.8811 14.1743 14.8849 14.146C14.9596 13.5906 14.9855 12.9379 14.9944 12.1828C15.7925 12.8404 16.3437 13.2857 16.7738 13.5456C16.9999 13.6822 17.1364 13.7315 17.2109 13.7463C17.2274 13.7495 17.2386 13.7506 17.2452 13.751L17.2495 13.7511L17.2522 13.7511L17.2539 13.7505C17.2575 13.7487 17.259 13.7471 17.259 13.7471C17.2614 13.7447 17.2738 13.7312 17.2916 13.6965C17.3314 13.6185 17.3806 13.4701 17.4188 13.1998C17.4971 12.6462 17.4992 11.8446 17.4992 10.6527V9.34951C17.4992 8.15763 17.4971 7.35605 17.4188 6.80245C17.3806 6.53212 17.3314 6.3837 17.2916 6.30576C17.2738 6.27102 17.2617 6.25791 17.2593 6.25545C17.2593 6.25545 17.2575 6.25356 17.2539 6.25176L17.2526 6.25116C17.2526 6.25116 17.2485 6.25109 17.2452 6.25126C17.2386 6.2516 17.2274 6.25268 17.2109 6.25594C17.1364 6.27069 16.9999 6.32002 16.7738 6.45663C16.3437 6.71648 15.7925 7.16181 14.9944 7.81945Z" fill="white"/>
<path fill-rule="evenodd" clip-rule="evenodd" d="M7.43989 2.5H8.39328C9.71715 2.49998 10.7948 2.49996 11.6447 2.61422C12.5313 2.73343 13.2938 2.99058 13.9016 3.59835C14.5093 4.20613 14.7665 4.9686 14.8857 5.85525C15 6.70513 14.9999 7.78277 14.9999 9.10666V10.8933C14.9999 12.2172 15 13.2949 14.8857 14.1448C14.7665 15.0314 14.5093 15.7939 13.9016 16.4017C13.2938 17.0094 12.5313 17.2666 11.6447 17.3858C10.7948 17.5 9.71715 17.5 8.39326 17.5H7.43992C6.11603 17.5 5.03838 17.5 4.1885 17.3858C3.30185 17.2666 2.53938 17.0094 1.9316 16.4017C1.32383 15.7939 1.06668 15.0314 0.947469 14.1448C0.833207 13.2949 0.833228 12.2172 0.833253 10.8934V9.10662C0.833228 7.78275 0.833207 6.70512 0.947469 5.85525C1.06668 4.9686 1.32383 4.20613 1.9316 3.59835C2.53938 2.99058 3.30185 2.73343 4.1885 2.61422C5.03838 2.49996 6.11602 2.49998 7.43989 2.5ZM9.58325 9.16667C10.2736 9.16667 10.8333 8.60702 10.8333 7.91667C10.8333 7.22631 10.2736 6.66667 9.58325 6.66667C8.8929 6.66667 8.33325 7.22631 8.33325 7.91667C8.33325 8.60702 8.8929 9.16667 9.58325 9.16667Z" fill="white"/>
</svg>
