<svg width="27" height="27" viewBox="0 0 27 27" fill="none" xmlns="http://www.w3.org/2000/svg">
<path fill-rule="evenodd" clip-rule="evenodd" d="M13.5 27C6.04416 27 0 20.9558 0 13.5C0 6.04416 6.04416 0 13.5 0C20.9558 0 27 6.04416 27 13.5C27 20.9558 20.9558 27 13.5 27ZM14.7558 8.47674C14.7558 7.78318 14.1936 7.22093 13.5 7.22093C12.8064 7.22093 12.2442 7.78318 12.2442 8.47674V12.2442H8.47674C7.78318 12.2442 7.22093 12.8064 7.22093 13.5C7.22093 14.1936 7.78318 14.7558 8.47674 14.7558H12.2442V18.5233C12.2442 19.2168 12.8064 19.7791 13.5 19.7791C14.1936 19.7791 14.7558 19.2168 14.7558 18.5233V14.7558H18.5233C19.2168 14.7558 19.7791 14.1936 19.7791 13.5C19.7791 12.8064 19.2168 12.2442 18.5233 12.2442H14.7558V8.47674Z" fill="#F84754"/>
</svg>
