<svg width="16" height="16" viewBox="0 0 16 16" fill="none" xmlns="http://www.w3.org/2000/svg">
<path fill-rule="evenodd" clip-rule="evenodd" d="M5.06738 2.58576C5.15448 2.94255 4.9479 3.30547 4.60597 3.39636L3.35193 3.72969C3.01 3.82058 2.6622 3.60502 2.5751 3.24822C2.488 2.89143 2.69458 2.52851 3.03651 2.43762L4.29055 2.10429C4.63248 2.0134 4.98028 2.22896 5.06738 2.58576ZM10.2411 2.58863C10.3266 2.23144 10.6735 2.01426 11.0158 2.10356L12.2936 2.43689C12.6359 2.52619 12.8441 2.88815 12.7585 3.24535C12.6729 3.60254 12.326 3.81972 11.9837 3.73042L10.7059 3.39708C10.3636 3.30779 10.1555 2.94583 10.2411 2.58863Z" fill="#282828"/>
<path fill-rule="evenodd" clip-rule="evenodd" d="M3.14644 4.11766C5.96773 3.40544 9.36534 3.40544 12.1866 4.11766C12.8435 4.28349 13.35 4.77852 13.582 5.42487C13.9552 6.46491 14.3832 8.21784 14.5284 10.5911C14.6339 12.3166 13.4042 13.2207 12.3179 13.7917C12.0252 13.9455 11.7229 13.9527 11.4469 13.8397C11.1922 13.7356 10.9905 13.5425 10.8354 13.3503C10.5273 12.9684 10.2862 12.4394 10.1134 12.0331C10.0025 11.7722 9.76071 11.6072 9.47335 11.6072H5.85972C5.57236 11.6072 5.3306 11.7722 5.21965 12.0331C5.04691 12.4394 4.80579 12.9684 4.49763 13.3503C4.34252 13.5425 4.14082 13.7356 3.88618 13.8397C3.61015 13.9527 3.30786 13.9455 3.01522 13.7917C1.94205 13.2276 0.698426 12.3293 0.804712 10.5911C0.949836 8.21784 1.37783 6.46491 1.75111 5.42487C1.98309 4.77852 2.48954 4.28349 3.14644 4.11766ZM6.20149 6.27876C6.45099 6.53911 6.45099 6.96122 6.20149 7.22157L5.69492 7.75016L6.20149 8.27876C6.45099 8.53911 6.45099 8.96122 6.20149 9.22157C5.95199 9.48192 5.54747 9.48192 5.29797 9.22157L4.7914 8.69297L4.28482 9.22157C4.03532 9.48192 3.6308 9.48192 3.3813 9.22157C3.1318 8.96122 3.1318 8.53911 3.3813 8.27876L3.88787 7.75016L3.3813 7.22157C3.1318 6.96122 3.1318 6.53911 3.3813 6.27876C3.6308 6.01841 4.03532 6.01841 4.28482 6.27876L4.7914 6.80735L5.29797 6.27876C5.54747 6.01841 5.95199 6.01841 6.20149 6.27876ZM9.57557 6.75016C9.57557 6.38197 9.86162 6.0835 10.2145 6.0835H10.2202C10.5731 6.0835 10.8591 6.38197 10.8591 6.75016C10.8591 7.11835 10.5731 7.41683 10.2202 7.41683H10.2145C9.86162 7.41683 9.57557 7.11835 9.57557 6.75016ZM11.498 9.41683H11.4922C11.1394 9.41683 10.8534 9.11835 10.8534 8.75016C10.8534 8.38197 11.1394 8.0835 11.4922 8.0835H11.498C11.8508 8.0835 12.1369 8.38197 12.1369 8.75016C12.1369 9.11835 11.8508 9.41683 11.498 9.41683Z" fill="#282828"/>
</svg>
