<svg width="20" height="20" viewBox="0 0 20 20" fill="none" xmlns="http://www.w3.org/2000/svg">
<path fill-rule="evenodd" clip-rule="evenodd" d="M5.92461 1.17504C6.0074 1.23933 6.02084 1.35412 6.04773 1.58371L6.11429 2.15215L6.11825 2.17592C6.19486 2.63585 6.27195 3.09861 6.36681 3.41724C6.47078 3.76645 6.62769 4.09289 6.93017 4.34912C7.23265 4.60536 7.58044 4.70648 7.94199 4.75162C8.27757 4.79352 8.68998 4.79349 9.16415 4.79346H10.8356C11.3098 4.79349 11.7222 4.79352 12.0578 4.75162C12.4193 4.70648 12.7671 4.60536 13.0696 4.34912C13.3721 4.09289 13.529 3.76645 13.633 3.41724C13.7282 3.09734 13.8051 2.63581 13.882 2.17417L13.885 2.15606L13.956 1.58111C13.9842 1.3529 13.9983 1.2388 14.0809 1.17506C14.1636 1.11132 14.2731 1.1261 14.492 1.15567L14.538 1.16203C15.4076 1.2851 16.1212 1.54661 16.6823 2.13723C17.2391 2.72333 17.4817 3.4611 17.5966 4.36081C17.7084 5.23647 17.7084 6.35475 17.7084 7.7642V12.2394C17.7084 13.6488 17.7084 14.7671 17.5966 15.6428C17.4817 16.5425 17.2391 17.2803 16.6823 17.8664C16.1212 18.457 15.4076 18.7185 14.538 18.8416C13.7 18.9602 12.6323 18.9601 11.2987 18.9601H8.70149C7.36782 18.9601 6.30017 18.9602 5.46213 18.8416C4.59253 18.7185 3.87898 18.457 3.3179 17.8664C2.7611 17.2803 2.51848 16.5425 2.40357 15.6428C2.29173 14.7671 2.29174 13.6488 2.29175 12.2394V12.2394V7.76418V7.76417C2.29174 6.35474 2.29173 5.23647 2.40357 4.36081C2.51848 3.4611 2.7611 2.72333 3.3179 2.13723C3.87898 1.54661 4.59253 1.2851 5.46213 1.16203L5.5116 1.15521C5.73175 1.12558 5.84182 1.11076 5.92461 1.17504ZM6.66675 8.54199C6.32157 8.54199 6.04175 8.82181 6.04175 9.16699C6.04175 9.51217 6.32157 9.79199 6.66675 9.79199H13.3334C13.6786 9.79199 13.9584 9.51217 13.9584 9.16699C13.9584 8.82181 13.6786 8.54199 13.3334 8.54199H6.66675ZM6.66675 12.7087C6.32157 12.7087 6.04175 12.9885 6.04175 13.3337C6.04175 13.6788 6.32157 13.9587 6.66675 13.9587H10.0001C10.3453 13.9587 10.6251 13.6788 10.6251 13.3337C10.6251 12.9885 10.3453 12.7087 10.0001 12.7087H6.66675Z" fill="#F84754"/>
<path d="M12.6941 1.6014C12.726 1.34336 12.7419 1.21433 12.6678 1.13003C12.5937 1.04573 12.4645 1.04501 12.2061 1.04358C11.9185 1.04198 11.6162 1.04199 11.299 1.04199H8.7018C8.38536 1.04199 8.08387 1.04198 7.79689 1.04357C7.53995 1.04498 7.41148 1.04569 7.33741 1.12941C7.26333 1.21312 7.27837 1.34152 7.30844 1.59832L7.35433 1.99021C7.4387 2.49631 7.49426 2.82102 7.56513 3.0591C7.63173 3.28279 7.69123 3.35389 7.73843 3.39388C7.78563 3.43387 7.86555 3.48086 8.09715 3.50978C8.34606 3.54086 8.67954 3.54199 9.20132 3.54199H10.799C11.3208 3.54199 11.6543 3.54086 11.9032 3.50978C12.1348 3.48086 12.2147 3.43387 12.2619 3.39388C12.3091 3.35389 12.3686 3.28279 12.4352 3.0591C12.5062 2.82072 12.5618 2.49548 12.6463 1.98827L12.6941 1.6014Z" fill="#F84754"/>
</svg>
