<svg width="26" height="26" viewBox="0 0 26 26" fill="none" xmlns="http://www.w3.org/2000/svg">
<circle cx="13" cy="13" r="12" fill="#EBEBEB"/>
<circle cx="13" cy="13" r="12.5" stroke="#BEBEBE" stroke-opacity="0.4"/>
<circle cx="13" cy="13.0004" r="9.6" fill="#EBEBEB"/>
<circle cx="13" cy="13.0004" r="9.1" stroke="#BEBEBE" stroke-opacity="0.4"/>
<path fill-rule="evenodd" clip-rule="evenodd" d="M13.0001 7.40039C12.5864 7.40039 12.3325 7.67127 12.1675 7.90463C11.9981 8.14409 11.8234 8.48902 11.616 8.8984C11.5354 9.05735 11.4573 9.2181 11.379 9.37911C11.1969 9.75379 11.0141 10.1299 10.7989 10.4878C10.6347 10.7609 10.3447 10.9166 9.99122 10.8042C9.85792 10.7618 9.69018 10.6953 9.43684 10.5945C9.37589 10.5702 9.31226 10.5431 9.24659 10.5151C8.89827 10.3668 8.49258 10.1941 8.12525 10.2883C7.76409 10.3808 7.50706 10.6497 7.42267 10.9641C7.37139 11.1552 7.4161 11.3513 7.4685 11.52C7.52267 11.6945 7.61084 11.913 7.71716 12.1767L7.71716 12.1767L7.71717 12.1767L8.68918 14.5869L8.68919 14.5869C8.88737 15.0783 9.04734 15.475 9.21306 15.7828C9.55194 16.4124 10.0863 16.7968 10.8691 16.8818C11.2257 16.9205 11.6633 16.9205 12.1951 16.9204H13.805C14.3369 16.9205 14.7744 16.9205 15.131 16.8818C15.9138 16.7968 16.4482 16.4124 16.787 15.7828C16.9528 15.4749 17.1128 15.0783 17.3109 14.5868L18.283 12.1767L18.283 12.1766C18.3893 11.913 18.4774 11.6944 18.5316 11.52C18.584 11.3513 18.6287 11.1552 18.5774 10.9641C18.4931 10.6497 18.236 10.3808 17.8749 10.2883C17.5112 10.195 17.1069 10.3662 16.762 10.5122C16.6998 10.5386 16.6394 10.5641 16.5817 10.5871C16.5464 10.6012 16.5111 10.6154 16.4758 10.6296C16.322 10.6916 16.1677 10.7537 16.0089 10.8042C15.6554 10.9166 15.3654 10.7609 15.2012 10.4878C14.986 10.1299 14.8032 9.75379 14.6211 9.3791C14.5428 9.21809 14.4647 9.05733 14.3841 8.89838L14.3841 8.89838L14.3841 8.89837C14.1767 8.48901 14.002 8.14408 13.8326 7.90463C13.6676 7.67127 13.4137 7.40039 13.0001 7.40039ZM13.1903 12.4664C13.1305 12.2821 12.8698 12.2821 12.8099 12.4664L12.6678 12.9036C12.6411 12.986 12.5643 13.0418 12.4776 13.0418H12.0179C11.8241 13.0418 11.7436 13.2897 11.9003 13.4036L12.2723 13.6739C12.3424 13.7248 12.3717 13.8151 12.3449 13.8975L12.2029 14.3347C12.143 14.519 12.3539 14.6722 12.5106 14.5583L12.8826 14.2881C12.9527 14.2372 13.0476 14.2372 13.1177 14.2881L13.4896 14.5583C13.6464 14.6722 13.8573 14.519 13.7974 14.3347L13.6553 13.8975C13.6286 13.8151 13.6579 13.7248 13.728 13.6739L14.0999 13.4036C14.2567 13.2897 14.1761 13.0418 13.9824 13.0418H13.5226C13.436 13.0418 13.3592 12.986 13.3324 12.9036L13.1903 12.4664Z" fill="#BEBEBE"/>
<path fill-rule="evenodd" clip-rule="evenodd" d="M9.63989 18.0414C9.63989 17.7322 9.89061 17.4814 10.1999 17.4814H15.7999C16.1092 17.4814 16.3599 17.7322 16.3599 18.0414C16.3599 18.3507 16.1092 18.6015 15.7999 18.6015H10.1999C9.89061 18.6015 9.63989 18.3507 9.63989 18.0414Z" fill="#BEBEBE"/>
</svg>
