<svg width="16" height="16" viewBox="0 0 16 16" fill="none" xmlns="http://www.w3.org/2000/svg">
<g clip-path="url(#clip0_39_1742)">
<path fill-rule="evenodd" clip-rule="evenodd" d="M7.97775 0.833496H8.01965C8.42236 0.83349 8.75574 0.833485 9.03102 0.85693C9.31951 0.881501 9.5802 0.933954 9.83164 1.05844C10.2796 1.28022 10.5628 1.63267 10.7616 1.98616C10.9157 2.26019 11.0354 2.56804 11.1368 2.82895L11.1368 2.82905L11.137 2.82968C11.1609 2.89098 11.1837 2.94969 11.2057 3.00476L11.2539 3.12522C11.3261 3.30574 11.3622 3.396 11.4364 3.44739C11.5106 3.49879 11.6099 3.5009 11.8086 3.50514C12.3567 3.51681 12.7824 3.55837 13.1596 3.71669C13.7915 3.9819 14.3044 4.47104 14.6035 5.09048C14.7369 5.36684 14.8049 5.66374 14.8498 6.00852C14.8937 6.34467 14.9193 6.75946 14.9513 7.27842L15.0579 9.00837C15.1379 10.304 15.201 11.3278 15.1421 12.1308C15.0815 12.9554 14.8881 13.628 14.3895 14.1659C13.8899 14.7049 13.2366 14.9438 12.425 15.0569C11.6365 15.1668 10.6231 15.1668 9.3434 15.1668H9.34338H9.34336H6.65385H6.65384H6.65382C5.37409 15.1668 4.3607 15.1668 3.57222 15.0569C2.76058 14.9438 2.10735 14.7049 1.60772 14.1659C1.10907 13.628 0.915707 12.9554 0.85516 12.1308C0.796201 11.3278 0.859353 10.304 0.939266 9.00838L1.04597 7.2783C1.07796 6.7594 1.10354 6.34464 1.14738 6.00852C1.19236 5.66374 1.26031 5.36684 1.39375 5.09048C1.69286 4.47104 2.20572 3.9819 2.83759 3.71669C3.21483 3.55835 3.64056 3.51681 4.18884 3.50513C4.38747 3.5009 4.48679 3.49879 4.56098 3.4474C4.63518 3.396 4.67129 3.30574 4.7435 3.12522L4.79168 3.00476C4.81379 2.94947 4.83671 2.89052 4.86063 2.82896C4.96204 2.56805 5.0817 2.26019 5.23581 1.98617C5.43462 1.63267 5.7178 1.28022 6.16576 1.05844C6.4172 0.933954 6.67789 0.881501 6.96638 0.85693C7.24166 0.833485 7.57504 0.83349 7.97775 0.833496ZM7.33333 4.00016C7.33333 3.63197 7.63048 3.3335 7.99702 3.3335C8.36094 3.3335 8.66667 3.6321 8.66667 4.00016C8.66667 4.36823 8.36094 4.66683 7.99702 4.66683C7.63048 4.66683 7.33333 4.36835 7.33333 4.00016ZM8 6.66683C6.52724 6.66683 5.33333 7.86074 5.33333 9.3335C5.33333 10.8063 6.52724 12.0002 8 12.0002C9.47276 12.0002 10.6667 10.8063 10.6667 9.3335C10.6667 7.86074 9.47276 6.66683 8 6.66683Z" fill="#767676"/>
</g>
<defs>
<clipPath id="clip0_39_1742">
<rect width="16" height="16" fill="white"/>
</clipPath>
</defs>
</svg>
