<svg width="30" height="30" viewBox="0 0 30 30" fill="none" xmlns="http://www.w3.org/2000/svg">
<path fill-rule="evenodd" clip-rule="evenodd" d="M16.9344 4.0625H16.9345C19.2332 4.06249 21.0386 4.06248 22.4618 4.22325C23.9145 4.38735 25.0925 4.72953 26.0717 5.50286C26.3649 5.73437 26.6367 5.99006 26.8838 6.26725C27.7165 7.20127 28.0884 8.33337 28.2655 9.72231V9.72233C28.2859 9.88213 28.2961 9.96203 28.2777 10.0322C28.2484 10.1444 28.1623 10.2422 28.0548 10.2854C27.9874 10.3125 27.9032 10.3125 27.7347 10.3125H2.2653C2.09683 10.3125 2.01259 10.3125 1.94527 10.2854C1.83769 10.2422 1.7516 10.1444 1.7223 10.0322C1.70398 9.96203 1.71417 9.88212 1.73455 9.72231C1.91167 8.33337 2.28352 7.20127 3.11624 6.26725C3.36336 5.99006 3.63515 5.73437 3.9283 5.50286C4.90752 4.72953 6.08554 4.38735 7.53824 4.22325C8.96148 4.06248 10.7668 4.06249 13.0656 4.0625H13.0656H16.9344ZM28.4375 15.0659C28.4375 17.2209 28.4375 18.9284 28.2655 20.2777C28.0884 21.6666 27.7165 22.7987 26.8838 23.7328C26.6367 24.0099 26.3649 24.2656 26.0717 24.4971C25.0925 25.2705 23.9145 25.6127 22.4618 25.7768C21.0386 25.9375 19.2332 25.9375 16.9345 25.9375H16.9345H16.9345H16.9345H16.9344H13.0656H13.0655H13.0655H13.0655H13.0655C10.7668 25.9375 8.96144 25.9375 7.53823 25.7768C6.08552 25.6127 4.90751 25.2705 3.92828 24.4971C3.63514 24.2656 3.36335 24.0099 3.11623 23.7328C2.28351 22.7987 1.91165 21.6666 1.73453 20.2777C1.56247 18.9284 1.56248 17.2209 1.5625 15.0659V15.0659V14.9341V14.934C1.5625 14.2143 1.56249 13.5445 1.56889 12.9214C1.57244 12.5768 1.57421 12.4045 1.6838 12.296C1.7934 12.1875 1.96701 12.1875 2.31424 12.1875H27.6858C28.033 12.1875 28.2066 12.1875 28.3162 12.296C28.4258 12.4045 28.4276 12.5768 28.4311 12.9214C28.4375 13.5446 28.4375 14.2144 28.4375 14.9341V15.0659ZM12.8125 20C12.8125 19.4822 13.2322 19.0625 13.75 19.0625H15.625C16.1428 19.0625 16.5625 19.4822 16.5625 20C16.5625 20.5178 16.1428 20.9375 15.625 20.9375H13.75C13.2322 20.9375 12.8125 20.5178 12.8125 20ZM19.375 19.0625C18.8572 19.0625 18.4375 19.4822 18.4375 20C18.4375 20.5178 18.8572 20.9375 19.375 20.9375H23.75C24.2678 20.9375 24.6875 20.5178 24.6875 20C24.6875 19.4822 24.2678 19.0625 23.75 19.0625H19.375Z" fill="#92163A"/>
</svg>
