<svg width="20" height="20" viewBox="0 0 20 20" fill="none" xmlns="http://www.w3.org/2000/svg">
<path fill-rule="evenodd" clip-rule="evenodd" d="M10.0013 1.0415C6.81281 1.0415 3.77087 2.92736 2.49761 5.90374C1.31265 8.67371 1.95414 11.0309 3.28976 13.0494C4.38481 14.7044 5.98196 16.1814 7.42285 17.5138L7.4229 17.5139L7.42311 17.5141C7.69779 17.7681 7.96679 18.0168 8.22555 18.2606L8.22693 18.2619C8.70612 18.7105 9.34263 18.9582 10.0013 18.9582C10.6599 18.9582 11.2965 18.7105 11.7757 18.2618C12.0203 18.0328 12.2739 17.7992 12.5325 17.5608L12.5325 17.5608C13.9891 16.2187 15.6087 14.7265 16.7152 13.0506C18.0492 11.03 18.6884 8.67028 17.505 5.90374C16.2317 2.92736 13.1897 1.0415 10.0013 1.0415ZM10 5.83317C8.15905 5.83317 6.66667 7.32555 6.66667 9.1665C6.66667 11.0075 8.15905 12.4998 10 12.4998C11.8409 12.4998 13.3333 11.0075 13.3333 9.1665C13.3333 7.32555 11.8409 5.83317 10 5.83317Z" fill="#F84754"/>
</svg>
