<svg width="24" height="24" viewBox="0 0 24 24" fill="none" xmlns="http://www.w3.org/2000/svg">
<path fill-rule="evenodd" clip-rule="evenodd" d="M12 1.02128C8.7568 1.02128 6.12766 3.65041 6.12766 6.89362V10.9787C6.12766 14.2219 8.7568 16.8511 12 16.8511C14.7424 16.8511 17.0457 14.9712 17.6917 12.4298C17.7677 12.1308 17.8057 11.9813 17.7137 11.863C17.6217 11.7447 17.4562 11.7447 17.1251 11.7447H14.0426C13.6195 11.7447 13.2766 11.4017 13.2766 10.9787C13.2766 10.5557 13.6195 10.2128 14.0426 10.2128H17.2596C17.5484 10.2128 17.6929 10.2128 17.7826 10.123C17.8723 10.0333 17.8723 9.88886 17.8723 9.6V8.27234C17.8723 7.98348 17.8723 7.83905 17.7826 7.74931C17.6929 7.65957 17.5484 7.65957 17.2596 7.65957H14.0426C13.6195 7.65957 13.2766 7.31664 13.2766 6.89362C13.2766 6.47059 13.6195 6.12766 14.0426 6.12766H17.1251C17.4562 6.12766 17.6217 6.12766 17.7137 6.00935C17.8057 5.89105 17.7677 5.74153 17.6917 5.44249C17.0457 2.90111 14.7424 1.02128 12 1.02128Z" fill="#F84754"/>
<path fill-rule="evenodd" clip-rule="evenodd" d="M4.05674 10.2128C4.60511 10.2128 5.04965 10.6524 5.04965 11.1948C5.04965 14.9912 8.16143 18.0687 12 18.0687C15.8386 18.0687 18.9504 14.9912 18.9504 11.1948C18.9504 10.6524 19.3949 10.2128 19.9433 10.2128C20.4916 10.2128 20.9362 10.6524 20.9362 11.1948C20.9362 15.7439 17.4609 19.4903 12.9929 19.9788V21.0147H14.9787C15.5271 21.0147 15.9716 21.4544 15.9716 21.9967C15.9716 22.5391 15.5271 22.9787 14.9787 22.9787H9.02128C8.47291 22.9787 8.02837 22.5391 8.02837 21.9967C8.02837 21.4544 8.47291 21.0147 9.02128 21.0147H11.0071V19.9788C6.53906 19.4903 3.06383 15.7439 3.06383 11.1948C3.06383 10.6524 3.50837 10.2128 4.05674 10.2128Z" fill="#F84754"/>
</svg>
