<svg width="120" height="88" viewBox="0 0 120 88" fill="none" xmlns="http://www.w3.org/2000/svg">
<g clip-path="url(#clip0_123_925)">
<path d="M73.2382 13.8474L75.5168 7.59779C76.6446 4.49631 78.7275 1.8353 81.4638 0C77.681 0.0586002 74.0125 1.30946 70.9781 3.57537C67.9437 5.84127 65.6972 9.0073 64.557 12.6249L57.5391 32.779L51.9453 16.9779C51.0437 14.1556 49.7717 11.4662 48.1629 8.98024C44.335 3.09624 39.2538 0 33.5005 0H29.2396V45.6324C30.3539 45.6295 31.4568 45.4082 32.4865 44.9812C33.5139 44.5558 34.447 43.9306 35.2322 43.1417C36.0251 42.3528 36.6526 41.4127 37.0778 40.3768C37.5 39.3435 37.7167 38.2374 37.7158 37.1206V9.93997C39.0055 10.9053 40.1095 12.0977 40.9741 13.4589C42.1928 15.3076 43.1548 17.314 43.8337 19.4229V19.5372L52.344 43.5302C52.5638 44.1241 52.9618 44.6351 53.4833 44.9926C53.9877 45.3568 54.5935 45.5527 55.215 45.5525H59.8746C60.5026 45.5524 61.1151 45.3567 61.6274 44.9924C62.1396 44.628 62.5264 44.1131 62.7342 43.5188L68.852 26.1638C68.852 26.1638 72.8281 14.8528 72.9192 14.5558C73.0038 14.3104 73.1106 14.0733 73.2382 13.8474Z" fill="white"/>
<g clip-path="url(#clip1_123_925)">
<path fill-rule="evenodd" clip-rule="evenodd" d="M87.3423 23.993V31.1452C88.5495 31.9901 89.5 33.1536 90.0884 34.5068C90.6769 35.8601 90.8803 37.3503 90.6763 38.8123C90.4722 40.2744 89.8686 41.6513 88.9323 42.7905C87.996 43.9297 86.7635 44.7868 85.3714 45.2668C84.5402 45.5579 83.6656 45.7047 82.7852 45.701C81.0214 45.706 79.3075 45.1143 77.9205 44.0215C76.9321 43.2543 76.1374 42.2648 75.6004 41.1329C75.0634 40.0011 74.7993 38.7585 74.8292 37.5054C74.8591 36.2523 75.1823 35.0238 75.7728 33.919C76.3632 32.8142 77.2042 31.8641 78.2282 31.1452V9.1402C78.2282 6.71607 79.1884 4.39122 80.8976 2.6771C82.6069 0.962983 84.9251 0 87.3423 0V7.99767H85.0638C84.9755 7.99854 84.8886 8.01957 84.8096 8.05916C84.7306 8.09875 84.6617 8.15587 84.6081 8.22618C84.5348 8.32544 84.4949 8.44546 84.4941 8.56894C84.4941 8.72044 84.5541 8.86575 84.661 8.97288C84.7678 9.08001 84.9127 9.1402 85.0638 9.1402H87.3423V11.4252H85.0638C84.9127 11.4252 84.7678 11.4854 84.661 11.5926C84.5541 11.6997 84.4941 11.845 84.4941 11.9965C84.4941 12.148 84.5541 12.2933 84.661 12.4005C84.7678 12.5076 84.9127 12.5678 85.0638 12.5678H87.3423V14.8528H85.0638C84.9127 14.8528 84.7678 14.913 84.661 15.0201C84.5541 15.1273 84.4941 15.2726 84.4941 15.4241C84.4941 15.5756 84.5541 15.7209 84.661 15.828C84.7678 15.9352 84.9127 15.9953 85.0638 15.9953H87.3423V22.8505H85.0638C84.9127 22.8505 84.7678 22.9107 84.661 23.0178C84.5541 23.1249 84.4941 23.2702 84.4941 23.4218C84.4941 23.5733 84.5541 23.7186 84.661 23.8257C84.7678 23.9328 84.9127 23.993 85.0638 23.993H87.3423ZM81.5534 6.71784C81.8724 5.95051 82.3416 5.25516 82.9333 4.67293C82.9333 4.07724 83.0494 3.4873 83.2751 2.93629C82.2498 3.61211 81.4079 4.53283 80.8253 5.61572C80.2426 6.69861 79.9374 7.90972 79.9371 9.1402V31.4309C79.7889 31.4994 79.6408 31.568 79.5041 31.6479C79.3218 31.7546 79.1396 31.8688 78.9573 31.9907L78.3649 32.482L78.2282 32.6077L77.7383 32.939C77.5812 33.0944 77.4329 33.2584 77.2939 33.4303C77.1549 33.5979 77.0256 33.7734 76.9066 33.9558C76.7813 34.1386 76.6218 34.39 76.5534 34.5271C76.5399 34.5542 76.526 34.5817 76.5119 34.6095C76.4545 34.7228 76.3941 34.842 76.3484 34.9613C76.3441 34.9954 76.3441 35.0299 76.3484 35.0641C76.3131 35.1382 76.2827 35.2145 76.2572 35.2926C76.1999 35.4097 76.1541 35.5321 76.1205 35.6582C76.0501 35.8599 75.993 36.066 75.9496 36.2752C75.9443 36.3512 75.9443 36.4276 75.9496 36.5037V36.6179C75.9441 36.6635 75.9441 36.7095 75.9496 36.755V37.1549V37.7033C75.9507 39.2865 76.4981 40.8206 77.499 42.0449C77.5066 41.5088 77.6108 40.9785 77.8066 40.4797C77.7353 40.3537 77.6706 40.224 77.6129 40.0912C77.5463 39.9583 77.4892 39.8209 77.4421 39.6799C77.3862 39.5386 77.3405 39.3935 77.3053 39.2457C77.1579 38.7451 77.0849 38.2253 77.0889 37.7033C77.083 36.4663 77.4834 35.2618 78.2282 34.2757C78.3427 34.101 78.4724 33.9366 78.6155 33.7845C78.928 33.4386 79.2842 33.1352 79.675 32.8819H79.7434C79.8801 32.7905 80.0281 32.7105 80.1762 32.6306L80.1763 32.6305C80.465 32.4793 80.7661 32.3531 81.0763 32.2535V9.1402C81.0722 8.30887 81.2344 7.48517 81.5534 6.71784ZM80.5068 38.8458C81.136 38.8458 81.6461 38.3343 81.6461 37.7033C81.6461 37.0723 81.136 36.5608 80.5068 36.5608C79.8776 36.5608 79.3676 37.0723 79.3676 37.7033C79.3676 38.3343 79.8776 38.8458 80.5068 38.8458Z" fill="white"/>
</g>
</g>
<path d="M0 61.2393H2.6946C4.04805 61.2393 5.13082 61.4239 5.94289 61.793C6.75496 62.1621 7.45629 62.7527 8.04689 63.5648C8.63749 64.3523 9.32652 65.5458 10.114 67.1453L12.2549 71.464L14.3958 67.1453C15.1833 65.5458 15.8723 64.3523 16.4629 63.5648C17.0535 62.7527 17.7548 62.1621 18.5669 61.793C19.379 61.4239 20.4617 61.2393 21.8152 61.2393H24.5098V87.0779H19.785V66.6654C19.4897 66.6654 19.2436 66.8008 19.0468 67.0715C18.8499 67.3422 18.5546 67.822 18.1609 68.511L12.2549 79.474L6.34892 68.511C5.95519 67.822 5.65989 67.3422 5.46303 67.0715C5.26616 66.8008 5.02008 66.6531 4.72478 66.6285V87.0779H0V61.2393Z" fill="white"/>
<path d="M32.7038 67.4037C31.9409 67.4037 31.2888 67.133 30.7474 66.5916C30.206 66.0502 29.9353 65.3981 29.9353 64.6352C29.9353 63.897 30.206 63.2572 30.7474 62.7158C31.2888 62.1498 31.9409 61.8668 32.7038 61.8668C33.442 61.8668 34.0818 62.1498 34.6232 62.7158C35.1892 63.2572 35.4722 63.897 35.4722 64.6352C35.4722 65.3981 35.1892 66.0502 34.6232 66.5916C34.0818 67.133 33.442 67.4037 32.7038 67.4037ZM33.6635 87.5209C32.4085 86.8811 31.5349 86.1551 31.0427 85.3431C30.5505 84.5064 30.3045 83.3498 30.3045 81.8733V69.7291H35.1031V81.7257C35.1031 82.3901 35.2261 82.9315 35.4722 83.3498C35.7429 83.7681 36.2104 84.2234 36.8749 84.7156L33.6635 87.5209Z" fill="white"/>
<path d="M48.66 63.4541C47.6264 63.4541 46.8267 63.7986 46.2607 64.4876C45.7193 65.152 45.4486 66.1117 45.4486 67.3668V69.7291H50.4687V73.4204H45.4486V87.0779H40.65V67.3668C40.65 64.9059 41.339 63.0234 42.7171 61.7192C44.1198 60.4149 46.1007 59.7628 48.66 59.7628H50.4687V63.4541H48.66Z" fill="white"/>
<path d="M60.1357 83.9035C61.0462 83.9035 61.7844 83.7928 62.3504 83.5713C62.9164 83.3252 63.5316 82.9069 64.196 82.3163L67.0383 84.9001C65.611 86.6473 63.3101 87.5209 60.1357 87.5209C57.3057 87.5209 55.2633 86.9918 54.0082 85.9337C52.7532 84.8509 52.1257 83.1037 52.1257 80.6921V75.4137C52.1257 73.5188 52.8024 72.03 54.1559 70.9473C55.5339 69.8399 57.4042 69.2862 59.7666 69.2862C62.2028 69.2862 64.1099 69.8768 65.488 71.058C66.866 72.2146 67.5551 73.9125 67.5551 76.1519C67.5551 77.2347 67.4566 78.0713 67.2598 78.6619C67.0875 79.2525 66.7307 79.6955 66.1893 79.9908C65.6479 80.2615 64.8605 80.3968 63.8269 80.3968H56.8874V80.729C56.8874 82.8453 57.9702 83.9035 60.1357 83.9035ZM59.7666 72.9036C58.8561 72.9036 58.1424 73.1743 57.6256 73.7157C57.1335 74.2325 56.8874 74.9215 56.8874 75.7828V77.1116H61.0954C61.7352 77.1116 62.1782 77.0132 62.4242 76.8163C62.6703 76.6195 62.7934 76.2749 62.7934 75.7828C62.7934 74.8477 62.535 74.134 62.0182 73.6419C61.5014 73.1497 60.7509 72.9036 59.7666 72.9036Z" fill="white"/>
<path d="M77.6837 87.5209C76.4041 87.5209 75.3829 87.2256 74.62 86.635C73.8572 86.0198 73.2666 85.0232 72.8482 83.6451L68.4926 69.7291H73.1435L77.2039 83.2022C77.2777 83.4236 77.3392 83.5836 77.3885 83.682C77.4623 83.7804 77.5607 83.8297 77.6837 83.8297C77.856 83.8297 78.0037 83.6205 78.1267 83.2022L82.1132 69.7291H86.7642L82.4824 83.6451C82.064 85.0232 81.4857 86.0198 80.7475 86.635C80.0092 87.2256 78.988 87.5209 77.6837 87.5209Z" fill="white"/>
<path d="M96.255 83.9035C97.1655 83.9035 97.9037 83.7928 98.4697 83.5713C99.0357 83.3252 99.6509 82.9069 100.315 82.3163L103.158 84.9001C101.73 86.6473 99.4294 87.5209 96.255 87.5209C93.425 87.5209 91.3826 86.9918 90.1275 85.9337C88.8725 84.8509 88.245 83.1037 88.245 80.6921V75.4137C88.245 73.5188 88.9217 72.03 90.2752 70.9473C91.6532 69.8399 93.5235 69.2862 95.8859 69.2862C98.3221 69.2862 100.229 69.8768 101.607 71.058C102.985 72.2146 103.674 73.9125 103.674 76.1519C103.674 77.2347 103.576 78.0713 103.379 78.6619C103.207 79.2525 102.85 79.6955 102.309 79.9908C101.767 80.2615 100.98 80.3968 99.9462 80.3968H93.0067V80.729C93.0067 82.8453 94.0895 83.9035 96.255 83.9035ZM95.8859 72.9036C94.9754 72.9036 94.2617 73.1743 93.7449 73.7157C93.2528 74.2325 93.0067 74.9215 93.0067 75.7828V77.1116H97.2147C97.8545 77.1116 98.2975 77.0132 98.5435 76.8163C98.7896 76.6195 98.9127 76.2749 98.9127 75.7828C98.9127 74.8477 98.6543 74.134 98.1375 73.6419C97.6207 73.1497 96.8702 72.9036 95.8859 72.9036Z" fill="white"/>
<path d="M116.752 69.2862C118.031 69.2862 119.114 69.6307 120 70.3197L118.819 74.3063C118.302 73.9618 117.81 73.7157 117.342 73.568C116.875 73.4204 116.296 73.3466 115.607 73.3466C113.983 73.3466 112.814 74.4293 112.101 76.5948V87.0779H107.302V75.0814C107.302 74.417 107.167 73.8756 106.896 73.4573C106.65 73.039 106.195 72.5837 105.53 72.0915L108.742 69.2862C109.578 69.7291 110.243 70.1967 110.735 70.6889C111.227 71.181 111.584 71.7716 111.805 72.4607C112.298 71.5009 112.95 70.7381 113.762 70.1721C114.574 69.5815 115.571 69.2862 116.752 69.2862Z" fill="white"/>
<defs>
<clipPath id="clip0_123_925">
<rect width="61.5206" height="45.701" fill="white" transform="translate(29.2396)"/>
</clipPath>
<clipPath id="clip1_123_925">
<rect width="15.9498" height="45.701" fill="white" transform="translate(74.8104)"/>
</clipPath>
</defs>
</svg>
