<svg width="14" height="14" viewBox="0 0 14 14" fill="none" xmlns="http://www.w3.org/2000/svg">
<path fill-rule="evenodd" clip-rule="evenodd" d="M7.00094 0.728996C4.76905 0.728996 2.63973 2.04907 1.74846 4.1325C0.919001 6.07145 1.36803 7.72148 2.30296 9.13441C3.06948 10.2928 4.18746 11.3267 5.19607 12.2594L5.19608 12.2594L5.19622 12.2596C5.3885 12.4374 5.57681 12.6115 5.75795 12.7821L5.75891 12.7831C6.09434 13.0971 6.53989 13.2704 7.00094 13.2704C7.46199 13.2704 7.90756 13.0971 8.24299 12.783C8.4142 12.6227 8.59166 12.4592 8.77271 12.2924L8.77279 12.2923L8.7728 12.2923C9.79239 11.3529 10.926 10.3084 11.7006 9.13519C12.6344 7.72081 13.0818 6.06905 12.2534 4.1325C11.3621 2.04907 9.23283 0.728996 7.00094 0.728996ZM6.99997 4.08325C5.71133 4.08325 4.66668 5.1279 4.66668 6.41654C4.66668 7.70518 5.71133 8.74984 6.99997 8.74984C8.28861 8.74984 9.33327 7.70518 9.33327 6.41654C9.33327 5.1279 8.28861 4.08325 6.99997 4.08325Z" fill="#ECECEC"/>
</svg>
