<svg width="20" height="20" viewBox="0 0 20 20" fill="none" xmlns="http://www.w3.org/2000/svg">
<path fill-rule="evenodd" clip-rule="evenodd" d="M8.53516 9.99984C8.53516 9.19442 9.18807 8.5415 9.99349 8.5415H10.001C10.8064 8.5415 11.4593 9.19442 11.4593 9.99984C11.4593 10.8053 10.8064 11.4582 10.001 11.4582H9.99349C9.18807 11.4582 8.53516 10.8053 8.53516 9.99984Z" fill="#767676"/>
<path fill-rule="evenodd" clip-rule="evenodd" d="M8.52832 14.9998C8.52832 14.1944 9.18124 13.5415 9.98665 13.5415H9.99414C10.7996 13.5415 11.4525 14.1944 11.4525 14.9998C11.4525 15.8053 10.7996 16.4582 9.99414 16.4582H9.98665C9.18124 16.4582 8.52832 15.8053 8.52832 14.9998Z" fill="#767676"/>
<path fill-rule="evenodd" clip-rule="evenodd" d="M8.54102 4.99984C8.54102 4.19442 9.19393 3.5415 9.99935 3.5415H10.0068C10.8122 3.5415 11.4652 4.19442 11.4652 4.99984C11.4652 5.80525 10.8122 6.45817 10.0068 6.45817H9.99935C9.19393 6.45817 8.54102 5.80525 8.54102 4.99984Z" fill="#767676"/>
</svg>
