<svg width="20" height="20" viewBox="0 0 20 20" fill="none" xmlns="http://www.w3.org/2000/svg">
<path fill-rule="evenodd" clip-rule="evenodd" d="M1.04163 10.0003C1.04163 5.05277 5.05241 1.04199 9.99996 1.04199C14.9475 1.04199 18.9583 5.05277 18.9583 10.0003C18.9583 14.9479 14.9475 18.9587 9.99996 18.9587C5.05241 18.9587 1.04163 14.9479 1.04163 10.0003ZM9.99996 7.08366C9.53972 7.08366 9.16663 7.45676 9.16663 7.91699C9.16663 8.37723 8.79353 8.75033 8.33329 8.75033C7.87305 8.75033 7.49996 8.37723 7.49996 7.91699C7.49996 6.53628 8.61925 5.41699 9.99996 5.41699C11.3807 5.41699 12.5 6.53628 12.5 7.91699C12.5 8.41344 12.3544 8.87843 12.1033 9.26859C11.9527 9.50268 11.778 9.724 11.6225 9.91729L11.5374 10.0228L11.5373 10.0229L11.5373 10.0229C11.4086 10.1822 11.2943 10.3238 11.1883 10.4694C10.9249 10.8314 10.8333 11.0645 10.8333 11.2503C10.8333 11.7106 10.4602 12.0837 9.99996 12.0837C9.53972 12.0837 9.16663 11.7106 9.16663 11.2503C9.16663 10.5157 9.52726 9.91948 9.84063 9.4888C9.97384 9.30572 10.1201 9.12486 10.2493 8.96496L10.324 8.87246C10.4782 8.68088 10.6034 8.51965 10.7018 8.36672C10.785 8.23744 10.8333 8.08413 10.8333 7.91699C10.8333 7.45676 10.4602 7.08366 9.99996 7.08366ZM9.99623 12.917C9.53805 12.917 9.16663 13.2901 9.16663 13.7503C9.16663 14.2106 9.53805 14.5837 9.99623 14.5837H10.0037C10.4619 14.5837 10.8333 14.2106 10.8333 13.7503C10.8333 13.2901 10.4619 12.917 10.0037 12.917H9.99623Z" fill="#F84754"/>
</svg>
