<svg width="18" height="18" viewBox="0 0 18 18" fill="none" xmlns="http://www.w3.org/2000/svg">
<path d="M10.4554 4.75279C11.6801 5.44856 12.6425 5.99531 13.3281 6.49616C14.0185 7.00044 14.529 7.52752 14.7119 8.22241C14.846 8.73202 14.846 9.26807 14.7119 9.77768C14.529 10.4726 14.0185 10.9997 13.3281 11.5039C12.6425 12.0048 11.6801 12.5515 10.4555 13.2473L10.4554 13.2473C9.27239 13.9194 8.27477 14.4862 7.51741 14.8083C6.75397 15.133 6.05797 15.2976 5.38152 15.1059C4.88439 14.9651 4.43206 14.6977 4.06767 14.33C3.57314 13.8311 3.37463 13.1415 3.28072 12.3116C3.18749 11.4877 3.18749 10.4093 3.1875 9.03762V9.03762V8.96248V8.96247C3.18749 7.59081 3.18749 6.51236 3.28072 5.68853C3.37463 4.85862 3.57314 4.16901 4.06767 3.67006C4.43206 3.30242 4.88439 3.03504 5.38152 2.89417C6.05797 2.70248 6.75397 2.86706 7.51741 3.19178C8.27477 3.51391 9.27237 4.08068 10.4554 4.75279Z" fill="white"/>
</svg>
