<svg width="41" height="48" viewBox="0 0 41 48" fill="none" xmlns="http://www.w3.org/2000/svg">
<path d="M18.7718 0.732982C19.1905 0.266496 19.7877 0 20.4144 0C21.0412 0 21.6384 0.266496 22.057 0.732982L22.0666 0.744015C22.1751 0.869232 22.4691 1.2084 22.6308 1.40355C22.9625 1.80368 23.4096 2.36323 23.8614 2.99151C24.3075 3.61179 24.79 4.34279 25.1699 5.08094C25.5131 5.74775 25.9318 6.71517 25.9318 7.72438C25.9318 9.98687 24.57 11.9313 22.6214 12.7827V17.6557C22.6214 18.8746 21.6333 19.8627 20.4144 19.8627C19.1956 19.8627 18.2075 18.8746 18.2075 17.6557V12.7827C16.2588 11.9313 14.897 9.98687 14.897 7.72438C14.897 6.71517 15.3157 5.74775 15.659 5.08094C16.0389 4.34279 16.5214 3.61179 16.9675 2.99151C17.4193 2.36323 17.8664 1.80368 18.198 1.40355C18.3598 1.2084 18.6538 0.869233 18.7623 0.744015L18.7718 0.732982Z" fill="white"/>
<path d="M0 23.1733C0 19.0233 3.74143 16.0007 7.90829 16.0007H32.9206C37.0874 16.0007 40.8289 19.0233 40.8289 23.1733C40.8289 27.3232 37.0874 30.3459 32.9206 30.3459C30.5148 30.3459 28.1913 29.3464 26.6675 27.6791C25.1436 29.3464 22.8201 30.3459 20.4144 30.3459C18.0087 30.3459 15.6852 29.3464 14.1614 27.6791C12.6375 29.3464 10.314 30.3459 7.90829 30.3459C3.74143 30.3459 0 27.3232 0 23.1733Z" fill="white"/>
<path d="M5.91063 33.4802C5.27123 33.3688 4.95153 33.313 4.77409 33.3864C4.59236 33.4615 4.47878 33.5781 4.40855 33.7618C4.33997 33.9411 4.39851 34.231 4.51559 34.8109C5.07695 37.5911 5.52667 39.8184 6.09082 41.5529C6.6734 43.3441 7.43463 44.8014 8.737 45.9187C10.0493 47.0446 11.5805 47.5421 13.3898 47.776C15.1222 48.0001 17.2827 48.0001 19.9493 48H20.8844C23.551 48.0001 25.7115 48.0001 27.4439 47.776C29.2531 47.5421 30.7844 47.0446 32.0967 45.9187C33.3991 44.8014 34.1603 43.3441 34.7429 41.5529C35.307 39.8184 35.7567 37.5911 36.3181 34.8109C36.4352 34.2309 36.4937 33.941 36.4252 33.7616C36.3549 33.578 36.2414 33.4614 36.0597 33.3863C35.8822 33.3129 35.5625 33.3687 34.923 33.4802C34.2617 33.5955 33.5916 33.6547 32.9228 33.6547C30.9864 33.6547 29.0681 33.1841 27.3713 32.3063C27.011 32.1199 26.8309 32.0267 26.6697 32.0267C26.5086 32.0267 26.3285 32.1199 25.9681 32.3063C24.2714 33.1841 22.353 33.6547 20.4167 33.6547C18.4803 33.6547 16.5619 33.1841 14.8652 32.3063C14.5049 32.1199 14.3247 32.0267 14.1636 32.0267C14.0025 32.0267 13.8223 32.1199 13.462 32.3063C11.7653 33.1841 9.8469 33.6547 7.91053 33.6547C7.24182 33.6547 6.57187 33.5955 5.91063 33.4802Z" fill="white"/>
</svg>
