<svg width="16" height="16" viewBox="0 0 16 16" fill="none" xmlns="http://www.w3.org/2000/svg">
<path d="M11.5714 11.7143H10.1429V16H8.71429V11.7143H7.2L6.1 13.0929L7.79286 14.7786L6.77857 15.7929L5.09286 14.1C4.84286 13.8571 4.7 13.5214 4.67857 13.1714C4.65714 12.8214 4.76429 12.4714 4.98571 12.2L5.37143 11.7143H4.42857L5.85714 8.85714V6.71429C5.41429 7.05 5.05714 7.47857 4.80714 7.97143C4.55714 8.47143 4.42857 9.01429 4.42857 9.57143H3C3.00019 8.2454 3.52703 6.97374 4.46468 6.0361C5.40232 5.09846 6.67398 4.57162 8 4.57143C8.95 4.57143 9.85714 4.19286 10.5286 3.52857C11.1929 2.85714 11.5714 1.95 11.5714 1H13C13 1.94286 12.7286 2.87143 12.2214 3.66429C11.7171 4.46303 10.9963 5.10211 10.1429 5.50714V8.85714L11.5714 11.7143ZM9.42857 2.42857C9.42857 2.71429 9.34286 2.98571 9.18571 3.22143C9.02857 3.45714 8.80714 3.64286 8.55 3.75C8.28842 3.85724 8.00095 3.88461 7.72383 3.82868C7.44671 3.77275 7.19236 3.63601 6.99286 3.43571C6.79286 3.23571 6.65714 2.98571 6.6 2.70714C6.54286 2.42857 6.57143 2.14286 6.67857 1.88571C6.78571 1.62143 6.97143 1.4 7.20714 1.24286C7.44286 1.08571 7.71429 1 8 1C8.37857 1 8.74286 1.15 9.00714 1.42143C9.27857 1.68571 9.42857 2.05 9.42857 2.42857Z" fill="#767676"/>
</svg>
