<svg width="24" height="24" viewBox="0 0 24 24" fill="none" xmlns="http://www.w3.org/2000/svg">
<path fill-rule="evenodd" clip-rule="evenodd" d="M7.15463 3.12169C7.24991 3.21064 7.24991 3.35821 7.24991 3.65335V7C7.24991 7.41421 7.5857 7.75 7.99991 7.75C8.41412 7.75 8.74991 7.41421 8.74991 7V3.5988C8.74991 3.31722 8.74991 3.17643 8.83765 3.08859C8.92539 3.00074 9.06581 3.00057 9.34665 3.00023C9.53952 3 9.73765 3 9.94121 3H9.94704H9.94705H14.0536H14.0536H14.0536C15.6603 2.99999 16.9291 2.99998 17.9393 3.11271C18.975 3.22828 19.8258 3.46963 20.5577 4.01216C21.0609 4.38512 21.4964 4.8468 21.8458 5.37508C22.4911 6.35064 22.6814 7.53333 22.7492 9.09643C22.7497 9.10727 22.7499 9.11811 22.7499 9.12895V15.3711C22.7499 15.3819 22.7497 15.3927 22.7492 15.4036C22.6814 16.9667 22.4911 18.1494 21.8458 19.1249C21.4964 19.6532 21.0609 20.1149 20.5577 20.4878C19.8258 21.0304 18.975 21.2717 17.9393 21.3873C16.9291 21.5 15.6603 21.5 14.0536 21.5H14.0535H9.94709H9.94701H9.94207C9.73821 21.5 9.53979 21.5 9.34665 21.4998H9.34664C9.06581 21.4994 8.92539 21.4993 8.83765 21.4114C8.74991 21.3236 8.74991 21.1828 8.74991 20.9012V17C8.74991 16.5858 8.41412 16.25 7.99991 16.25C7.5857 16.25 7.24991 16.5858 7.24991 17V20.8467C7.24991 21.1418 7.24991 21.2894 7.15463 21.3783C7.05934 21.4673 6.91531 21.4573 6.62723 21.4375C6.43006 21.4239 6.24156 21.4074 6.06129 21.3873C5.02559 21.2717 4.17483 21.0304 3.44292 20.4878C2.93977 20.1149 2.50427 19.6532 2.15484 19.1249C1.50964 18.1495 1.31929 16.9669 1.25145 15.4041C1.21903 14.6575 1.84802 14.1562 2.46522 14.1562C3.39711 14.1562 4.2244 13.3436 4.2244 12.25C4.2244 11.1564 3.39711 10.3438 2.46522 10.3438C1.84802 10.3438 1.21903 9.84249 1.25145 9.0959C1.31929 7.53307 1.50964 6.35053 2.15484 5.37508C2.50427 4.8468 2.93977 4.38512 3.44292 4.01216C4.17483 3.46963 5.02559 3.22828 6.06129 3.11271C6.24156 3.0926 6.43005 3.07607 6.62723 3.0625C6.91531 3.04266 7.05934 3.03274 7.15463 3.12169ZM13.3693 11.3431L11.7086 12.4551C11.2004 12.7953 11.0002 13.1584 11 13.8415C10.9999 14.2135 11.1495 14.3132 11.4513 14.2373L14.3636 13.5044L14.4943 14.7632V14.7632C14.5417 15.2196 14.5655 15.4479 14.4969 15.6569C14.3775 16.0209 14.0456 16.3359 13.7463 16.6199C13.643 16.7179 13.5436 16.8122 13.4582 16.9036C13.2742 17.1004 13.0733 17.6664 13.2832 17.9237C13.3961 18.0623 13.5705 17.982 13.7094 17.918C13.7298 17.9087 13.7494 17.8996 13.768 17.8917L15.1623 17.2951L15.1623 17.2951C15.329 17.2238 15.4124 17.1881 15.4999 17.1881C15.5875 17.1881 15.6708 17.2238 15.8376 17.2951L17.2319 17.8917C17.2505 17.8996 17.2701 17.9086 17.2905 17.918C17.4293 17.982 17.6038 18.0623 17.7167 17.9237C17.9265 17.6664 17.7257 17.1004 17.5417 16.9036C17.4563 16.8122 17.3569 16.7179 17.2536 16.6199C16.9543 16.3359 16.6224 16.0209 16.503 15.6569C16.4344 15.4479 16.4581 15.2196 16.5055 14.7632L16.6363 13.5044L19.5488 14.2373C19.8504 14.3132 20 14.2136 20 13.8417C20 13.1585 19.7998 12.7953 19.2915 12.455L17.6305 11.3431C17.3519 11.1568 17.2125 11.0637 17.1163 10.9359C16.8465 10.5775 16.9056 10.1082 16.9637 9.64724C16.9952 9.39712 17.0264 9.14945 17.0045 8.92327C16.9403 8.25769 16.3633 7.34737 15.7816 7.06515C15.6026 6.97828 15.3973 6.97828 15.2183 7.06515C14.6366 7.34737 14.0596 8.25769 13.9953 8.92327C13.9735 9.14945 14.0047 9.39712 14.0362 9.64724C14.0943 10.1082 14.1534 10.5775 13.8836 10.9359C13.7874 11.0637 13.648 11.1568 13.3693 11.3431Z" fill="#92163A"/>
</svg>
