<svg width="19" height="18" viewBox="0 0 19 18" fill="none" xmlns="http://www.w3.org/2000/svg">
<path fill-rule="evenodd" clip-rule="evenodd" d="M11.3312 2.04178C9.85618 2.00472 8.39557 2.00472 6.92055 2.04178L6.87662 2.04288C5.725 2.0718 4.79834 2.09506 4.05569 2.2244C3.27816 2.35981 2.64624 2.61952 2.11238 3.15541C1.58076 3.68905 1.32241 4.31189 1.18958 5.07681C1.0631 5.80515 1.04384 6.7092 1.01997 7.8291L1.01903 7.87347C1.00298 8.62595 1.00298 9.37405 1.01903 10.1265L1.01997 10.1709C1.04384 11.2908 1.0631 12.1949 1.18958 12.9232C1.32242 13.6881 1.58077 14.311 2.11238 14.8446C2.64624 15.3805 3.27817 15.6402 4.05569 15.7756C4.79833 15.9049 5.72498 15.9282 6.87658 15.9571L6.92055 15.9582C8.39557 15.9953 9.85618 15.9953 11.3312 15.9582L11.3752 15.9571C12.5268 15.9282 13.4534 15.9049 14.1961 15.7756C14.9736 15.6402 15.6055 15.3805 16.1394 14.8446C16.671 14.311 16.9293 13.6881 17.0622 12.9232C17.1886 12.1949 17.2079 11.2908 17.2318 10.1709L17.2327 10.1265C17.2488 9.37405 17.2488 8.62596 17.2327 7.87348L17.2318 7.82912C17.2079 6.70921 17.1886 5.80516 17.0622 5.07682C16.9293 4.3119 16.671 3.68906 16.1394 3.15542C15.6055 2.61953 14.9736 2.35982 14.1961 2.22441C13.4534 2.09507 12.5267 2.0718 11.3751 2.04289L11.3312 2.04178ZM5.63802 5.86914C5.36873 5.70993 5.02136 5.79917 4.86215 6.06845C4.70294 6.33774 4.79217 6.68511 5.06146 6.84432L7.2834 8.15802C7.94111 8.54688 8.50864 8.81128 9.12596 8.81128C9.74329 8.81128 10.3108 8.54688 10.9685 8.15802L13.1905 6.84432C13.4598 6.68511 13.549 6.33774 13.3898 6.06845C13.2306 5.79917 12.8832 5.70993 12.6139 5.86914L10.392 7.18284C9.75427 7.55987 9.41522 7.67841 9.12596 7.67841C8.83671 7.67841 8.49765 7.55987 7.85996 7.18284L5.63802 5.86914Z" fill="white"/>
</svg>
