<svg width="44" height="44" viewBox="0 0 44 44" fill="none" xmlns="http://www.w3.org/2000/svg">
<path d="M30.9678 7.49481C33.4409 6.41142 35.724 6.96207 37.7231 7.5204C38.5611 7.753 39.4989 8.01344 40.0763 8.43034C40.9784 9.08176 41.5689 10.0864 41.6907 11.1938C41.7829 12.0315 41.5172 12.873 41.3115 13.6749C40.8012 15.6654 40.1394 17.9035 37.9445 19.4806C37.1198 20.0732 35.8487 20.7254 34.8324 21.2138C33.7878 21.7157 32.9 22.0974 32.7821 22.1478L19.5696 27.8228C18.0129 28.4902 17.6682 28.6742 17.4386 28.9426C16.37 30.192 16.3881 32.2774 15.9985 33.7971C15.8026 34.5611 15.2572 35.3996 14.6312 36.0089C14.0476 36.577 12.984 37.3347 11.7126 37.0707C10.4035 36.7988 9.97937 35.5931 9.83405 34.4253L8.93859 28.8081C8.8832 28.4617 8.8555 28.2884 8.76918 28.1404C8.68287 27.9925 8.54572 27.8831 8.27141 27.6643L8.27139 27.6643L3.77871 24.0811C2.83283 23.3775 1.97982 22.41 2.40306 21.1334C2.81391 19.8941 4.02358 19.3656 4.80281 19.154C5.648 18.9244 6.64869 18.8792 7.40641 19.0908C8.94562 19.5207 10.76 20.5797 12.4059 20.2886C12.7616 20.2256 13.0969 20.0213 14.4588 19.0262L26.0457 10.5728C26.1493 10.4971 26.9283 9.92908 27.8912 9.28739C28.8283 8.66291 30.036 7.90298 30.9678 7.49481Z" fill="#92163A"/>
<path d="M24.2142 28.324C23.4933 28.6336 23.1328 28.7885 22.9855 29.1079C22.8381 29.4273 22.9543 29.802 23.1866 30.5514L25.4757 37.9346C25.6722 38.5683 26.0683 39.3857 26.9511 39.7305C27.8322 40.0746 28.6667 39.7396 29.2068 39.43C30.1443 38.8925 30.9237 38.2436 31.455 37.3479C31.9855 36.4532 32.189 35.4464 32.2142 34.3338L32.4043 25.9358C32.416 25.4221 32.4218 25.1653 32.2559 25.0532C32.0899 24.9412 31.8539 25.0426 31.3818 25.2454L24.2142 28.324Z" fill="#92163A"/>
<path d="M15.4133 5.01867C14.3902 4.45722 13.3764 4.11559 12.2973 4.12497C11.2161 4.13437 10.2253 4.49474 9.2472 5.06051C8.68556 5.38539 7.96204 5.95516 7.81902 6.91027C7.67627 7.86364 8.19707 8.633 8.66702 9.13991L13.8482 14.6497C14.3761 15.2111 14.64 15.4918 14.9852 15.5239C15.3304 15.5561 15.6417 15.329 16.2643 14.8748L22.6768 10.1965C23.0961 9.89067 23.3057 9.73774 23.2927 9.53673C23.2798 9.33571 23.0524 9.21088 22.5974 8.96121L15.4133 5.01867Z" fill="#92163A"/>
</svg>
