<svg width="24" height="24" viewBox="0 0 24 24" fill="none" xmlns="http://www.w3.org/2000/svg">
<path d="M18.1271 1.57208C18.9164 1.01077 20.1899 0.702695 21.5679 1.52449C22.5957 2.13739 23.1284 3.38761 22.9405 4.74978C22.7512 6.12225 21.85 7.59527 20.0698 8.87631C19.5041 9.28451 18.925 9.70233 18.1271 9.70233C17.3292 9.70233 16.7501 9.28451 16.1844 8.87631C14.4042 7.59527 13.5031 6.12225 13.3137 4.74978C13.1258 3.38761 13.6586 2.13739 14.6863 1.52449C16.0643 0.702695 17.3379 1.01077 18.1271 1.57208Z" fill="white"/>
<path fill-rule="evenodd" clip-rule="evenodd" d="M11.9999 1.02127C5.96954 1.02127 1.02127 5.70723 1.02127 11.5574C1.02127 14.3635 2.1648 16.9087 4.01819 18.7907C4.29164 19.0684 4.38059 19.353 4.34129 19.5626C4.19601 20.3246 3.86751 21.0324 3.38976 21.6201C3.21928 21.8298 3.17192 22.1138 3.26513 22.3674C3.35834 22.6211 3.57832 22.8069 3.84401 22.8563C5.48936 23.1623 7.19525 22.8866 8.65742 22.109C8.89594 21.9821 9.05172 21.8995 9.16868 21.844C9.20091 21.8264 9.28673 21.7946 9.37213 21.8077C9.48664 21.8234 9.64055 21.8521 9.88279 21.8976C10.5807 22.0286 11.2892 22.0944 11.9999 22.0935C18.0302 22.0935 22.9785 17.4076 22.9785 11.5574C22.9785 10.9454 22.9244 10.3462 22.8205 9.76369C22.74 9.3126 22.6998 9.08706 22.5314 9.02769C22.363 8.96833 22.1738 9.13315 21.7953 9.46278C21.5361 9.68848 21.2594 9.90752 20.9655 10.1191C20.4341 10.5046 19.4287 11.234 18.1274 11.234C17.0394 11.234 15.7813 10.4902 15.2883 10.1184C13.2653 8.66225 12.0575 6.85139 11.7964 4.95891C11.643 3.84636 11.8373 2.71495 12.3722 1.77517C12.5083 1.53596 12.5764 1.41635 12.5803 1.34414C12.5873 1.21445 12.5275 1.11167 12.4113 1.0536C12.3466 1.02127 12.2311 1.02127 11.9999 1.02127ZM7.91482 10.9787C7.35079 10.9787 6.89355 11.436 6.89355 12C6.89355 12.564 7.35079 13.0213 7.91482 13.0213H7.92398C8.48801 13.0213 8.94525 12.564 8.94525 12C8.94525 11.436 8.48801 10.9787 7.92398 10.9787H7.91482ZM11.9953 10.9787C11.4313 10.9787 10.974 11.436 10.974 12C10.974 12.564 11.4313 13.0213 11.9953 13.0213H12.0045C12.5685 13.0213 13.0257 12.564 13.0257 12C13.0257 11.436 12.5685 10.9787 12.0045 10.9787H11.9953Z" fill="white"/>
</svg>
