<svg width="18" height="18" viewBox="0 0 18 18" fill="none" xmlns="http://www.w3.org/2000/svg">
<path fill-rule="evenodd" clip-rule="evenodd" d="M9.00115 0.9375C6.13153 0.9375 3.39379 2.63477 2.24785 5.31351C1.18138 7.80648 1.75872 9.92799 2.96079 11.7446C3.94633 13.2341 5.38376 14.5634 6.68057 15.7626C6.92786 15.9913 7.17004 16.2152 7.40299 16.4347L7.40423 16.4358C7.8355 16.8396 8.40837 17.0625 9.00115 17.0625C9.59394 17.0625 10.1668 16.8396 10.5981 16.4358C10.8183 16.2296 11.0465 16.0194 11.2793 15.8049C12.5902 14.597 14.0478 13.254 15.0437 11.7456C16.2443 9.92713 16.8196 7.8034 15.7545 5.31351C14.6085 2.63477 11.8708 0.9375 9.00115 0.9375ZM9 5.25C7.34315 5.25 6 6.59314 6 8.25C6 9.90685 7.34315 11.25 9 11.25C10.6569 11.25 12 9.90685 12 8.25C12 6.59314 10.6569 5.25 9 5.25Z" fill="#F84754"/>
</svg>
