<svg width="16" height="16" viewBox="0 0 16 16" fill="none" xmlns="http://www.w3.org/2000/svg">
<path d="M8.72852 1.25168C8.97895 1.0909 9.25943 0.974416 9.59493 1.00485C9.935 1.0357 10.1866 1.20421 10.3956 1.41471C10.5827 1.60317 10.773 1.86496 10.9834 2.15432L12.4089 4.11419C12.6765 4.48197 12.9141 4.80858 13.0512 5.08262C13.1955 5.37112 13.3135 5.77466 13.044 6.15576C12.8061 6.49209 12.4143 6.58574 12.0816 6.62568C11.7396 6.66673 11.2866 6.66671 10.7442 6.6667L7.0889 6.6667C6.38973 6.66671 5.81981 6.66672 5.40259 6.61851C5.02163 6.57449 4.53325 6.47147 4.30447 6.04325C4.18337 5.81657 4.18057 5.57677 4.25494 5.35839C4.32137 5.16331 4.44654 4.99106 4.57509 4.84332C4.82495 4.55615 5.22197 4.21502 5.69348 3.80989L7.9584 1.86365C8.24528 1.61709 8.49901 1.39902 8.72852 1.25168Z" fill="#767676"/>
<path fill-rule="evenodd" clip-rule="evenodd" d="M9.37174 1.5C9.73993 1.5 10.0384 1.79848 10.0384 2.16667L10.0384 8.83333C10.0384 9.20152 9.73994 9.5 9.37175 9.5C9.00356 9.5 8.70508 9.20152 8.70508 8.83333L8.70508 2.16667C8.70508 1.79848 9.00355 1.5 9.37174 1.5Z" fill="#767676"/>
<path fill-rule="evenodd" clip-rule="evenodd" d="M6.2226 13.4375C6.2605 13.4587 6.29808 13.4807 6.3353 13.5035L6.43223 13.5628C6.73899 13.7147 7.12449 13.7 7.41595 13.5185L7.4204 13.5158L7.42041 13.5158C8.51788 12.8445 9.9175 12.8445 11.015 13.5158L11.0194 13.5185L11.0194 13.5185C11.3248 13.7086 11.742 13.7121 12.0865 13.5039C12.9212 12.9869 13.9377 12.8702 14.8565 13.1425C15.2095 13.2472 15.4109 13.6182 15.3063 13.9712C15.2016 14.3242 14.8306 14.5255 14.4776 14.4209C13.9084 14.2522 13.2862 14.3284 12.7866 14.6386L12.7812 14.6419L12.7812 14.6419C12.035 15.0954 11.0768 15.1235 10.3173 14.652C9.6478 14.2435 8.78757 14.2435 8.11806 14.652C7.38523 15.1069 6.43611 15.1158 5.69481 14.6788C5.65947 14.661 5.61971 14.6372 5.57939 14.6055C4.91679 14.2303 4.08791 14.2446 3.45326 14.6386L3.44788 14.6419L3.44786 14.6419C2.69179 15.1014 1.73262 15.1058 0.981412 14.6382C0.668845 14.4436 0.573206 14.0324 0.767796 13.7199C0.962387 13.4073 1.37352 13.3117 1.68609 13.5062C2.0001 13.7017 2.41769 13.7066 2.75317 13.5038C3.79204 12.8605 5.11611 12.8348 6.18688 13.4178L6.19091 13.4178L6.2226 13.4375Z" fill="#767676"/>
<path d="M7.08245 12.6349C7.04044 12.6335 6.99557 12.6272 6.95316 12.6168C6.93879 12.6132 6.92586 12.6095 6.91446 12.6058C6.90516 12.6028 6.90051 12.6013 6.89067 12.5969C6.88083 12.5925 6.87361 12.5883 6.85916 12.5799C5.86648 12.0014 4.68358 11.8538 3.59656 12.1463C3.48633 12.1759 3.43122 12.1907 3.38191 12.179C3.33261 12.1673 3.29465 12.1333 3.21874 12.0654C2.59835 11.5104 2.20253 10.904 1.96601 10.32L1.95209 10.2857C1.86835 10.0793 1.77607 9.85193 1.74388 9.63648C1.70245 9.35923 1.75541 9.10018 1.92523 8.84818C2.11351 8.56881 2.3717 8.43639 2.65646 8.37985C2.89079 8.33332 3.17468 8.33341 3.46183 8.3335L12.8694 8.33351C13.1563 8.33344 13.4335 8.33337 13.6618 8.37397C13.9314 8.42193 14.1887 8.53473 14.3852 8.79178C14.5693 9.0327 14.6257 9.28845 14.6081 9.55532C14.5938 9.77104 14.5281 10.0119 14.4644 10.2457L14.4551 10.2799C14.3197 10.7774 14.1049 11.3305 13.7772 11.8558C13.7303 11.9309 13.7069 11.9684 13.6692 11.9927C13.6314 12.017 13.5821 12.0234 13.4834 12.0363C12.9032 12.1121 12.3347 12.3075 11.8194 12.6256C11.7778 12.6502 11.735 12.6604 11.6982 12.6607C11.6602 12.6611 11.6366 12.651 11.6262 12.6445L11.6162 12.6384C10.2768 11.8191 8.57991 11.8041 7.22746 12.5933C7.19497 12.6122 7.17873 12.6217 7.15243 12.6286C7.12614 12.6356 7.11547 12.6354 7.09413 12.6352C7.09036 12.6351 7.08647 12.635 7.08245 12.6349Z" fill="#767676"/>
</svg>
