<svg width="20" height="20" viewBox="0 0 20 20" fill="none" xmlns="http://www.w3.org/2000/svg">
<path fill-rule="evenodd" clip-rule="evenodd" d="M10.0001 6.04163C6.43324 6.04163 3.54175 8.93312 3.54175 12.5C3.54175 16.0668 6.43324 18.9583 10.0001 18.9583C13.5669 18.9583 16.4584 16.0668 16.4584 12.5C16.4584 8.93312 13.5669 6.04163 10.0001 6.04163ZM8.33342 11.6666C7.87318 11.6666 7.50008 12.0397 7.50008 12.5C7.50008 12.9602 7.87318 13.3333 8.33342 13.3333H8.33939C8.79963 13.3333 9.17273 12.9602 9.17273 12.5C9.17273 12.0397 8.79963 11.6666 8.33939 11.6666H8.33342ZM11.6608 11.6666C11.2005 11.6666 10.8274 12.0397 10.8274 12.5C10.8274 12.9602 11.2005 13.3333 11.6608 13.3333H11.6667C12.127 13.3333 12.5001 12.9602 12.5001 12.5C12.5001 12.0397 12.127 11.6666 11.6667 11.6666H11.6608Z" fill="#F84754"/>
<path fill-rule="evenodd" clip-rule="evenodd" d="M5.41675 5.62496C5.41675 3.09365 7.46878 1.04163 10.0001 1.04163C12.5314 1.04163 14.5834 3.09365 14.5834 5.62496V8.12496C14.5834 8.5852 14.2103 8.95829 13.7501 8.95829C13.2898 8.95829 12.9167 8.5852 12.9167 8.12496V5.62496C12.9167 4.01413 11.6109 2.70829 10.0001 2.70829C8.38925 2.70829 7.08341 4.01413 7.08341 5.62496V8.12496C7.08341 8.5852 6.71032 8.95829 6.25008 8.95829C5.78984 8.95829 5.41675 8.5852 5.41675 8.12496V5.62496Z" fill="#F84754"/>
</svg>
