<svg width="20" height="20" viewBox="0 0 20 20" fill="none" xmlns="http://www.w3.org/2000/svg">
<path fill-rule="evenodd" clip-rule="evenodd" d="M10.871 1.875C12.4014 1.87499 13.6011 1.87499 14.5529 1.97811C15.5242 2.08334 16.3112 2.30194 16.9831 2.79013C17.3899 3.08568 17.7476 3.44341 18.0432 3.8502C18.5314 4.52213 18.75 5.30912 18.8552 6.2804C18.9583 7.23216 18.9583 8.43181 18.9583 9.96222V9.96227V10.0377V10.0378C18.9583 11.5682 18.9583 12.7678 18.8552 13.7196C18.75 14.6909 18.5314 15.4779 18.0432 16.1498C17.7476 16.5566 17.3899 16.9143 16.9831 17.2099C16.3112 17.6981 15.5242 17.9167 14.5529 18.0219C13.6011 18.125 12.4015 18.125 10.8711 18.125H10.871H9.1289H9.12884C7.59843 18.125 6.39879 18.125 5.44702 18.0219C4.47574 17.9167 3.68876 17.6981 3.01682 17.2099C2.61003 16.9143 2.2523 16.5566 1.95675 16.1498C1.46856 15.4779 1.24996 14.6909 1.14473 13.7196C1.04161 12.7678 1.04162 11.5682 1.04163 10.0377V9.96229C1.04162 8.43185 1.04161 7.23218 1.14473 6.2804C1.24996 5.30912 1.46856 4.52213 1.95675 3.8502C2.2523 3.44341 2.61003 3.08568 3.01682 2.79013C3.68876 2.30194 4.47574 2.08334 5.44702 1.97811C6.3988 1.87499 7.59847 1.87499 9.12892 1.875H10.871ZM10.8333 7.5C10.8333 7.03976 11.2064 6.66667 11.6666 6.66667H15C15.4602 6.66667 15.8333 7.03976 15.8333 7.5C15.8333 7.96024 15.4602 8.33333 15 8.33333H11.6666C11.2064 8.33333 10.8333 7.96024 10.8333 7.5ZM10.8333 10.4167C10.8333 9.95643 11.2064 9.58333 11.6666 9.58333H14.1666C14.6269 9.58333 15 9.95643 15 10.4167C15 10.8769 14.6269 11.25 14.1666 11.25H11.6666C11.2064 11.25 10.8333 10.8769 10.8333 10.4167ZM7.08329 5.20823C5.81764 5.20823 4.79163 6.23425 4.79163 7.4999C4.79163 8.76555 5.81764 9.79157 7.08329 9.79157C8.34895 9.79157 9.37496 8.76555 9.37496 7.4999C9.37496 6.23425 8.34895 5.20823 7.08329 5.20823ZM3.60073 13.0682C3.45438 13.3809 3.58917 13.7529 3.90179 13.8993C3.98764 13.9395 4.07798 13.9584 4.1669 13.9584H9.99996C10.0889 13.9585 10.1792 13.9395 10.2651 13.8993C10.5777 13.7529 10.7125 13.3809 10.5662 13.0682C9.89721 11.6393 8.41962 11.0218 7.04937 11.042C5.68672 11.0622 4.23391 11.7157 3.60073 13.0682Z" fill="#F84754"/>
</svg>
