<svg width="20" height="20" viewBox="0 0 20 20" fill="none" xmlns="http://www.w3.org/2000/svg">
<path fill-rule="evenodd" clip-rule="evenodd" d="M10.627 18.1624C10.627 17.7 11.0018 17.3252 11.4643 17.3252L18.1628 17.3252C18.6252 17.3252 19.0001 17.7 19.0001 18.1624C19.0001 18.6247 18.6252 18.9995 18.1628 18.9995L11.4643 18.9995C11.0018 18.9995 10.627 18.6247 10.627 18.1624Z" fill="white"/>
<path d="M15.9056 1.40737C14.8968 0.847401 13.6735 0.865884 12.6817 1.45569C12.3668 1.64294 12.076 1.92193 11.71 2.31023C11.5543 2.47537 11.4765 2.55794 11.478 2.65979C11.4795 2.76164 11.5606 2.8427 11.7227 3.00483L17.0742 8.35546C17.2398 8.52103 17.3226 8.60381 17.4264 8.60403C17.5301 8.60425 17.6122 8.52288 17.7764 8.36013C18.1287 8.01088 18.3841 7.72773 18.5578 7.42287C19.1302 6.41868 19.1479 5.18401 18.6049 4.16341C18.3785 3.73799 17.9973 3.34886 17.4276 2.76741L17.2735 2.60995C16.7058 2.02977 16.3241 1.63965 15.9056 1.40737Z" fill="white"/>
<path d="M15.8478 10.2208C16.0214 10.0537 16.1081 9.97019 16.1091 9.86478C16.1101 9.75937 16.0249 9.67421 15.8546 9.50388L10.6146 4.26476C10.4409 4.09109 10.354 4.00426 10.2471 4.0064C10.1401 4.00854 10.0568 4.09878 9.89016 4.27926L3.42112 11.287C2.48328 12.3026 1.90847 12.9251 1.572 13.6994C1.23617 14.4723 1.17004 15.3226 1.06191 16.713L1.06172 16.7154C1.06152 16.7179 0.990137 17.631 1.00116 17.8286C1.01364 18.0525 1.06697 18.3247 1.27479 18.5605C1.4845 18.7985 1.74957 18.884 1.97273 18.9212C2.16685 18.9536 3.04116 18.9764 3.04293 18.9764C4.63143 19.0183 5.6134 19.0441 6.51642 18.6915C7.41816 18.3393 8.13077 17.6528 9.28698 16.539L15.8478 10.2208Z" fill="white"/>
</svg>
