<svg width="18" height="18" viewBox="0 0 18 18" fill="none" xmlns="http://www.w3.org/2000/svg">
<g clip-path="url(#clip0_180_1754)">
<path fill-rule="evenodd" clip-rule="evenodd" d="M0.9375 9C0.9375 13.4528 4.5472 17.0625 9 17.0625C13.4528 17.0625 17.0625 13.4528 17.0625 9C17.0625 4.5472 13.4528 0.9375 9 0.9375C4.5472 0.9375 0.9375 4.5472 0.9375 9ZM12.5068 6.19714C12.8121 6.47703 12.8328 6.95146 12.5529 7.2568L8.42787 11.7568C8.28964 11.9076 8.09581 11.9954 7.89129 11.9998C7.68678 12.0043 7.48932 11.925 7.34467 11.7803L5.46967 9.90533C5.17678 9.61244 5.17678 9.13757 5.46967 8.84467C5.76256 8.55178 6.23744 8.55178 6.53033 8.84467L7.85144 10.1658L11.4471 6.24321C11.727 5.93787 12.2015 5.91724 12.5068 6.19714Z" fill="white"/>
</g>
<defs>
<clipPath id="clip0_180_1754">
<rect width="18" height="18" fill="white"/>
</clipPath>
</defs>
</svg>
