<svg width="20" height="20" viewBox="0 0 20 20" fill="none" xmlns="http://www.w3.org/2000/svg">
<path fill-rule="evenodd" clip-rule="evenodd" d="M12.4333 2.3223C10.8058 2.2814 9.19415 2.2814 7.56661 2.32229L7.51815 2.32351C6.24746 2.35541 5.22498 2.38109 4.40554 2.52379C3.54763 2.6732 2.85036 2.95977 2.26131 3.55106C1.67472 4.13988 1.38966 4.82712 1.24309 5.67113C1.10353 6.47477 1.08228 7.4723 1.05595 8.708L1.05491 8.75695C1.0372 9.58724 1.0372 10.4127 1.05491 11.243L1.05595 11.2919C1.08228 12.5276 1.10354 13.5251 1.2431 14.3288C1.38966 15.1728 1.67473 15.86 2.26131 16.4489C2.85036 17.0401 3.54763 17.3267 4.40554 17.4761C5.22496 17.6188 6.24742 17.6445 7.51808 17.6764H7.5181L7.56662 17.6776C9.19415 17.7185 10.8058 17.7185 12.4333 17.6776L12.4818 17.6764H12.4818C13.7525 17.6445 14.775 17.6188 15.5944 17.4761C16.4523 17.3267 17.1496 17.0401 17.7386 16.4489C18.3252 15.86 18.6103 15.1728 18.7568 14.3288C18.8964 13.5251 18.9176 12.5276 18.944 11.2919L18.945 11.243C18.9627 10.4127 18.9627 9.58725 18.945 8.75696L18.944 8.70802C18.9176 7.47231 18.8964 6.47479 18.7568 5.67114C18.6103 4.82714 18.3252 4.13989 17.7386 3.55108C17.1496 2.95978 16.4523 2.67322 15.5944 2.52381C14.7749 2.3811 13.7525 2.35542 12.4818 2.32351L12.4333 2.3223ZM6.15148 6.54539C5.85435 6.36971 5.47106 6.46817 5.29539 6.7653C5.11971 7.06243 5.21817 7.44572 5.5153 7.62139L7.96698 9.07092C8.69269 9.49998 9.3189 9.79172 10.0001 9.79172C10.6812 9.79172 11.3074 9.49998 12.0331 9.07092L14.4848 7.62139C14.7819 7.44572 14.8804 7.06243 14.7047 6.7653C14.5291 6.46817 14.1458 6.36971 13.8486 6.54539L11.397 7.99491C10.6933 8.41093 10.3192 8.54172 10.0001 8.54172C9.68089 8.54172 9.30679 8.41093 8.60316 7.99491L6.15148 6.54539Z" fill="#F84754"/>
</svg>
