<svg width="16" height="16" viewBox="0 0 16 16" fill="none" xmlns="http://www.w3.org/2000/svg">
<path fill-rule="evenodd" clip-rule="evenodd" d="M7.97775 0.833008H8.01965H8.01965C8.42237 0.833002 8.75575 0.832997 9.03102 0.856442C9.31951 0.881013 9.5802 0.933466 9.83164 1.05795C10.2796 1.27973 10.5628 1.63219 10.7616 1.98568C10.9157 2.2597 11.0354 2.56755 11.1368 2.82846L11.1368 2.82855C11.1607 2.89008 11.1836 2.94901 11.2057 3.00427L11.2539 3.12473C11.3261 3.30525 11.3622 3.39551 11.4364 3.44691C11.5106 3.4983 11.6099 3.50042 11.8086 3.50465C12.3567 3.51633 12.7824 3.55788 13.1596 3.7162C13.7915 3.98141 14.3044 4.47055 14.6035 5.08999C14.7369 5.36635 14.8049 5.66325 14.8498 6.00804C14.8937 6.34418 14.9193 6.75897 14.9513 7.27793L15.0579 9.00788C15.1379 10.3035 15.201 11.3273 15.1421 12.1303C15.0815 12.9549 14.8881 13.6275 14.3895 14.1654C13.8899 14.7044 13.2366 14.9433 12.425 15.0564C11.6365 15.1663 10.6231 15.1663 9.34336 15.1663H6.65385C5.37411 15.1663 4.3607 15.1663 3.57222 15.0564C2.76058 14.9433 2.10735 14.7044 1.60772 14.1654C1.10907 13.6275 0.915707 12.9549 0.85516 12.1303C0.796201 11.3273 0.859353 10.3035 0.939266 9.00789L1.04597 7.27781C1.07796 6.75891 1.10354 6.34415 1.14738 6.00804C1.19236 5.66325 1.26031 5.36635 1.39375 5.08999C1.69286 4.47055 2.20572 3.98141 2.83759 3.7162C3.21483 3.55786 3.64056 3.51632 4.18884 3.50465C4.38747 3.50042 4.48679 3.4983 4.56098 3.44691C4.63518 3.39551 4.67129 3.30525 4.7435 3.12473L4.79168 3.00427C4.81379 2.94899 4.83671 2.89004 4.86063 2.82848L4.86064 2.82847L4.86064 2.82845C4.96205 2.56755 5.08171 2.25969 5.23581 1.98568C5.43462 1.63219 5.7178 1.27973 6.16576 1.05795C6.4172 0.933466 6.67789 0.881013 6.96638 0.856442C7.24166 0.832997 7.57503 0.833002 7.97775 0.833008H7.97775ZM7.33333 3.99967C7.33333 3.63148 7.63048 3.33301 7.99702 3.33301C8.36094 3.33301 8.66667 3.63161 8.66667 3.99967C8.66667 4.36774 8.36094 4.66634 7.99702 4.66634C7.63048 4.66634 7.33333 4.36786 7.33333 3.99967ZM8 6.66634C6.52724 6.66634 5.33333 7.86025 5.33333 9.33301C5.33333 10.8058 6.52724 11.9997 8 11.9997C9.47276 11.9997 10.6667 10.8058 10.6667 9.33301C10.6667 7.86025 9.47276 6.66634 8 6.66634Z" fill="white"/>
</svg>
