<svg width="36" height="36" viewBox="0 0 36 36" fill="none" xmlns="http://www.w3.org/2000/svg">
<path fill-rule="evenodd" clip-rule="evenodd" d="M29.8263 6.17417C30.5585 6.90641 30.5585 8.09359 29.8263 8.82583L8.82631 29.8258C8.09408 30.5581 6.9069 30.5581 6.17466 29.8258C5.44243 29.0936 5.44243 27.9064 6.17466 27.1742L27.1747 6.17417C27.9069 5.44194 29.0941 5.44194 29.8263 6.17417Z" fill="white"/>
<path fill-rule="evenodd" clip-rule="evenodd" d="M6.17466 6.17417C6.9069 5.44194 8.09408 5.44194 8.82631 6.17417L29.8263 27.1742C30.5585 27.9064 30.5585 29.0936 29.8263 29.8258C29.0941 30.5581 27.9069 30.5581 27.1747 29.8258L6.17466 8.82583C5.44243 8.09359 5.44243 6.90641 6.17466 6.17417Z" fill="white"/>
</svg>
