<svg width="18" height="18" viewBox="0 0 18 18" fill="none" xmlns="http://www.w3.org/2000/svg">
<g clip-path="url(#clip0_180_1749)">
<path fill-rule="evenodd" clip-rule="evenodd" d="M9 17.0625C4.5472 17.0625 0.9375 13.4528 0.9375 9C0.9375 4.5472 4.5472 0.9375 9 0.9375C13.4528 0.9375 17.0625 4.5472 17.0625 9C17.0625 13.4528 13.4528 17.0625 9 17.0625ZM11.7803 7.28034C12.0732 6.98746 12.0732 6.51259 11.7803 6.21968C11.4875 5.92678 11.0126 5.92676 10.7197 6.21965L8.99985 7.93937L7.28031 6.21994C6.98741 5.92706 6.51254 5.92708 6.21965 6.21998C5.92677 6.51288 5.92678 6.98776 6.21969 7.28064L7.93916 9L6.21969 10.7194C5.92678 11.0122 5.92677 11.4871 6.21965 11.78C6.51254 12.0729 6.98741 12.0729 7.28031 11.78L8.99985 10.0606L10.7197 11.7803C11.0126 12.0732 11.4875 12.0732 11.7803 11.7803C12.0732 11.4874 12.0732 11.0125 11.7803 10.7196L10.0605 9L11.7803 7.28034Z" fill="white"/>
</g>
<defs>
<clipPath id="clip0_180_1749">
<rect width="18" height="18" fill="white"/>
</clipPath>
</defs>
</svg>
