<svg width="16" height="16" viewBox="0 0 16 16" fill="none" xmlns="http://www.w3.org/2000/svg">
<g clip-path="url(#clip0_39_1717)">
<path d="M9.6375 1.01682C9.54549 0.995232 9.49948 0.984438 9.45825 0.992066C9.39492 1.00378 9.33734 1.04941 9.31147 1.10839C9.29463 1.14679 9.29463 1.19632 9.29463 1.29536C9.43685 2.80123 9.08496 4.24871 8.38394 5.48993C8.29557 5.64639 8.25138 5.72462 8.26535 5.79686C8.27931 5.8691 8.34892 5.92481 8.48815 6.03622C9.02866 6.46875 9.52002 6.96012 9.95253 7.50063C10.064 7.63988 10.1197 7.70951 10.1919 7.72346C10.2642 7.73742 10.3424 7.69323 10.4989 7.60484C11.7402 6.90359 13.1879 6.55155 14.694 6.6938C14.7921 6.6938 14.8412 6.6938 14.8793 6.67726C14.9389 6.65141 14.9849 6.59335 14.9965 6.52946C15.0039 6.48859 14.9932 6.44303 14.9718 6.35191C14.3531 3.71309 12.2762 1.63588 9.6375 1.01682Z" fill="#767676"/>
<path d="M8.85796 8.85226C8.98334 8.72707 9.04603 8.66448 9.05021 8.58798C9.05438 8.51148 9.0027 8.44719 8.89934 8.31863C8.53534 7.86587 8.12307 7.45358 7.67033 7.08956C7.54176 6.98618 7.47747 6.93449 7.40096 6.93866C7.32445 6.94284 7.26185 7.00554 7.13666 7.13095C5.64559 8.62461 3.54068 9.50677 1.29534 9.29464C1.19632 9.29464 1.14681 9.29464 1.10841 9.31148C1.04942 9.33735 1.00378 9.39494 0.992068 9.45828C0.984445 9.49951 0.995236 9.5455 1.01682 9.63749C1.63587 12.2761 3.713 14.353 6.35175 14.9718C6.44391 14.9934 6.49 15.0042 6.53129 14.9965C6.59452 14.9848 6.652 14.9392 6.67787 14.8803C6.69476 14.8419 6.69476 14.7923 6.69476 14.6931C6.48266 12.448 7.36461 10.3433 8.85796 8.85226Z" fill="#767676"/>
<path d="M6.73401 4.92739C6.89826 5.00718 6.98038 5.04707 7.05651 5.02287C7.13263 4.99867 7.17347 4.92445 7.25516 4.77601C7.80962 3.76841 8.08453 2.60175 7.96456 1.39343L7.96129 1.36057V1.22941C7.96129 1.03808 7.96129 0.942418 7.89843 0.883201C7.83556 0.823983 7.74357 0.829485 7.55959 0.840491C5.48047 0.964858 3.64017 1.97562 2.41146 3.50001C2.28966 3.65112 2.22876 3.72668 2.23134 3.80112C2.23319 3.85458 2.25993 3.91048 2.30039 3.94547C2.35673 3.9942 2.45819 3.9942 2.66111 3.9942C4.12134 3.9942 5.50323 4.32953 6.73401 4.92739Z" fill="#767676"/>
<path d="M1.24416 5.58046C1.28706 5.4605 1.30851 5.40051 1.36032 5.36402C1.41213 5.32753 1.47829 5.32753 1.61061 5.32753H2.66111C3.74391 5.32753 4.77645 5.54265 5.71835 5.93248C5.94838 6.02768 6.0634 6.07528 6.08088 6.18602C6.09836 6.29676 6.00441 6.37679 5.8165 6.53685C4.62271 7.55369 3.05059 8.12911 1.39341 7.96457L1.36056 7.96131H1.22941C1.03808 7.96131 0.942424 7.96131 0.883206 7.89845C0.823989 7.83558 0.829487 7.74363 0.840483 7.55974C0.881783 6.86907 1.0209 6.20476 1.24416 5.58046Z" fill="#767676"/>
<path d="M9.45196 10.1726C9.61201 9.98467 9.69204 9.89069 9.8028 9.90817C9.91355 9.92565 9.96115 10.0407 10.0564 10.2708C10.4461 11.2125 10.6611 12.2449 10.6611 13.3275V14.3777C10.6611 14.51 10.6611 14.5762 10.6246 14.628C10.5881 14.6798 10.5282 14.7012 10.4082 14.7441C9.78415 14.9673 9.1201 15.1065 8.42972 15.1478C8.2458 15.1589 8.15384 15.1644 8.09097 15.1052C8.02809 15.0459 8.02809 14.9503 8.02809 14.7589V14.6279L8.02483 14.595C7.86033 12.9382 8.43549 11.3663 9.45196 10.1726Z" fill="#767676"/>
<path d="M12.4883 13.577C12.3375 13.6986 12.2621 13.7593 12.1878 13.7569C12.1341 13.7551 12.0781 13.7282 12.043 13.6876C11.9944 13.6313 11.9944 13.53 11.9944 13.3275C11.9944 11.8674 11.6591 10.4855 11.0613 9.25479C10.9816 9.09056 10.9417 9.00845 10.9659 8.93233C10.9901 8.85621 11.0643 8.81536 11.2127 8.73367C12.2204 8.17894 13.3874 7.90387 14.596 8.02387L14.6288 8.02714H14.759C14.9503 8.02714 15.046 8.02714 15.1052 8.09C15.1644 8.15287 15.1589 8.24486 15.1479 8.42884C15.0235 10.508 14.0127 12.3483 12.4883 13.577Z" fill="#767676"/>
</g>
<defs>
<clipPath id="clip0_39_1717">
<rect width="16" height="16" fill="white"/>
</clipPath>
</defs>
</svg>
