<svg width="30" height="30" viewBox="0 0 30 30" fill="none" xmlns="http://www.w3.org/2000/svg">
<path fill-rule="evenodd" clip-rule="evenodd" d="M29.6374 4.75069C30.272 5.65702 30.0517 6.90621 29.1454 7.54083L3.15242 25.7413C2.24609 26.3759 0.996902 26.1557 0.362284 25.2493C-0.272335 24.343 -0.0520696 23.0938 0.854259 22.4592L26.8472 4.25872C27.7535 3.6241 29.0027 3.84437 29.6374 4.75069Z" fill="white"/>
<path fill-rule="evenodd" clip-rule="evenodd" d="M4.75051 0.362472C5.65683 -0.272146 6.90602 -0.0518812 7.54064 0.854448L25.7411 26.8474C26.3757 27.7537 26.1555 29.0029 25.2491 29.6375C24.3428 30.2722 23.0936 30.0519 22.459 29.1456L4.25853 3.1526C3.62391 2.24628 3.84418 0.997091 4.75051 0.362472Z" fill="white"/>
</svg>
