<svg width="20" height="20" viewBox="0 0 20 20" fill="none" xmlns="http://www.w3.org/2000/svg">
<path fill-rule="evenodd" clip-rule="evenodd" d="M10 1.04199C5.60376 1.04199 1.875 4.67494 1.875 9.10513C1.875 11.3738 2.83489 13.2704 4.18074 14.8357C5.5208 16.3943 7.26528 17.6513 8.89853 18.6623L8.90927 18.669L8.92027 18.6752C9.24963 18.8611 9.6217 18.9587 10 18.9587C10.3783 18.9587 10.7504 18.8611 11.0797 18.6752L11.0893 18.6698L11.0987 18.664C12.7379 17.661 14.4827 16.4 15.8222 14.8368C17.1669 13.2675 18.125 11.3663 18.125 9.10513C18.125 4.67494 14.3962 1.04199 10 1.04199ZM10 5.83366C8.15905 5.83366 6.66667 7.32604 6.66667 9.16699C6.66667 11.0079 8.15905 12.5003 10 12.5003C11.8409 12.5003 13.3333 11.0079 13.3333 9.16699C13.3333 7.32604 11.8409 5.83366 10 5.83366Z" fill="#F84754"/>
</svg>
