<svg width="16" height="16" viewBox="0 0 16 16" fill="none" xmlns="http://www.w3.org/2000/svg">
<path d="M14.5402 2.62656C13.6669 4.80656 11.6736 7.65323 9.77355 9.51323C9.50022 7.79323 8.12689 6.44656 6.39355 6.20656C8.26022 4.2999 11.1269 2.2799 13.3136 1.3999C13.7002 1.25323 14.0869 1.36656 14.3269 1.60656C14.5802 1.8599 14.7002 2.2399 14.5402 2.62656Z" fill="#282828"/>
<path d="M9.18674 10.06C9.05341 10.1733 8.92008 10.2866 8.78675 10.3933L7.59341 11.3466C7.59341 11.3266 7.58675 11.3 7.58675 11.2733C7.49341 10.56 7.16008 9.89997 6.62008 9.35997C6.07341 8.81331 5.39341 8.47997 4.64674 8.38664C4.62674 8.38664 4.60008 8.37997 4.58008 8.37997L5.54674 7.15997C5.64008 7.03997 5.74008 6.92664 5.84675 6.80664L6.30008 6.86664C7.73341 7.06664 8.88674 8.19331 9.11341 9.61997L9.18674 10.06Z" fill="#282828"/>
<path d="M6.95334 11.7467C6.95334 12.48 6.67334 13.18 6.14001 13.7067C5.73334 14.12 5.18667 14.4 4.52001 14.48L2.88667 14.66C1.99334 14.76 1.22667 13.9934 1.32667 13.0934L1.50667 11.4534C1.66667 9.99338 2.88667 9.06004 4.18001 9.03338C4.30667 9.02671 4.44667 9.03338 4.58001 9.04671C5.14667 9.12004 5.69334 9.38004 6.15334 9.83338C6.60001 10.28 6.85334 10.8067 6.92667 11.36C6.94001 11.4934 6.95334 11.62 6.95334 11.7467Z" fill="#282828"/>
</svg>
