<svg width="80" height="80" viewBox="0 0 80 80" fill="none" xmlns="http://www.w3.org/2000/svg">
<path fill-rule="evenodd" clip-rule="evenodd" d="M0 40C0 62.0914 17.9086 80 40 80C62.0914 80 80 62.0914 80 40C80 17.9086 62.0914 0 40 0C17.9086 0 0 17.9086 0 40ZM57.3981 26.0943C58.9129 27.483 59.0153 29.8367 57.6266 31.3516L37.1615 53.6771C36.4757 54.4253 35.5141 54.8608 34.4994 54.8829C33.4848 54.9049 32.5052 54.5116 31.7875 53.7939L22.4852 44.4916C21.0321 43.0385 21.0321 40.6825 22.4852 39.2294C23.9383 37.7763 26.2943 37.7763 27.7474 39.2294L34.3017 45.7838L52.1408 26.3229C53.5294 24.8081 55.8832 24.7057 57.3981 26.0943Z" fill="#F84754"/>
</svg>
