<svg width="16" height="16" viewBox="0 0 16 16" fill="none" xmlns="http://www.w3.org/2000/svg">
<g clip-path="url(#clip0_39_1720)">
<path d="M9.96663 7.01453C8.59761 7.62142 7.62142 8.59761 7.01453 9.96663C6.81605 10.4144 6.50603 10.7742 6.11492 11.0266L5.12256 10.0343C5.43552 9.92993 5.66317 9.72501 5.7956 9.42628C6.53662 7.75468 7.75468 6.53662 9.42627 5.7956C9.72501 5.66317 9.92993 5.43552 10.0343 5.12256L11.0266 6.11492C10.7742 6.50603 10.4144 6.81605 9.96663 7.01453Z" fill="#767676"/>
<path fill-rule="evenodd" clip-rule="evenodd" d="M6.19401 14.3633C5.95182 14.4152 5.69769 14.3931 5.46561 14.297C5.32745 14.2397 5.21683 14.1568 5.1207 14.073L1.92652 10.8788C1.84266 10.7827 1.75978 10.6721 1.70255 10.5339C1.60642 10.3018 1.58432 10.0477 1.63621 9.8055C1.68345 9.58496 1.81167 9.4295 1.9047 9.33647L2.6285 8.61268C2.72153 8.51965 2.87698 8.39143 3.09752 8.34418C3.33972 8.2923 3.59385 8.3144 3.82592 8.41053C3.96408 8.46775 4.17084 8.63449 4.17084 8.63449L7.36502 11.8287C7.44887 11.9248 7.53176 12.0354 7.58899 12.1736C7.68511 12.4057 7.70721 12.6598 7.65533 12.902C7.60808 13.1225 7.47986 13.278 7.38683 13.371L6.66304 14.0948C6.57001 14.1878 6.41455 14.3161 6.19401 14.3633ZM3.6126 15.1666C3.91708 15.1666 4.15905 15.0372 4.363 14.8816L4.3907 14.8602C4.53471 14.7467 4.60671 14.69 4.61202 14.6003C4.61733 14.5106 4.5473 14.4406 4.40724 14.3005L1.69998 11.5933C1.55992 11.4532 1.48989 11.3832 1.40019 11.3885C1.31049 11.3938 1.25377 11.4658 1.14034 11.6098L1.11887 11.6375C0.963257 11.8414 0.833863 12.0834 0.833863 12.3879C0.833863 12.6924 0.963257 12.9343 1.11887 13.1383C1.22167 13.273 1.35611 13.4163 1.50759 13.5702L1.02448 14.0533C0.77005 14.3078 0.77005 14.7203 1.02448 14.9747C1.27892 15.2292 1.69143 15.2292 1.94586 14.9747L2.42896 14.4916C2.58337 14.6436 2.72709 14.7785 2.8622 14.8816C3.06615 15.0372 3.30812 15.1666 3.6126 15.1666Z" fill="#767676"/>
<path fill-rule="evenodd" clip-rule="evenodd" d="M14.9762 1.02432C15.2306 1.27875 15.2306 1.69127 14.9762 1.9457L14.4924 2.42946C14.6441 2.58354 14.7787 2.72696 14.8816 2.86183C15.0372 3.06578 15.1666 3.30775 15.1666 3.61223C15.1666 3.91671 15.0372 4.15868 14.8816 4.36264L14.8601 4.39033C14.7467 4.53434 14.6899 4.60635 14.6002 4.61166C14.5105 4.61697 14.4405 4.54694 14.3005 4.40687L11.5932 1.69961C11.4531 1.55955 11.3831 1.48952 11.3884 1.39982C11.3937 1.31012 11.4657 1.2534 11.6097 1.13997L11.6374 1.1185C11.8414 0.962889 12.0834 0.833496 12.3878 0.833496C12.6923 0.833496 12.9343 0.962889 13.1382 1.1185C13.2732 1.22149 13.4168 1.35624 13.571 1.50808L14.0548 1.02432C14.3092 0.769888 14.7217 0.769888 14.9762 1.02432ZM9.80642 1.63683C10.0486 1.58494 10.3028 1.60704 10.5348 1.70317C10.673 1.7604 10.7836 1.84328 10.8797 1.92713L14.0739 5.12132C14.1578 5.21745 14.2407 5.32807 14.2979 5.46623C14.394 5.69831 14.4161 5.95244 14.3642 6.19463C14.317 6.41517 14.1888 6.57063 14.0957 6.66366L13.3719 7.38745C13.2789 7.48048 13.1235 7.6087 12.9029 7.65595C12.6607 7.70783 12.4066 7.68573 12.1745 7.5896C12.0364 7.53238 11.8296 7.36564 11.8296 7.36564L8.63542 4.17146C8.55157 4.07533 8.46868 3.9647 8.41145 3.82654C8.31532 3.59447 8.29322 3.34033 8.34511 3.09814C8.39235 2.8776 8.52058 2.72215 8.61361 2.62912L9.3374 1.90532C9.43043 1.81229 9.58589 1.68407 9.80642 1.63683Z" fill="#767676"/>
</g>
<defs>
<clipPath id="clip0_39_1720">
<rect width="16" height="16" fill="white"/>
</clipPath>
</defs>
</svg>
