<svg width="44" height="48" viewBox="0 0 44 48" fill="none" xmlns="http://www.w3.org/2000/svg">
<path d="M35.1008 30.3342C35.3632 30.4888 35.6874 30.6697 36.0545 30.8746C37.6628 31.7724 40.0941 33.1296 41.7597 34.7427C42.8014 35.7516 43.7911 37.081 43.9711 38.7098C44.1624 40.4419 43.3987 42.0674 41.8666 43.5116C39.2234 46.0033 36.0514 48 31.9486 48H12.0514C7.9486 48 4.77662 46.0033 2.13341 43.5116C0.601289 42.0674 -0.16241 40.4419 0.0289454 38.7098C0.208881 37.081 1.19865 35.7516 2.24034 34.7427C3.90592 33.1296 6.33718 31.7724 7.94555 30.8746C8.31256 30.6698 8.63678 30.4888 8.89921 30.3342C16.9185 25.6095 27.0815 25.6095 35.1008 30.3342Z" fill="#F84754"/>
<path d="M10.1541 11.7209C10.1541 5.24764 15.4577 0 22 0C28.5423 0 33.8459 5.24764 33.8459 11.7209C33.8459 18.1942 28.5423 23.4419 22 23.4419C15.4577 23.4419 10.1541 18.1942 10.1541 11.7209Z" fill="#F84754"/>
</svg>
