<svg width="20" height="20" viewBox="0 0 20 20" fill="none" xmlns="http://www.w3.org/2000/svg">
<path fill-rule="evenodd" clip-rule="evenodd" d="M10.0477 1.45801H10.0477C11.8733 1.458 13.3072 1.45799 14.4267 1.6085C15.5739 1.76274 16.4841 2.08527 17.1993 2.80044C17.9144 3.5156 18.237 4.42581 18.3912 5.57303C18.5417 6.69254 18.5417 8.12646 18.5417 9.95204V10.0473C18.5417 11.8729 18.5417 13.3068 18.3912 14.4263C18.237 15.5735 17.9144 16.4837 17.1993 17.1989C16.4841 17.9141 15.5739 18.2366 14.4267 18.3908C13.3072 18.5414 11.8733 18.5414 10.0477 18.5413H9.95237C8.1268 18.5414 6.6929 18.5414 5.57339 18.3908C4.42618 18.2366 3.51597 17.9141 2.8008 17.1989C2.08564 16.4837 1.76311 15.5735 1.60887 14.4263C1.45835 13.3068 1.45836 11.8729 1.45837 10.0473V10.0473V9.95203V9.95202C1.45836 8.12644 1.45835 6.69254 1.60887 5.57303C1.76311 4.42581 2.08564 3.5156 2.8008 2.80044C3.51597 2.08527 4.42618 1.76274 5.57339 1.6085C6.69291 1.45799 8.1268 1.458 9.95239 1.45801H9.9524H10.0477ZM9.58337 5.20801C9.92855 5.20801 10.2084 5.48783 10.2084 5.83301V6.35743L14.1667 6.35743C14.5119 6.35743 14.7917 6.63726 14.7917 6.98243C14.7917 7.32761 14.5119 7.60743 14.1667 7.60743H12.5445C12.0951 8.94145 11.344 10.1905 10.4991 11.3037L11.7302 12.5836C11.9695 12.8324 11.9619 13.2281 11.7131 13.4674C11.4643 13.7066 11.0687 13.699 10.8294 13.4502L9.70613 12.2825C8.93957 13.1731 8.13645 13.965 7.41713 14.6264C7.16305 14.86 6.76767 14.8435 6.53403 14.5894C6.30038 14.3353 6.31696 13.9399 6.57104 13.7063C7.30158 13.0345 8.10795 12.2359 8.86288 11.3451C8.67246 11.106 8.4757 10.8469 8.29518 10.5966C8.0144 10.2072 7.741 9.79542 7.60617 9.50613C7.46035 9.19326 7.59577 8.82142 7.90863 8.67561C8.2215 8.52979 8.59334 8.66521 8.73915 8.97807C8.81861 9.14855 9.02735 9.47476 9.30907 9.86545C9.422 10.0221 9.54154 10.182 9.661 10.337C10.2962 9.47263 10.8424 8.55423 11.2143 7.60743H5.83337C5.4882 7.60743 5.20837 7.32761 5.20837 6.98243C5.20837 6.63726 5.4882 6.35743 5.83337 6.35743H8.95837V5.83301C8.95837 5.48783 9.2382 5.20801 9.58337 5.20801Z" fill="#F84754"/>
</svg>
