<svg width="16" height="16" viewBox="0 0 16 16" fill="none" xmlns="http://www.w3.org/2000/svg">
<path d="M14.6668 1.84299V4.65219C14.667 4.66084 14.667 4.66949 14.6668 4.67812V10.6657C14.6668 12.1385 13.4729 13.3324 12.0002 13.3324C10.5274 13.3324 9.3335 12.1385 9.3335 10.6657C9.3335 9.19299 10.5274 7.99908 12.0002 7.99908C12.4859 7.99908 12.9413 8.12894 13.3335 8.35583V5.77479C12.1187 6.37478 10.0575 7.19904 7.3335 7.3179V12.3324C7.3335 13.9893 5.99035 15.3324 4.3335 15.3324C2.67664 15.3324 1.3335 13.9893 1.3335 12.3324C1.3335 10.6756 2.67664 9.33241 4.3335 9.33241C4.95021 9.33241 5.52346 9.5185 6.00016 9.8376V4.66575L6.00016 4.63161C6.00011 4.35342 6.00007 4.08681 6.02714 3.86756C6.05702 3.62559 6.12955 3.34173 6.35143 3.10012C6.57885 2.85247 6.86815 2.75854 7.10809 2.70957C7.33221 2.66382 7.61093 2.64007 7.9087 2.61471L7.9087 2.61471L7.94255 2.61182C10.509 2.39285 12.3385 1.55643 13.2325 1.03089L13.2516 1.01963L13.2516 1.01962C13.3313 0.972612 13.4417 0.907544 13.5427 0.865213C13.6391 0.824819 13.9441 0.708496 14.2641 0.891565C14.5799 1.07226 14.6371 1.38744 14.6521 1.49588C14.6671 1.60411 14.667 1.73127 14.6668 1.82113L14.6668 1.84299Z" fill="#767676"/>
</svg>
