<svg width="20" height="20" viewBox="0 0 20 20" fill="none" xmlns="http://www.w3.org/2000/svg">
<path fill-rule="evenodd" clip-rule="evenodd" d="M4.60009 5.59411C6.02146 4.48447 7.8577 3.54163 9.99984 3.54163C12.142 3.54163 13.9782 4.48447 15.3996 5.59411C16.8222 6.70476 17.8738 8.01641 18.462 8.84122L18.5063 8.90307C18.7173 9.19647 18.9582 9.53145 18.9582 9.99996C18.9582 10.4685 18.7173 10.8034 18.5063 11.0968L18.462 11.1587C17.8738 11.9835 16.8222 13.2952 15.3996 14.4058C13.9782 15.5155 12.142 16.4583 9.99984 16.4583C7.8577 16.4583 6.02146 15.5155 4.60009 14.4058C3.17745 13.2952 2.12589 11.9835 1.53768 11.1587L1.49333 11.0968L1.49333 11.0968C1.28237 10.8034 1.0415 10.4685 1.0415 9.99996C1.0415 9.53145 1.28237 9.19647 1.49333 8.90307L1.53768 8.84123C2.12589 8.01641 3.17744 6.70476 4.60009 5.59411ZM7.08317 9.99996C7.08317 11.6108 8.38901 12.9166 9.99984 12.9166C11.6107 12.9166 12.9165 11.6108 12.9165 9.99996C12.9165 8.38913 11.6107 7.08329 9.99984 7.08329C8.38901 7.08329 7.08317 8.38913 7.08317 9.99996Z" fill="#767676"/>
</svg>
