<svg width="33" height="30" viewBox="0 0 33 30" fill="none" xmlns="http://www.w3.org/2000/svg">
<path d="M4.4435 1.69635C9.01912 -1.11034 13.1239 0.00824395 15.6037 1.87049C16.0116 2.17686 16.2916 2.38653 16.5 2.52812C16.7085 2.38653 16.9884 2.17686 17.3964 1.87049C19.8761 0.00824395 23.9809 -1.11034 28.5566 1.69635C31.7204 3.63708 33.5007 7.69098 32.876 12.3488C32.2483 17.0291 29.219 22.3225 22.8035 27.071C20.5757 28.7209 18.9407 29.9318 16.5 29.9318C14.0594 29.9318 12.4243 28.7209 10.1965 27.071C3.78108 22.3225 0.751747 17.0291 0.124036 12.3488C-0.500662 7.69098 1.27961 3.63708 4.4435 1.69635Z" fill="white"/>
</svg>
