<svg width="18" height="17" viewBox="0 0 18 17" fill="none" xmlns="http://www.w3.org/2000/svg">
<path d="M13.0947 1.53925C14.224 1.04454 15.2666 1.29598 16.1795 1.55094C16.5621 1.65716 16.9904 1.77608 17.254 1.96646C17.6659 2.26392 17.9356 2.72266 17.9912 3.22837C18.0333 3.61088 17.912 3.99517 17.8181 4.36136C17.585 5.2703 17.2828 6.29227 16.2805 7.01247C15.904 7.28306 15.3235 7.58087 14.8594 7.8039C14.3824 8.03312 13.977 8.20739 13.9232 8.23042L7.88983 10.8219C7.17898 11.1266 7.02154 11.2106 6.91672 11.3332C6.42874 11.9037 6.43701 12.856 6.25909 13.55C6.16965 13.8988 5.92059 14.2817 5.63476 14.56C5.36826 14.8194 4.88258 15.1654 4.302 15.0448C3.70419 14.9207 3.51052 14.3701 3.44417 13.8368L3.03526 11.2718C3.00997 11.1136 2.99732 11.0345 2.9579 10.9669C2.91849 10.8993 2.85586 10.8494 2.73059 10.7495L0.679049 9.11324C0.247121 8.79196 -0.142396 8.35014 0.0508701 7.76719C0.23848 7.2013 0.790867 6.95995 1.1467 6.8633C1.53264 6.75847 1.9896 6.73782 2.3356 6.83445C3.03847 7.03075 3.867 7.51435 4.61856 7.38141C4.78101 7.35268 4.9341 7.25935 5.55601 6.80494L10.8471 2.9448C10.8944 2.9102 11.2501 2.65084 11.6898 2.35782C12.1177 2.07266 12.6692 1.72564 13.0947 1.53925Z" fill="#767676"/>
<path d="M10.0106 11.0504C9.68145 11.1918 9.51686 11.2624 9.44957 11.4083C9.38227 11.5542 9.43532 11.7253 9.54142 12.0675L10.5867 15.439C10.6764 15.7283 10.8573 16.1016 11.2604 16.259C11.6628 16.4162 12.0438 16.2632 12.2905 16.1218C12.7186 15.8763 13.0745 15.58 13.3171 15.171C13.5594 14.7625 13.6523 14.3028 13.6638 13.7947L13.7506 9.95979C13.7559 9.72523 13.7586 9.60795 13.6828 9.55679C13.607 9.50563 13.4992 9.55193 13.2837 9.64452L10.0106 11.0504Z" fill="#767676"/>
<path d="M5.99181 0.408187C5.52463 0.151803 5.06168 -0.00419583 4.56892 8.59311e-05C4.07521 0.00437597 3.62276 0.168939 3.17612 0.427293C2.91965 0.575643 2.58926 0.835823 2.52395 1.27197C2.45876 1.70731 2.69658 2.05864 2.91118 2.29011L5.2771 4.8061C5.51816 5.06245 5.63869 5.19063 5.79633 5.20532C5.95397 5.22001 6.09611 5.11631 6.38039 4.90892L9.30863 2.7726C9.50007 2.63294 9.59579 2.56311 9.58989 2.47131C9.58399 2.37952 9.48011 2.32252 9.27237 2.20851L5.99181 0.408187Z" fill="#767676"/>
</svg>
