<svg width="16" height="16" viewBox="0 0 16 16" fill="none" xmlns="http://www.w3.org/2000/svg">
<path fill-rule="evenodd" clip-rule="evenodd" d="M7.76816 1.20957C7.8443 1.16632 7.93665 1.16606 8.12136 1.16554L8.2586 1.16514C8.91293 1.16316 9.56809 1.16118 10.2218 1.18595C10.5117 1.19694 10.6567 1.20243 10.7109 1.30305C10.7652 1.40367 10.6891 1.52947 10.5369 1.78108L10.5369 1.78109L10.5369 1.78109L8.98605 4.34466C8.89101 4.50176 8.84349 4.58032 8.76728 4.62329C8.69106 4.66626 8.59926 4.66626 8.41564 4.66626H6.11495C5.90613 4.66626 5.80173 4.66626 5.76343 4.59862C5.72513 4.53098 5.77885 4.44145 5.88628 4.26239L7.54984 1.4898L7.54984 1.4898C7.64463 1.33182 7.69202 1.25282 7.76816 1.20957ZM6.0603 1.24678C6.01986 1.1787 5.91427 1.18262 5.7031 1.19047C5.24231 1.20759 4.82891 1.23679 4.45852 1.28659C3.54075 1.40998 2.81258 1.66801 2.24045 2.24014C1.66515 2.81543 1.41614 3.58591 1.2995 4.37107C1.27943 4.50619 1.26939 4.57375 1.30928 4.62C1.34917 4.66626 1.41917 4.66626 1.55918 4.66626H1.55918H3.73145H3.73145C3.91677 4.66626 4.00943 4.66626 4.0861 4.62261C4.16278 4.57896 4.21008 4.49929 4.30469 4.33994L5.93771 1.58946C6.0464 1.40639 6.10075 1.31486 6.0603 1.24678ZM12.7806 1.59541C12.5767 1.51151 12.4748 1.46956 12.3582 1.50746C12.2416 1.54537 12.1769 1.65057 12.0474 1.86099L10.5712 4.25983C10.4605 4.43972 10.4051 4.52967 10.4433 4.59796C10.4815 4.66626 10.5871 4.66626 10.7983 4.66626H14.4405C14.5805 4.66626 14.6505 4.66626 14.6904 4.62C14.7303 4.57375 14.7202 4.50619 14.7002 4.37107C14.5835 3.58591 14.3345 2.81543 13.7592 2.24014C13.4734 1.95427 13.1485 1.74683 12.7806 1.59541ZM14.7454 6.07655C14.8233 6.1535 14.8248 6.2754 14.8278 6.51919C14.8332 6.96215 14.8332 7.44197 14.8332 7.96142V8.03766C14.8332 9.49813 14.8332 10.6452 14.7128 11.5408C14.5894 12.4586 14.3314 13.1868 13.7592 13.7589C13.1871 14.3311 12.4589 14.5891 11.5412 14.7125C10.6455 14.8329 9.49841 14.8329 8.03795 14.8329H7.9617C6.50124 14.8329 5.35413 14.8329 4.45852 14.7125C3.54075 14.5891 2.81258 14.3311 2.24045 13.7589C1.66831 13.1868 1.41029 12.4586 1.2869 11.5408C1.16649 10.6452 1.1665 9.49811 1.1665 8.03764V7.9614C1.1665 7.44196 1.1665 6.96215 1.17191 6.51919C1.17489 6.2754 1.17638 6.1535 1.25429 6.07655C1.33219 5.99959 1.4552 5.99959 1.70123 5.99959H14.2984C14.5445 5.99959 14.6675 5.99959 14.7454 6.07655ZM8.43576 11.2334C9.39031 10.6429 9.86759 10.3477 9.96857 9.92986C10.0103 9.75739 10.0103 9.57594 9.96857 9.40348C9.86759 8.98564 9.39031 8.69039 8.43576 8.09989C7.51299 7.52905 7.05161 7.24362 6.67979 7.35835C6.52607 7.40579 6.38601 7.49587 6.27305 7.61997C5.99984 7.92012 5.99984 8.5023 5.99984 9.66667C5.99984 10.831 5.99984 11.4132 6.27305 11.7134C6.38601 11.8375 6.52607 11.9275 6.67979 11.975C7.05161 12.0897 7.51299 11.8043 8.43576 11.2334Z" fill="#767676"/>
</svg>
