<svg width="30" height="30" viewBox="0 0 30 30" fill="none" xmlns="http://www.w3.org/2000/svg">
<path fill-rule="evenodd" clip-rule="evenodd" d="M15 28.4375C7.57867 28.4375 1.5625 22.4213 1.5625 15C1.5625 7.57867 7.57867 1.5625 15 1.5625C22.4213 1.5625 28.4375 7.57867 28.4375 15C28.4375 22.4213 22.4213 28.4375 15 28.4375ZM16.25 10C16.25 9.30964 15.6904 8.75 15 8.75C14.3096 8.75 13.75 9.30964 13.75 10V13.75H10C9.30964 13.75 8.75 14.3096 8.75 15C8.75 15.6904 9.30964 16.25 10 16.25H13.75V20C13.75 20.6904 14.3096 21.25 15 21.25C15.6904 21.25 16.25 20.6904 16.25 20V16.25H20C20.6904 16.25 21.25 15.6904 21.25 15C21.25 14.3096 20.6904 13.75 20 13.75H16.25V10Z" fill="#F84754"/>
</svg>
