<svg width="36" height="36" viewBox="0 0 36 36" fill="none" xmlns="http://www.w3.org/2000/svg">
<path fill-rule="evenodd" clip-rule="evenodd" d="M11.5045 2.99902H24.5095C29.5945 2.99902 32.9995 6.56902 32.9995 11.879V24.1355C32.9995 29.4305 29.5945 32.999 24.5095 32.999H11.5045C6.41951 32.999 2.99951 29.4305 2.99951 24.1355V11.879C2.99951 6.56902 6.41951 2.99902 11.5045 2.99902ZM22.5145 22.4994C23.0245 21.9909 23.0245 21.1659 22.5145 20.6559L19.8445 17.9859L22.5145 15.3144C23.0245 14.8059 23.0245 13.9659 22.5145 13.4559C22.0045 12.9444 21.1795 12.9444 20.6545 13.4559L17.9995 16.1244L15.3295 13.4559C14.8045 12.9444 13.9795 12.9444 13.4695 13.4559C12.9595 13.9659 12.9595 14.8059 13.4695 15.3144L16.1395 17.9859L13.4695 20.6409C12.9595 21.1659 12.9595 21.9909 13.4695 22.4994C13.7245 22.7544 14.0695 22.8909 14.3995 22.8909C14.7445 22.8909 15.0745 22.7544 15.3295 22.4994L17.9995 19.8459L20.6695 22.4994C20.9245 22.7709 21.2545 22.8909 21.5845 22.8909C21.9295 22.8909 22.2595 22.7544 22.5145 22.4994Z" fill="#F84754"/>
</svg>
