<svg width="16" height="16" viewBox="0 0 16 16" fill="none" xmlns="http://www.w3.org/2000/svg">
<path d="M3.12683 9.60905C3.41179 7.25942 5.482 5.42981 7.99967 5.42981C10.5174 5.42981 12.5876 7.25942 12.8725 9.60905C12.9145 9.95545 13.2372 10.2031 13.5932 10.1623C13.9493 10.1214 14.2038 9.80742 14.1618 9.46102C13.8427 6.82979 11.7661 4.72337 9.10256 4.2612C9.31141 3.96449 9.49967 3.57552 9.49967 3.12757C9.49967 2.6356 9.33307 2.22134 9.04113 1.92874C8.75381 1.64077 8.37371 1.5 7.99967 1.5C7.62564 1.5 7.24554 1.64077 6.95822 1.92874C6.66628 2.22134 6.49967 2.6356 6.49967 3.12757C6.49967 3.57552 6.68794 3.96449 6.89679 4.2612C4.23322 4.72337 2.15666 6.82979 1.83754 9.46102C1.79553 9.80742 2.05009 10.1214 2.40612 10.1623C2.76214 10.2031 3.08482 9.95545 3.12683 9.60905Z" fill="#767676"/>
<path d="M1.33317 10.833C0.964981 10.833 0.666504 11.1315 0.666504 11.4997C0.666504 11.8679 0.964981 12.1663 1.33317 12.1663H1.69287L1.92906 13.1111C2.1331 13.9272 2.8664 14.4998 3.70766 14.4998H12.2923C13.1335 14.4998 13.8668 13.9272 14.0708 13.1111L14.307 12.1663H14.6665C15.0347 12.1663 15.3332 11.8679 15.3332 11.4997C15.3332 11.1315 15.0347 10.833 14.6665 10.833H1.33317Z" fill="#767676"/>
</svg>
