<svg width="27" height="69" viewBox="0 0 27 69" fill="none" xmlns="http://www.w3.org/2000/svg">
<path fill-rule="evenodd" clip-rule="evenodd" d="M7.875 45.3117L6.93893 45.9851C4.09471 48.0312 2.25 51.3626 2.25 55.125C2.25 61.3382 7.2868 66.375 13.5 66.375C19.7132 66.375 24.75 61.3382 24.75 55.125C24.75 50.9638 22.4919 47.3273 19.1234 45.3787L18 44.7289V11.8125C18 9.01657 15.7334 6.75001 12.9375 6.75001C10.1416 6.75001 7.875 9.01657 7.875 11.8125V45.3117ZM5.625 11.8125C5.625 7.77393 8.89892 4.50001 12.9375 4.50001C16.9761 4.50001 20.25 7.77392 20.25 11.8125V43.4311C24.2852 45.7653 27 50.1281 27 55.125C27 62.5809 20.9558 68.625 13.5 68.625C6.04416 68.625 0 62.5809 0 55.125C0 50.6081 2.21835 46.6093 5.625 44.1586V11.8125Z" fill="white"/>
<path fill-rule="evenodd" clip-rule="evenodd" d="M13.4297 10.8583C13.6461 11.4407 13.3493 12.0883 12.7669 12.3046C12.5689 12.3782 12.3676 12.5738 12.2045 12.9711C12.0426 13.3653 11.986 13.8066 11.986 14.0625V14.0708L11.4698 49.1615L10.748 49.4296C8.71302 50.1856 7.66102 51.6571 7.15059 53.2588C6.62744 54.9004 6.69397 56.6403 6.91536 57.7094C7.04134 58.3179 6.65025 58.9132 6.04184 59.0392C5.43342 59.1652 4.83808 58.7741 4.7121 58.1657C4.42876 56.7973 4.34387 54.6559 5.00682 52.5756C5.62206 50.6451 6.89724 48.7387 9.24215 47.625L9.73597 14.0536C9.73711 13.5596 9.83249 12.8242 10.1231 12.1165C10.4142 11.4076 10.9701 10.5719 11.9834 10.1955C12.5658 9.97909 13.2133 10.2758 13.4297 10.8583Z" fill="white"/>
<path d="M12.0227 54C12.0227 54.932 11.2672 55.6875 10.3352 55.6875C9.40323 55.6875 8.64771 54.932 8.64771 54C8.64771 53.068 9.40323 52.3125 10.3352 52.3125C11.2672 52.3125 12.0227 53.068 12.0227 54Z" fill="white"/>
<path fill-rule="evenodd" clip-rule="evenodd" d="M1.1251 11.8125C1.1251 5.28864 6.41373 0 12.9376 0C19.4615 0 24.7501 5.28864 24.7501 11.8125V22.9737C24.7501 23.595 24.2464 24.0987 23.6251 24.0987C23.0038 24.0987 22.5001 23.595 22.5001 22.9737V11.8125C22.5001 6.53128 18.2188 2.25 12.9376 2.25C7.65638 2.25 3.3751 6.53128 3.3751 11.8125V41.625C3.3751 42.2463 2.87142 42.75 2.2501 42.75C1.62878 42.75 1.1251 42.2463 1.1251 41.625V11.8125Z" fill="white"/>
<path fill-rule="evenodd" clip-rule="evenodd" d="M19.1252 16.875C19.1252 17.4963 18.6215 18 18.0002 18H14.6252C14.0039 18 13.5002 17.4963 13.5002 16.875C13.5002 16.2537 14.0039 15.75 14.6252 15.75H18.0002C18.6215 15.75 19.1252 16.2537 19.1252 16.875Z" fill="white"/>
<path fill-rule="evenodd" clip-rule="evenodd" d="M19.1252 22.5C19.1252 23.1213 18.6215 23.625 18.0002 23.625H14.6252C14.0039 23.625 13.5002 23.1213 13.5002 22.5C13.5002 21.8787 14.0039 21.375 14.6252 21.375H18.0002C18.6215 21.375 19.1252 21.8787 19.1252 22.5Z" fill="white"/>
<path fill-rule="evenodd" clip-rule="evenodd" d="M19.1252 27C19.1252 27.6213 18.6215 28.125 18.0002 28.125H14.6252C14.0039 28.125 13.5002 27.6213 13.5002 27C13.5002 26.3787 14.0039 25.875 14.6252 25.875H18.0002C18.6215 25.875 19.1252 26.3787 19.1252 27Z" fill="white"/>
<path fill-rule="evenodd" clip-rule="evenodd" d="M19.1252 39.375C19.1252 39.9963 18.6215 40.5 18.0002 40.5H14.6252C14.0039 40.5 13.5002 39.9963 13.5002 39.375C13.5002 38.7537 14.0039 38.25 14.6252 38.25H18.0002C18.6215 38.25 19.1252 38.7537 19.1252 39.375Z" fill="white"/>
</svg>
