<svg width="41" height="41" viewBox="0 0 41 41" fill="none" xmlns="http://www.w3.org/2000/svg">
<path fill-rule="evenodd" clip-rule="evenodd" d="M33.9683 8.79126C34.6932 9.62519 34.6049 10.8889 33.7709 11.6138L9.8544 32.4041C9.02048 33.1291 7.75678 33.0407 7.03186 32.2068C6.30693 31.3728 6.3953 30.1091 7.22923 29.3842L31.1458 8.59389C31.9797 7.86897 33.2434 7.95733 33.9683 8.79126Z" fill="white"/>
<path fill-rule="evenodd" clip-rule="evenodd" d="M8.79233 7.03078C9.62626 6.30586 10.89 6.39423 11.6149 7.22816L32.4052 31.1447C33.1301 31.9786 33.0418 33.2423 32.2078 33.9672C31.3739 34.6922 30.1102 34.6038 29.3853 33.7699L8.59496 9.85333C7.87004 9.0194 7.9584 7.75571 8.79233 7.03078Z" fill="white"/>
</svg>
