<svg width="41" height="41" viewBox="0 0 41 41" fill="none" xmlns="http://www.w3.org/2000/svg">
<path d="M7.08086 5.73172C12.1734 2.60798 16.7418 3.85293 19.5017 5.92554C19.9557 6.26651 20.2674 6.49986 20.4993 6.65745C20.7313 6.49986 21.0429 6.26651 21.497 5.92554C24.2568 3.85293 28.8253 2.60798 33.9178 5.73172C37.4391 7.89168 39.4205 12.4035 38.7252 17.5875C38.0266 22.7965 34.655 28.6879 27.5149 33.9728C25.0354 35.8091 23.2157 37.1568 20.4993 37.1568C17.783 37.1568 15.9632 35.8091 13.4838 33.9728C6.34362 28.6879 2.97208 22.7965 2.27346 17.5875C1.5782 12.4035 3.55958 7.89168 7.08086 5.73172Z" fill="white"/>
</svg>
