<svg width="20" height="20" viewBox="0 0 20 20" fill="none" xmlns="http://www.w3.org/2000/svg">
<path fill-rule="evenodd" clip-rule="evenodd" d="M1.04175 10.0003C1.04175 5.05277 5.05253 1.04199 10.0001 1.04199C14.9476 1.04199 18.9584 5.05277 18.9584 10.0003C18.9584 14.9479 14.9476 18.9587 10.0001 18.9587C5.05253 18.9587 1.04175 14.9479 1.04175 10.0003ZM10.0001 7.08366C9.53984 7.08366 9.16675 7.45676 9.16675 7.91699C9.16675 8.37723 8.79365 8.75033 8.33341 8.75033C7.87318 8.75033 7.50008 8.37723 7.50008 7.91699C7.50008 6.53628 8.61937 5.41699 10.0001 5.41699C11.3808 5.41699 12.5001 6.53628 12.5001 7.91699C12.5001 8.41344 12.3545 8.87843 12.1035 9.26859C11.9528 9.50268 11.7782 9.724 11.6226 9.91729L11.5375 10.0228C11.4088 10.1822 11.2944 10.3237 11.1884 10.4694C10.925 10.8314 10.8334 11.0645 10.8334 11.2503C10.8334 11.7106 10.4603 12.0837 10.0001 12.0837C9.53984 12.0837 9.16675 11.7106 9.16675 11.2503C9.16675 10.5157 9.52739 9.91948 9.84075 9.4888C9.97396 9.30572 10.1202 9.12486 10.2495 8.96496L10.3241 8.87246C10.4783 8.68088 10.6035 8.51965 10.7019 8.36672C10.7851 8.23744 10.8334 8.08413 10.8334 7.91699C10.8334 7.45676 10.4603 7.08366 10.0001 7.08366ZM9.99636 12.917C9.53818 12.917 9.16675 13.2901 9.16675 13.7503C9.16675 14.2106 9.53818 14.5837 9.99636 14.5837H10.0038C10.462 14.5837 10.8334 14.2106 10.8334 13.7503C10.8334 13.2901 10.462 12.917 10.0038 12.917H9.99636Z" fill="#F84754"/>
</svg>
