<svg width="24" height="24" viewBox="0 0 24 24" fill="none" xmlns="http://www.w3.org/2000/svg">
<path d="M17.9996 1.78934C18.7725 1.23972 20.0195 0.938062 21.3688 1.74274C22.3751 2.34288 22.8968 3.56706 22.7128 4.90087C22.5274 6.24475 21.645 7.68711 19.9019 8.94146C19.348 9.34117 18.7809 9.75028 17.9996 9.75028C17.2183 9.75028 16.6513 9.34117 16.0974 8.94146C14.3543 7.68711 13.4719 6.24475 13.2865 4.90087C13.1025 3.56706 13.6241 2.34288 14.6305 1.74274C15.9798 0.938062 17.2268 1.23972 17.9996 1.78934Z" fill="#F84754"/>
<path fill-rule="evenodd" clip-rule="evenodd" d="M12 1.25C6.09523 1.25 1.25 5.83838 1.25 11.5667C1.25 14.3144 2.36972 16.8065 4.18451 18.6494C4.45227 18.9213 4.53937 19.2 4.50088 19.4052C4.35863 20.1513 4.03697 20.8445 3.56917 21.4199C3.40224 21.6252 3.35586 21.9033 3.44713 22.1517C3.5384 22.4 3.75381 22.5819 4.01396 22.6303C5.62504 22.93 7.29542 22.66 8.72714 21.8986C8.96068 21.7744 9.11322 21.6935 9.22775 21.6391C9.25931 21.6219 9.34334 21.5907 9.42696 21.6036C9.53909 21.6189 9.68979 21.647 9.92698 21.6916C10.6103 21.8199 11.3041 21.8843 12 21.8834C17.9048 21.8834 22.75 17.295 22.75 11.5667C22.75 10.9675 22.697 10.3807 22.5953 9.81037C22.5165 9.36867 22.4771 9.14782 22.3122 9.0897C22.1473 9.03157 21.962 9.19295 21.5914 9.51573C21.3377 9.73672 21.0667 9.9512 20.7789 10.1583C20.2585 10.5359 19.2741 11.2501 17.9999 11.2501C16.9346 11.2501 15.7027 10.5218 15.2199 10.1576C13.2391 8.73187 12.0564 6.95871 11.8008 5.10565C11.6505 4.01626 11.8408 2.90841 12.3645 1.98821C12.4978 1.75397 12.5645 1.63685 12.5683 1.56615C12.5751 1.43916 12.5166 1.33852 12.4029 1.28166C12.3395 1.25 12.2263 1.25 12 1.25ZM8 11.0001C7.44772 11.0001 7 11.4478 7 12.0001C7 12.5524 7.44772 13.0001 8 13.0001H8.00897C8.56126 13.0001 9.00897 12.5524 9.00897 12.0001C9.00897 11.4478 8.56126 11.0001 8.00897 11.0001H8ZM11.9955 11.0001C11.4432 11.0001 10.9955 11.4478 10.9955 12.0001C10.9955 12.5524 11.4432 13.0001 11.9955 13.0001H12.0045C12.5568 13.0001 13.0045 12.5524 13.0045 12.0001C13.0045 11.4478 12.5568 11.0001 12.0045 11.0001H11.9955Z" fill="#F84754"/>
</svg>
