<svg width="20" height="20" viewBox="0 0 20 20" fill="none" xmlns="http://www.w3.org/2000/svg">
<path fill-rule="evenodd" clip-rule="evenodd" d="M5.92449 1.17504C6.00728 1.23933 6.02072 1.35412 6.0476 1.58371L6.11417 2.15215L6.11813 2.17592C6.19474 2.63585 6.27183 3.09861 6.36669 3.41724C6.47065 3.76645 6.62757 4.09289 6.93005 4.34912C7.23253 4.60536 7.58031 4.70648 7.94187 4.75162C8.27744 4.79352 8.68986 4.79349 9.16403 4.79346H10.8355C11.3097 4.79349 11.7221 4.79352 12.0576 4.75162C12.4192 4.70648 12.767 4.60536 13.0695 4.34912C13.3719 4.09289 13.5289 3.76645 13.6328 3.41724C13.7281 3.09734 13.805 2.63581 13.8819 2.17417L13.8849 2.15606L13.9559 1.58111C13.9841 1.3529 13.9982 1.2388 14.0808 1.17506C14.1635 1.11132 14.273 1.1261 14.4919 1.15567L14.5379 1.16203C15.4075 1.2851 16.1211 1.54661 16.6821 2.13723C17.2389 2.72333 17.4816 3.4611 17.5965 4.36081C17.7083 5.23647 17.7083 6.35475 17.7083 7.7642V12.2394C17.7083 13.6488 17.7083 14.7671 17.5965 15.6428C17.4816 16.5425 17.2389 17.2803 16.6821 17.8664C16.1211 18.457 15.4075 18.7185 14.5379 18.8416C13.6999 18.9602 12.6322 18.9601 11.2986 18.9601H8.70136C7.3677 18.9601 6.30004 18.9602 5.462 18.8416C4.59241 18.7185 3.87886 18.457 3.31777 17.8664C2.76098 17.2803 2.51836 16.5425 2.40345 15.6428C2.29161 14.7671 2.29161 13.6488 2.29163 12.2394V7.76418C2.29161 6.35474 2.29161 5.23647 2.40345 4.36081C2.51836 3.4611 2.76098 2.72333 3.31777 2.13723C3.87886 1.54661 4.59241 1.2851 5.462 1.16203L5.51148 1.15521C5.73163 1.12558 5.8417 1.11076 5.92449 1.17504ZM6.66663 8.54199C6.32145 8.54199 6.04163 8.82181 6.04163 9.16699C6.04163 9.51217 6.32145 9.79199 6.66663 9.79199H13.3333C13.6785 9.79199 13.9583 9.51217 13.9583 9.16699C13.9583 8.82181 13.6785 8.54199 13.3333 8.54199H6.66663ZM6.66663 12.7087C6.32145 12.7087 6.04163 12.9885 6.04163 13.3337C6.04163 13.6788 6.32145 13.9587 6.66663 13.9587H9.99996C10.3451 13.9587 10.625 13.6788 10.625 13.3337C10.625 12.9885 10.3451 12.7087 9.99996 12.7087H6.66663Z" fill="#F84754"/>
<path d="M12.6939 1.6014C12.7257 1.34336 12.7417 1.21433 12.6675 1.13003C12.5934 1.04573 12.4642 1.04501 12.2059 1.04358C11.9182 1.04198 11.616 1.04199 11.2987 1.04199H8.70156C8.38511 1.04199 8.08362 1.04198 7.79664 1.04357C7.5397 1.04498 7.41124 1.04569 7.33716 1.12941C7.26309 1.21312 7.27812 1.34152 7.3082 1.59832L7.35409 1.99021C7.43846 2.49631 7.49401 2.82102 7.56489 3.0591C7.63149 3.28279 7.69098 3.35389 7.73818 3.39388C7.78539 3.43387 7.86531 3.48086 8.0969 3.50978C8.34581 3.54086 8.6793 3.54199 9.20108 3.54199H10.7988C11.3206 3.54199 11.654 3.54086 11.903 3.50978C12.1345 3.48086 12.2145 3.43387 12.2617 3.39388C12.3089 3.35389 12.3684 3.28279 12.435 3.0591C12.5059 2.82072 12.5615 2.49548 12.6461 1.98827L12.6939 1.6014Z" fill="#F84754"/>
</svg>
