<svg width="86" height="116" viewBox="0 0 86 116" fill="none" xmlns="http://www.w3.org/2000/svg">
<rect opacity="0.12" width="86" height="116" rx="43" fill="white"/>
<rect opacity="0.2" x="8" y="8" width="70" height="100" rx="35" fill="white"/>
<rect x="14" y="14" width="58" height="88" rx="29" fill="white"/>
<ellipse cx="30.5449" cy="86.541" rx="2" ry="1.5" fill="url(#paint0_linear_256_4965)"/>
<circle cx="34.5449" cy="83.041" r="1" fill="url(#paint1_linear_256_4965)"/>
<circle cx="37.0449" cy="85.541" r="0.5" transform="rotate(180 37.0449 85.541)" fill="url(#paint2_linear_256_4965)"/>
<circle cx="37.5449" cy="89.041" r="2" fill="url(#paint3_linear_256_4965)"/>
<g filter="url(#filter0_b_256_4965)">
<mask id="path-8-outside-1_256_4965" maskUnits="userSpaceOnUse" x="34.5449" y="42.041" width="20" height="42" fill="black">
<rect fill="white" x="34.5449" y="42.041" width="20" height="42"/>
<path fill-rule="evenodd" clip-rule="evenodd" d="M44.3142 43.041C41.8926 43.041 39.9295 45.0041 39.9295 47.4256V48.041V66.313C37.3032 67.8848 35.5449 70.7576 35.5449 74.041C35.5449 79.0116 39.5744 83.041 44.5449 83.041C49.5155 83.041 53.5449 79.0116 53.5449 74.041C53.5449 70.5688 51.5786 67.5558 48.6988 66.0548V48.041V47.4256C48.6988 45.0041 46.7357 43.041 44.3142 43.041Z"/>
</mask>
<path fill-rule="evenodd" clip-rule="evenodd" d="M44.3142 43.041C41.8926 43.041 39.9295 45.0041 39.9295 47.4256V48.041V66.313C37.3032 67.8848 35.5449 70.7576 35.5449 74.041C35.5449 79.0116 39.5744 83.041 44.5449 83.041C49.5155 83.041 53.5449 79.0116 53.5449 74.041C53.5449 70.5688 51.5786 67.5558 48.6988 66.0548V48.041V47.4256C48.6988 45.0041 46.7357 43.041 44.3142 43.041Z" fill="white" fill-opacity="0.24"/>
<path d="M39.9295 66.313L40.2377 66.8278L40.5295 66.6531V66.313H39.9295ZM48.6988 66.0548H48.0988V66.4187L48.4215 66.5869L48.6988 66.0548ZM40.5295 47.4256C40.5295 45.3354 42.224 43.641 44.3142 43.641V42.441C41.5612 42.441 39.3295 44.6727 39.3295 47.4256H40.5295ZM40.5295 48.041V47.4256H39.3295V48.041H40.5295ZM40.5295 66.313V48.041H39.3295V66.313H40.5295ZM36.1449 74.041C36.1449 70.9772 37.7848 68.2958 40.2377 66.8278L39.6214 65.7981C36.8215 67.4739 34.9449 70.538 34.9449 74.041H36.1449ZM44.5449 82.441C39.9057 82.441 36.1449 78.6802 36.1449 74.041H34.9449C34.9449 79.3429 39.243 83.641 44.5449 83.641V82.441ZM52.9449 74.041C52.9449 78.6802 49.1841 82.441 44.5449 82.441V83.641C49.8469 83.641 54.1449 79.3429 54.1449 74.041H52.9449ZM48.4215 66.5869C51.1108 67.9886 52.9449 70.8011 52.9449 74.041H54.1449C54.1449 70.3365 52.0464 67.123 48.9761 65.5228L48.4215 66.5869ZM48.0988 48.041V66.0548H49.2988V48.041H48.0988ZM48.0988 47.4256V48.041H49.2988V47.4256H48.0988ZM44.3142 43.641C46.4043 43.641 48.0988 45.3354 48.0988 47.4256H49.2988C49.2988 44.6727 47.0671 42.441 44.3142 42.441V43.641Z" fill="url(#paint4_linear_256_4965)" mask="url(#path-8-outside-1_256_4965)"/>
</g>
<circle cx="43.5449" cy="45.041" r="4" fill="white"/>
<path d="M42.1218 47.1571C42.1218 45.9464 43.1034 44.9648 44.3141 44.9648C45.5249 44.9648 46.5064 45.9464 46.5064 47.1572V69.3495H42.1218V47.1571Z" fill="white" fill-opacity="0.3"/>
<path fill-rule="evenodd" clip-rule="evenodd" d="M44.3141 44.9648C43.1034 44.9648 42.1218 45.9464 42.1218 47.1571V68.5509C40.0151 69.482 38.5449 71.5901 38.5449 74.0415C38.5449 77.3552 41.2312 80.0415 44.5449 80.0415C47.8586 80.0415 50.5449 77.3552 50.5449 74.0415C50.5449 71.4147 48.8569 69.1822 46.5064 68.3695V47.1572C46.5064 45.9464 45.5249 44.9648 44.3141 44.9648Z" fill="url(#paint5_linear_256_4965)"/>
<path d="M52.5063 46.041H55.4294" stroke="#F84754" stroke-width="0.6" stroke-linecap="round"/>
<path d="M52.5063 50.541H55.4294" stroke="#F84754" stroke-width="0.6" stroke-linecap="round"/>
<path d="M52.5063 55.041H55.4294" stroke="#F84754" stroke-width="0.6" stroke-linecap="round"/>
<path d="M52.5063 59.541H55.4294" stroke="#F84754" stroke-width="0.6" stroke-linecap="round"/>
<path d="M52.5063 64.041H55.4294" stroke="#F84754" stroke-width="0.6" stroke-linecap="round"/>
<path d="M34.6469 43.8549C34.9068 43.6145 24.2763 32.7088 24.2763 32.7088C24.1533 32.5921 23.9907 32.5262 23.8211 32.5243C23.6515 32.5225 23.4875 32.5848 23.362 32.6988C23.3 32.7532 23.2499 32.8197 23.2147 32.8943C23.1795 32.9688 23.1599 33.0497 23.1573 33.1321C23.1546 33.2145 23.1688 33.2966 23.1991 33.3732C23.2294 33.4499 23.2751 33.5195 23.3333 33.5778C23.3333 33.5778 34.3868 44.0938 34.6469 43.8549Z" fill="url(#paint6_linear_256_4965)"/>
<path d="M21.4263 31.6939C21.5494 31.8106 21.712 31.8765 21.8816 31.8783C22.0511 31.8802 22.2152 31.8179 22.3407 31.7038C22.4026 31.6495 22.4528 31.5829 22.488 31.5084C22.5232 31.4339 22.5427 31.3529 22.5454 31.2706C22.5481 31.1882 22.5339 31.1061 22.5036 31.0295C22.4733 30.9528 22.4276 30.8832 22.3693 30.8249C22.2461 30.7085 22.0836 30.6428 21.9141 30.641C21.7446 30.6391 21.5807 30.7012 21.455 30.8149C21.393 30.8693 21.3429 30.9358 21.3077 31.0103C21.2725 31.0849 21.2529 31.1658 21.2502 31.2482C21.2476 31.3306 21.2618 31.4126 21.2921 31.4893C21.3224 31.5659 21.3681 31.6356 21.4263 31.6939Z" fill="url(#paint7_linear_256_4965)"/>
<path d="M42.0187 40.3867C42.3753 40.3366 40.5805 25.4655 40.5805 25.4655C40.5463 25.3033 40.4518 25.1601 40.3162 25.0649C40.1805 24.9697 40.0137 24.9296 39.8495 24.9527C39.6854 24.9757 39.5361 25.0603 39.4319 25.1892C39.3277 25.3181 39.2764 25.4818 39.2883 25.6471C39.2883 25.6471 41.668 40.436 42.0187 40.3867Z" fill="url(#paint8_linear_256_4965)"/>
<path d="M38.9189 23.0392C38.9305 23.1695 38.9809 23.2932 39.0636 23.3946C39.1463 23.4959 39.2574 23.5701 39.3827 23.6076C39.508 23.6451 39.6417 23.6442 39.7664 23.605C39.8912 23.5657 40.0013 23.49 40.0826 23.3875C40.1639 23.2851 40.2126 23.1606 40.2224 23.0302C40.2322 22.8998 40.2027 22.7694 40.1376 22.656C40.0726 22.5425 39.975 22.4511 39.8576 22.3937C39.7401 22.3362 39.6081 22.3153 39.4786 22.3336C39.3109 22.3531 39.1577 22.4383 39.0528 22.5706C38.9478 22.7029 38.8997 22.8714 38.9189 23.0392Z" fill="url(#paint9_linear_256_4965)"/>
<path d="M50.0604 41.6879C50.3765 41.8474 58.1028 28.6891 58.1028 28.6891C58.1427 28.617 58.1674 28.5374 58.1754 28.4554C58.1834 28.3734 58.1745 28.2906 58.1492 28.2121C58.1239 28.1337 58.0828 28.0612 58.0284 27.9993C57.974 27.9374 57.9075 27.8873 57.833 27.852C57.6808 27.7774 57.5061 27.7629 57.3437 27.8114C57.1813 27.8599 57.0431 27.9678 56.9568 28.1137C56.9568 28.1137 49.7443 41.5285 50.0604 41.6879Z" fill="url(#paint10_linear_256_4965)"/>
<path d="M58.2707 25.7788C58.2308 25.8509 58.206 25.9305 58.1981 26.0125C58.1901 26.0945 58.199 26.1773 58.2243 26.2558C58.2496 26.3342 58.2907 26.4067 58.3451 26.4686C58.3995 26.5305 58.466 26.5806 58.5405 26.6158C58.6927 26.6905 58.8674 26.705 59.0298 26.6565C59.1922 26.608 59.3304 26.5001 59.4167 26.3542C59.4566 26.2821 59.4814 26.2026 59.4893 26.1206C59.4973 26.0385 59.4884 25.9557 59.4631 25.8773C59.4378 25.7988 59.3967 25.7264 59.3423 25.6645C59.2879 25.6026 59.2214 25.5524 59.1469 25.5172C58.9947 25.4429 58.8201 25.4286 58.6578 25.4771C58.4955 25.5255 58.3573 25.6333 58.2707 25.7788Z" fill="url(#paint11_linear_256_4965)"/>
<path d="M37.5299 43.7361C37.7928 43.5713 33.7869 37.2627 33.7869 37.2627C33.7003 37.1426 33.5711 37.0602 33.4258 37.0322C33.2804 37.0043 33.1298 37.033 33.0049 37.1124C32.9433 37.1493 32.8898 37.1984 32.8477 37.2566C32.8056 37.3148 32.7758 37.381 32.76 37.451C32.7443 37.5211 32.7429 37.5937 32.756 37.6643C32.7692 37.7349 32.7965 37.8022 32.8364 37.8619C32.8364 37.8619 37.2672 43.9024 37.5299 43.7361Z" fill="url(#paint12_linear_256_4965)"/>
<path d="M44.4017 41.9087C44.7078 41.922 45.3908 34.5253 45.3908 34.5253C45.3934 34.4529 45.3816 34.3808 45.356 34.3132C45.3303 34.2455 45.2914 34.1837 45.2415 34.1313C45.1916 34.0789 45.1317 34.037 45.0654 34.0081C44.9991 33.9792 44.9276 33.9638 44.8553 33.963C44.708 33.9546 44.5633 34.0039 44.4518 34.1006C44.3404 34.1972 44.271 34.3335 44.2585 34.4805C44.2585 34.4805 44.0895 41.8963 44.4017 41.9087Z" fill="url(#paint13_linear_256_4965)"/>
<path d="M36.0296 32.4971C36.3687 32.3764 35.4493 29.1367 35.4493 29.1367C35.3844 28.9799 35.261 28.8544 35.1053 28.7868C34.9496 28.7193 34.7737 28.7149 34.6148 28.7747C34.5358 28.8005 34.4628 28.8419 34.4001 28.8965C34.3375 28.951 34.2864 29.0176 34.2499 29.0922C34.2134 29.1669 34.1923 29.2481 34.1878 29.3311C34.1833 29.4141 34.1955 29.4971 34.2236 29.5753C34.2236 29.5753 35.6905 32.6178 36.0296 32.4971Z" fill="url(#paint14_linear_256_4965)"/>
<path d="M50.1263 31.8845C50.4709 31.9761 51.7306 28.8136 51.7306 28.8136C51.7548 28.7342 51.7623 28.6507 51.7527 28.5683C51.743 28.4859 51.7165 28.4063 51.6747 28.3346C51.6329 28.2629 51.5768 28.2006 51.5098 28.1517C51.4428 28.1027 51.3665 28.068 51.2855 28.0499C51.121 28.0051 50.9456 28.0252 50.7956 28.106C50.6455 28.1869 50.5322 28.3223 50.4792 28.4843C50.4792 28.4843 49.7802 31.7932 50.1263 31.8845Z" fill="url(#paint15_linear_256_4965)"/>
<defs>
<filter id="filter0_b_256_4965" x="25.9448" y="33.4414" width="37.2002" height="59.1992" filterUnits="userSpaceOnUse" color-interpolation-filters="sRGB">
<feFlood flood-opacity="0" result="BackgroundImageFix"/>
<feGaussianBlur in="BackgroundImageFix" stdDeviation="4.5"/>
<feComposite in2="SourceAlpha" operator="in" result="effect1_backgroundBlur_256_4965"/>
<feBlend mode="normal" in="SourceGraphic" in2="effect1_backgroundBlur_256_4965" result="shape"/>
</filter>
<linearGradient id="paint0_linear_256_4965" x1="30.5449" y1="85.041" x2="30.5449" y2="88.041" gradientUnits="userSpaceOnUse">
<stop stop-color="#F84754"/>
<stop offset="1" stop-color="#92163A"/>
</linearGradient>
<linearGradient id="paint1_linear_256_4965" x1="34.5449" y1="82.041" x2="34.5449" y2="84.041" gradientUnits="userSpaceOnUse">
<stop stop-color="#F84754"/>
<stop offset="1" stop-color="#92163A"/>
</linearGradient>
<linearGradient id="paint2_linear_256_4965" x1="37.0449" y1="85.041" x2="37.0449" y2="86.041" gradientUnits="userSpaceOnUse">
<stop stop-color="#F84754"/>
<stop offset="1" stop-color="#92163A"/>
</linearGradient>
<linearGradient id="paint3_linear_256_4965" x1="37.5449" y1="87.041" x2="37.5449" y2="91.041" gradientUnits="userSpaceOnUse">
<stop stop-color="#F84754"/>
<stop offset="1" stop-color="#92163A"/>
</linearGradient>
<linearGradient id="paint4_linear_256_4965" x1="44.5449" y1="43.041" x2="44.5449" y2="83.041" gradientUnits="userSpaceOnUse">
<stop stop-color="#F84754"/>
<stop offset="1" stop-color="#92163A"/>
</linearGradient>
<linearGradient id="paint5_linear_256_4965" x1="44.5449" y1="44.9648" x2="44.5449" y2="80.0415" gradientUnits="userSpaceOnUse">
<stop stop-color="#F84754"/>
<stop offset="1" stop-color="#92163A"/>
</linearGradient>
<linearGradient id="paint6_linear_256_4965" x1="29.7516" y1="44.5454" x2="27.9789" y2="31.9323" gradientUnits="userSpaceOnUse">
<stop stop-color="#F84754"/>
<stop offset="1" stop-color="#92163A"/>
</linearGradient>
<linearGradient id="paint7_linear_256_4965" x1="21.9839" y1="31.8716" x2="21.8119" y2="30.6476" gradientUnits="userSpaceOnUse">
<stop stop-color="#F84754"/>
<stop offset="1" stop-color="#92163A"/>
</linearGradient>
<linearGradient id="paint8_linear_256_4965" x1="42.0187" y1="40.3867" x2="39.8495" y2="24.9527" gradientUnits="userSpaceOnUse">
<stop stop-color="#F84754"/>
<stop offset="1" stop-color="#92163A"/>
</linearGradient>
<linearGradient id="paint9_linear_256_4965" x1="39.6613" y1="23.6287" x2="39.4792" y2="22.3334" gradientUnits="userSpaceOnUse">
<stop stop-color="#F84754"/>
<stop offset="1" stop-color="#92163A"/>
</linearGradient>
<linearGradient id="paint10_linear_256_4965" x1="54.9564" y1="41.0024" x2="53.1836" y2="28.3883" gradientUnits="userSpaceOnUse">
<stop stop-color="#F84754"/>
<stop offset="1" stop-color="#92163A"/>
</linearGradient>
<linearGradient id="paint11_linear_256_4965" x1="58.9297" y1="26.6783" x2="58.7578" y2="25.4553" gradientUnits="userSpaceOnUse">
<stop stop-color="#F84754"/>
<stop offset="1" stop-color="#92163A"/>
</linearGradient>
<linearGradient id="paint12_linear_256_4965" x1="35.6167" y1="44.0068" x2="34.6087" y2="36.8345" gradientUnits="userSpaceOnUse">
<stop stop-color="#F84754"/>
<stop offset="1" stop-color="#92163A"/>
</linearGradient>
<linearGradient id="paint13_linear_256_4965" x1="45.3747" y1="41.7723" x2="44.2868" y2="34.0318" gradientUnits="userSpaceOnUse">
<stop stop-color="#F84754"/>
<stop offset="1" stop-color="#92163A"/>
</linearGradient>
<linearGradient id="paint14_linear_256_4965" x1="35.405" y1="32.5861" x2="34.8622" y2="28.724" gradientUnits="userSpaceOnUse">
<stop stop-color="#F84754"/>
<stop offset="1" stop-color="#92163A"/>
</linearGradient>
<linearGradient id="paint15_linear_256_4965" x1="51.1236" y1="31.7491" x2="50.6094" y2="28.0905" gradientUnits="userSpaceOnUse">
<stop stop-color="#F84754"/>
<stop offset="1" stop-color="#92163A"/>
</linearGradient>
</defs>
</svg>
