<svg width="16" height="16" viewBox="0 0 16 16" fill="none" xmlns="http://www.w3.org/2000/svg">
<path d="M12.72 10.48C12.3267 8.12671 10.0667 6.21338 7.68002 6.21338C5.08669 6.21338 2.80669 8.31338 2.58669 10.9C2.50002 11.9 2.82002 12.8467 3.48002 13.56C4.13335 14.2734 5.05335 14.6667 6.05335 14.6667H9.17336C10.3 14.6667 11.2867 14.2267 11.96 13.4334C12.6334 12.64 12.9 11.5867 12.72 10.48Z" fill="#767676"/>
<path d="M6.85324 5.24016C7.93203 5.24016 8.80657 4.36563 8.80657 3.28683C8.80657 2.20803 7.93203 1.3335 6.85324 1.3335C5.77444 1.3335 4.8999 2.20803 4.8999 3.28683C4.8999 4.36563 5.77444 5.24016 6.85324 5.24016Z" fill="#767676"/>
<path d="M11.2932 6.01993C12.1916 6.01993 12.9198 5.29165 12.9198 4.39327C12.9198 3.49489 12.1916 2.7666 11.2932 2.7666C10.3948 2.7666 9.6665 3.49489 9.6665 4.39327C9.6665 5.29165 10.3948 6.01993 11.2932 6.01993Z" fill="#767676"/>
<path d="M13.6999 8.62002C14.4179 8.62002 14.9999 8.03799 14.9999 7.32002C14.9999 6.60205 14.4179 6.02002 13.6999 6.02002C12.9819 6.02002 12.3999 6.60205 12.3999 7.32002C12.3999 8.03799 12.9819 8.62002 13.6999 8.62002Z" fill="#767676"/>
<path d="M2.62667 7.32023C3.52505 7.32023 4.25333 6.59194 4.25333 5.69356C4.25333 4.79518 3.52505 4.06689 2.62667 4.06689C1.72828 4.06689 1 4.79518 1 5.69356C1 6.59194 1.72828 7.32023 2.62667 7.32023Z" fill="#767676"/>
</svg>
