<svg width="30" height="30" viewBox="0 0 30 30" fill="none" xmlns="http://www.w3.org/2000/svg">
<path fill-rule="evenodd" clip-rule="evenodd" d="M2.5 8.75C2.5 8.05964 3.05964 7.5 3.75 7.5H7.5C8.19036 7.5 8.75 8.05964 8.75 8.75C8.75 9.44036 8.19036 10 7.5 10H3.75C3.05964 10 2.5 9.44036 2.5 8.75Z" fill="#767676"/>
<path fill-rule="evenodd" clip-rule="evenodd" d="M2.5 21.25C2.5 20.5596 3.05964 20 3.75 20H11.25C11.9404 20 12.5 20.5596 12.5 21.25C12.5 21.9404 11.9404 22.5 11.25 22.5H3.75C3.05964 22.5 2.5 21.9404 2.5 21.25Z" fill="#767676"/>
<path fill-rule="evenodd" clip-rule="evenodd" d="M21.25 21.25C21.25 20.5596 21.8096 20 22.5 20L26.25 20C26.9404 20 27.5 20.5596 27.5 21.25C27.5 21.9404 26.9404 22.5 26.25 22.5L22.5 22.5C21.8096 22.5 21.25 21.9404 21.25 21.25Z" fill="#767676"/>
<path fill-rule="evenodd" clip-rule="evenodd" d="M17.5 8.75C17.5 8.05964 18.0596 7.5 18.75 7.5L26.25 7.5C26.9404 7.5 27.5 8.05964 27.5 8.75C27.5 9.44036 26.9404 10 26.25 10L18.75 10C18.0596 10 17.5 9.44036 17.5 8.75Z" fill="#767676"/>
<path fill-rule="evenodd" clip-rule="evenodd" d="M11.2184 4.0625H11.2816C11.8371 4.06249 12.3009 4.06248 12.6817 4.08846C13.0781 4.11551 13.4525 4.17381 13.8155 4.32416C14.6578 4.67305 15.327 5.34224 15.6758 6.18453C15.8262 6.54751 15.8845 6.92192 15.9115 7.3183C15.9375 7.69906 15.9375 8.16285 15.9375 8.71843V8.78157C15.9375 9.33715 15.9375 9.80094 15.9115 10.1817C15.8845 10.5781 15.8262 10.9525 15.6758 11.3155C15.327 12.1578 14.6578 12.827 13.8155 13.1758C13.4525 13.3262 13.0781 13.3845 12.6817 13.4115C12.3009 13.4375 11.8371 13.4375 11.2816 13.4375H11.2184C10.6629 13.4375 10.1991 13.4375 9.8183 13.4115C9.42192 13.3845 9.04751 13.3262 8.68453 13.1758C7.84224 12.827 7.17305 12.1578 6.82416 11.3155C6.67381 10.9525 6.61551 10.5781 6.58846 10.1817C6.56248 9.80094 6.56249 9.33714 6.5625 8.78156V8.71844C6.56249 8.16286 6.56248 7.69906 6.58846 7.31829C6.61551 6.92192 6.67381 6.54751 6.82416 6.18453C7.17305 5.34224 7.84224 4.67305 8.68453 4.32416C9.04751 4.17381 9.42192 4.11551 9.81829 4.08846C10.1991 4.06248 10.6629 4.06249 11.2184 4.0625Z" fill="#767676"/>
<path fill-rule="evenodd" clip-rule="evenodd" d="M18.7184 16.5625H18.7816C19.3371 16.5625 19.8009 16.5625 20.1817 16.5885C20.5781 16.6155 20.9525 16.6738 21.3155 16.8242C22.1578 17.1731 22.827 17.8422 23.1758 18.6845C23.3262 19.0475 23.3845 19.4219 23.4115 19.8183C23.4375 20.1991 23.4375 20.6629 23.4375 21.2184V21.2816C23.4375 21.8371 23.4375 22.3009 23.4115 22.6817C23.3845 23.0781 23.3262 23.4525 23.1758 23.8155C22.827 24.6578 22.1578 25.327 21.3155 25.6758C20.9525 25.8262 20.5781 25.8845 20.1817 25.9115C19.8009 25.9375 19.3371 25.9375 18.7816 25.9375H18.7184C18.1629 25.9375 17.6991 25.9375 17.3183 25.9115C16.9219 25.8845 16.5475 25.8262 16.1845 25.6758C15.3422 25.327 14.6731 24.6578 14.3242 23.8155C14.1738 23.4525 14.1155 23.0781 14.0885 22.6817C14.0625 22.3009 14.0625 21.8371 14.0625 21.2816V21.2184C14.0625 20.6629 14.0625 20.1991 14.0885 19.8183C14.1155 19.4219 14.1738 19.0475 14.3242 18.6845C14.6731 17.8422 15.3422 17.1731 16.1845 16.8242C16.5475 16.6738 16.9219 16.6155 17.3183 16.5885C17.6991 16.5625 18.1629 16.5625 18.7184 16.5625Z" fill="#767676"/>
</svg>
