<svg width="20" height="20" viewBox="0 0 20 20" fill="none" xmlns="http://www.w3.org/2000/svg">
<path fill-rule="evenodd" clip-rule="evenodd" d="M1.04175 10.0003C1.04175 14.9479 5.05253 18.9587 10.0001 18.9587C14.9476 18.9587 18.9584 14.9479 18.9584 10.0003C18.9584 5.05277 14.9476 1.04199 10.0001 1.04199C5.05253 1.04199 1.04175 5.05277 1.04175 10.0003ZM9.73498 9.1897C9.94086 9.21738 10.2256 9.29148 10.4673 9.53314C10.709 9.7748 10.783 10.0596 10.8107 10.2654C10.8337 10.436 10.8335 10.6343 10.8334 10.8009L10.8334 10.8337V14.167C10.8334 14.6273 10.4603 15.0004 10.0001 15.0004C9.53984 15.0004 9.16675 14.6273 9.16675 14.167V10.8337C8.70651 10.8337 8.33342 10.4606 8.33342 10.0004C8.33342 9.54012 8.70651 9.16702 9.16675 9.16702L9.19957 9.16701C9.36613 9.1669 9.56444 9.16677 9.73498 9.1897ZM9.99628 5.83366C9.5381 5.83366 9.16668 6.20675 9.16668 6.66699C9.16668 7.12723 9.5381 7.50032 9.99628 7.50032H10.0037C10.4619 7.50032 10.8333 7.12723 10.8333 6.66699C10.8333 6.20675 10.4619 5.83366 10.0037 5.83366H9.99628Z" fill="#767676"/>
</svg>
