<svg width="20" height="20" viewBox="0 0 20 20" fill="none" xmlns="http://www.w3.org/2000/svg">
<path d="M3.27317 7.73113C3.2732 4.03492 6.28678 1.04199 9.99996 1.04199C13.7132 1.04199 16.7267 4.03495 16.7267 7.73118C16.7268 8.59098 16.7846 9.2398 17.1811 9.82305C17.2362 9.90296 17.3093 10.003 17.3892 10.1124C17.528 10.3024 17.6872 10.5203 17.808 10.7091C18.0212 11.0422 18.2295 11.444 18.3011 11.9121C18.5347 13.4395 17.4578 14.4284 16.3854 14.8715C12.6082 16.4322 7.39176 16.4322 3.61451 14.8715C2.54209 14.4284 1.46526 13.4395 1.69886 11.9121C1.77045 11.444 1.97873 11.0422 2.1919 10.7091C2.31269 10.5203 2.47192 10.3024 2.61071 10.1124C2.69063 10.003 2.76376 9.9029 2.81888 9.82298C3.21528 9.23977 3.2731 8.59087 3.27317 7.73113Z" fill="#F84754"/>
<path fill-rule="evenodd" clip-rule="evenodd" d="M6.45276 14.8202C6.89756 14.7019 7.35396 14.9667 7.47217 15.4115C7.75541 16.4773 8.76718 17.2922 10.0001 17.2922C11.2331 17.2922 12.2448 16.4773 12.5281 15.4115C12.6463 14.9667 13.1027 14.7019 13.5475 14.8202C13.9923 14.9384 14.257 15.3948 14.1388 15.8396C13.6579 17.6491 11.9746 18.9589 10.0001 18.9589C8.02562 18.9589 6.34231 17.6491 5.86141 15.8396C5.74321 15.3948 6.00796 14.9384 6.45276 14.8202Z" fill="#F84754"/>
</svg>
