<svg width="36" height="36" viewBox="0 0 36 36" fill="none" xmlns="http://www.w3.org/2000/svg">
<path fill-rule="evenodd" clip-rule="evenodd" d="M29.8258 6.17417C30.5581 6.90641 30.5581 8.09359 29.8258 8.82583L8.82583 29.8258C8.09359 30.5581 6.90641 30.5581 6.17417 29.8258C5.44194 29.0936 5.44194 27.9064 6.17417 27.1742L27.1742 6.17417C27.9064 5.44194 29.0936 5.44194 29.8258 6.17417Z" fill="#767676"/>
<path fill-rule="evenodd" clip-rule="evenodd" d="M6.17417 6.17417C6.90641 5.44194 8.09359 5.44194 8.82583 6.17417L29.8258 27.1742C30.5581 27.9064 30.5581 29.0936 29.8258 29.8258C29.0936 30.5581 27.9064 30.5581 27.1742 29.8258L6.17417 8.82583C5.44194 8.09359 5.44194 6.90641 6.17417 6.17417Z" fill="#767676"/>
</svg>
