<svg width="20" height="20" viewBox="0 0 20 20" fill="none" xmlns="http://www.w3.org/2000/svg">
<path fill-rule="evenodd" clip-rule="evenodd" d="M9.9992 1.04199C8.59814 1.04199 7.45911 1.51528 6.46567 2.02995C6.16546 2.18548 5.88657 2.33933 5.62006 2.48634C4.96802 2.84604 4.39012 3.16483 3.75548 3.36732C3.38275 3.48624 3.05256 3.59159 2.81845 3.68332C2.5981 3.76967 2.33623 3.88799 2.15043 4.09449C1.98353 4.27998 1.89778 4.48822 1.84093 4.68741C1.78932 4.86822 1.74521 5.11302 1.70289 5.34787C0.671273 11.0693 2.9271 16.4895 8.43581 18.5986C8.97728 18.8059 9.37604 18.9587 10.0019 18.9587C10.6278 18.9587 11.0266 18.8059 11.568 18.5986C17.0766 16.4894 19.3301 11.069 18.2983 5.34783L18.2982 5.34773C18.2559 5.11288 18.2118 4.86807 18.1602 4.68727C18.1033 4.48807 18.0175 4.2798 17.8506 4.09431C17.6648 3.88782 17.4029 3.76953 17.1825 3.68321C16.9484 3.5915 16.6183 3.48622 16.2455 3.36736C15.6105 3.16486 15.0322 2.84599 14.3796 2.48623L14.3796 2.4862C14.113 2.33922 13.834 2.18542 13.5337 2.02994C12.5398 1.51529 11.4003 1.04199 9.9992 1.04199ZM14.4449 8.28608C14.8787 8.13243 15.1058 7.65618 14.9522 7.22235C14.7985 6.78851 14.3223 6.56138 13.8885 6.71503C13.1567 6.9742 12.4572 7.46848 11.8433 8.00683C11.2208 8.55276 10.6388 9.18657 10.1444 9.77923C9.77833 10.2181 9.45464 10.6411 9.192 11.0001C8.95136 10.7119 8.71165 10.5012 8.48308 10.3488C8.25442 10.1964 7.96024 10.0006 7.5 10.0006C7.03976 10.0006 6.66667 10.3736 6.66667 10.8339C6.66667 11.2678 6.99833 11.6243 7.42198 11.6636C7.59202 11.6794 8.05407 12.1388 8.42131 12.8732C8.55563 13.1419 8.82411 13.3174 9.12405 13.3328C9.42393 13.3482 9.70899 13.2008 9.87006 12.9474C9.87006 12.9474 10.1602 12.512 10.2978 12.3171C10.5737 11.9262 10.9644 11.3981 11.4242 10.8469C11.8857 10.2937 12.4066 9.7296 12.9422 9.2599C13.4865 8.78262 14.0002 8.44357 14.4449 8.28608Z" fill="#F84754"/>
</svg>
