<svg width="16" height="16" viewBox="0 0 16 16" fill="none" xmlns="http://www.w3.org/2000/svg">
<path fill-rule="evenodd" clip-rule="evenodd" d="M8.00103 0.833496C5.45025 0.833496 3.0167 2.34218 1.99809 4.72328C1.05012 6.93926 1.56331 8.82504 2.63181 10.4399C3.50785 11.7638 4.78556 12.9454 5.93827 14.0113L5.93828 14.0114L5.93829 14.0114L5.93854 14.0116C6.15827 14.2148 6.37345 14.4138 6.58044 14.6088L6.58154 14.6098C6.96489 14.9687 7.4741 15.1668 8.00103 15.1668C8.52795 15.1668 9.03719 14.9687 9.42054 14.6098C9.61624 14.4265 9.81908 14.2396 10.026 14.0489L10.026 14.0489C11.1913 12.9753 12.4869 11.7815 13.3722 10.4407C14.4394 8.82428 14.9508 6.93652 14.004 4.72328C12.9854 2.34218 10.5518 0.833496 8.00103 0.833496ZM8 4.66683C6.52724 4.66683 5.33333 5.86074 5.33333 7.3335C5.33333 8.80626 6.52724 10.0002 8 10.0002C9.47276 10.0002 10.6667 8.80626 10.6667 7.3335C10.6667 5.86074 9.47276 4.66683 8 4.66683Z" fill="#ECECEC"/>
</svg>
