<svg width="157" height="116" viewBox="0 0 157 116" fill="none" xmlns="http://www.w3.org/2000/svg">
<g clip-path="url(#clip0_114_1415)">
<path d="M112.284 35.148L118.099 19.285C120.977 11.4127 126.293 4.65842 133.276 0C123.622 0.148741 114.26 3.32373 106.516 9.07513C98.7725 14.8265 93.0396 22.8627 90.1296 32.045L72.22 83.201L57.9446 43.094C55.6437 35.9304 52.3977 29.1038 48.292 22.794C38.5232 7.859 25.5561 0 10.8737 0H0V115.826C2.8436 115.818 5.65834 115.257 8.28611 114.173C10.9078 113.093 13.2892 111.506 15.293 109.504C17.3165 107.501 18.918 105.115 20.003 102.486C21.0804 99.8631 21.6335 97.0555 21.6311 94.221V25.23C24.9224 27.6803 27.7399 30.7068 29.9463 34.162C33.0563 38.8543 35.5114 43.947 37.2439 49.3V49.59L58.9622 110.49C59.5231 111.998 60.5389 113.294 61.8696 114.202C63.1568 115.126 64.7028 115.624 66.2889 115.623H78.1802C79.7829 115.623 81.3459 115.126 82.6533 114.201C83.9606 113.277 84.9476 111.97 85.4778 110.461L101.091 66.41C101.091 66.41 111.237 37.7 111.47 36.946C111.686 36.3232 111.958 35.7213 112.284 35.148Z" fill="white"/>
<g clip-path="url(#clip1_114_1415)">
<path fill-rule="evenodd" clip-rule="evenodd" d="M148.278 60.9V79.054C151.358 81.1985 153.784 84.1517 155.286 87.5866C156.787 91.0214 157.307 94.8039 156.786 98.5149C156.265 102.226 154.725 105.721 152.335 108.612C149.946 111.504 146.8 113.68 143.248 114.898C141.127 115.637 138.895 116.009 136.648 116C132.147 116.013 127.773 114.511 124.233 111.737C121.711 109.79 119.683 107.278 118.312 104.405C116.942 101.532 116.268 98.3782 116.344 95.1976C116.421 92.017 117.245 88.8988 118.752 86.0946C120.259 83.2903 122.405 80.8786 125.018 79.054V23.2C125.018 17.047 127.469 11.146 131.831 6.79512C136.193 2.44428 142.109 0 148.278 0V20.3H142.463C142.237 20.3022 142.016 20.3556 141.814 20.4561C141.613 20.5566 141.437 20.7015 141.3 20.88C141.113 21.1319 141.011 21.4366 141.009 21.75C141.009 22.1346 141.162 22.5034 141.435 22.7753C141.707 23.0472 142.077 23.2 142.463 23.2H148.278V29H142.463C142.077 29 141.707 29.1528 141.435 29.4247C141.162 29.6966 141.009 30.0654 141.009 30.45C141.009 30.8346 141.162 31.2034 141.435 31.4753C141.707 31.7472 142.077 31.9 142.463 31.9H148.278V37.7H142.463C142.077 37.7 141.707 37.8528 141.435 38.1247C141.162 38.3966 141.009 38.7654 141.009 39.15C141.009 39.5346 141.162 39.9034 141.435 40.1753C141.707 40.4472 142.077 40.6 142.463 40.6H148.278V58H142.463C142.077 58 141.707 58.1528 141.435 58.4247C141.162 58.6966 141.009 59.0654 141.009 59.45C141.009 59.8346 141.162 60.2034 141.435 60.4753C141.707 60.7472 142.077 60.9 142.463 60.9H148.278ZM133.504 17.0515C134.318 15.1038 135.516 13.3388 137.026 11.861C137.026 10.349 137.322 8.85159 137.898 7.453C135.281 9.16838 133.133 11.5054 131.646 14.254C130.159 17.0027 129.38 20.0768 129.379 23.2V79.779C129.001 79.953 128.624 80.127 128.275 80.33C127.809 80.6007 127.344 80.8907 126.879 81.2L125.367 82.447L125.018 82.766L123.768 83.607C123.367 84.0014 122.989 84.4177 122.634 84.854C122.28 85.2795 121.949 85.7249 121.646 86.188C121.326 86.652 120.919 87.29 120.744 87.638C120.71 87.7067 120.674 87.7765 120.638 87.8472C120.492 88.1348 120.338 88.4374 120.221 88.74C120.21 88.8267 120.21 88.9143 120.221 89.001C120.131 89.1891 120.053 89.3829 119.989 89.581C119.842 89.8782 119.725 90.189 119.64 90.509C119.46 91.0209 119.314 91.544 119.204 92.075C119.19 92.2681 119.19 92.4619 119.204 92.655V92.945C119.19 93.0606 119.19 93.1774 119.204 93.293V94.308V95.7C119.206 99.7186 120.603 103.612 123.158 106.72C123.177 105.359 123.443 104.013 123.943 102.747C123.76 102.427 123.596 102.098 123.448 101.761C123.278 101.424 123.133 101.075 123.012 100.717C122.87 100.358 122.753 99.9902 122.663 99.615C122.287 98.3442 122.101 97.025 122.111 95.7C122.096 92.5602 123.118 89.5029 125.018 87C125.311 86.5564 125.642 86.1391 126.007 85.753C126.804 84.8751 127.713 84.105 128.711 83.462H128.885C129.234 83.23 129.612 83.027 129.99 82.824C130.727 82.4401 131.495 82.1199 132.287 81.867V23.2C132.276 21.0899 132.69 18.9991 133.504 17.0515ZM130.834 98.5999C132.439 98.5999 133.741 97.3016 133.741 95.6999C133.741 94.0983 132.439 92.7999 130.834 92.7999C129.228 92.7999 127.926 94.0983 127.926 95.6999C127.926 97.3016 129.228 98.5999 130.834 98.5999Z" fill="white"/>
</g>
</g>
<defs>
<clipPath id="clip0_114_1415">
<rect width="157" height="116" fill="white"/>
</clipPath>
<clipPath id="clip1_114_1415">
<rect width="40.7037" height="116" fill="white" transform="translate(116.296)"/>
</clipPath>
</defs>
</svg>
