<svg width="20" height="20" viewBox="0 0 20 20" fill="none" xmlns="http://www.w3.org/2000/svg">
<path d="M9.58334 1.6665C5.17501 1.87436 1.66667 5.36219 1.66667 9.63366C1.66667 11.7502 2.52778 13.6734 3.93241 15.1005C4.24167 15.4148 4.44815 15.8441 4.36482 16.2859C4.22729 17.0084 3.91562 17.6823 3.45926 18.2439C4.65997 18.4674 5.90845 18.2662 6.97916 17.6965C7.35765 17.4951 7.5469 17.3944 7.68044 17.3739C7.81399 17.3535 8.00528 17.3895 8.38785 17.4614C8.91937 17.5613 9.45891 17.6113 10 17.6106C14.6019 17.6106 18.3333 14.0389 18.3333 9.63366C18.3333 9.47502 18.3285 9.31746 18.319 9.16112" stroke="#F84754" stroke-width="1.5" stroke-linecap="round" stroke-linejoin="round"/>
<path d="M12.5125 1.98868C13.4064 1.45561 14.1865 1.67043 14.6552 2.01262C14.8474 2.15293 14.9435 2.22308 15 2.22308C15.0565 2.22308 15.1526 2.15293 15.3448 2.01262C15.8135 1.67043 16.5936 1.45561 17.4875 1.98868C18.6606 2.68829 18.9261 4.99632 16.2202 6.94352C15.7048 7.3144 15.4471 7.49984 15 7.49984C14.5529 7.49984 14.2952 7.3144 13.7798 6.94352C11.0739 4.99632 11.3394 2.68829 12.5125 1.98868Z" stroke="#F84754" stroke-width="1.5" stroke-linecap="round"/>
<path d="M9.99627 10H10.0037M13.3259 10H13.3333M6.66667 10H6.67415" stroke="#F84754" stroke-width="2" stroke-linecap="round" stroke-linejoin="round"/>
</svg>
