<svg width="121" height="120" viewBox="0 0 121 120" fill="none" xmlns="http://www.w3.org/2000/svg">
<circle cx="60.5" cy="60" r="60" fill="#FFF2F3"/>
<path opacity="0.6" d="M36.4247 43.9836C42.5255 40.7017 47.9985 42.0096 51.3048 44.1872C51.8488 44.5454 52.2221 44.7906 52.5 44.9562C52.7779 44.7906 53.1512 44.5454 53.6952 44.1872C57.0015 42.0096 62.4745 40.7017 68.5754 43.9836C72.7939 46.2529 75.1675 50.9932 74.3346 56.4397C73.4977 61.9125 69.4586 68.1022 60.9046 73.6548C57.9343 75.5841 55.7542 77 52.5 77C49.2458 77 47.0657 75.584 44.0954 73.6548C35.5414 68.1022 31.5023 61.9125 30.6654 56.4397C29.8325 50.9932 32.2061 46.2529 36.4247 43.9836Z" fill="#92163A"/>
<path d="M88.8875 62.9885V62.9688C87.1458 61.1281 84.7115 60 82 60C76.7552 60 72.5 64.2552 72.5 69.5C72.5 71.9344 73.4302 74.151 74.9344 75.8333C76.676 77.7729 79.1896 79 82 79C87.2448 79 91.5 74.7448 91.5 69.5C91.5 66.9865 90.5104 64.6906 88.8875 62.9885ZM85.5427 71.1031H83.4844V73.2604C83.4844 74.0719 82.8115 74.7448 82 74.7448C81.1885 74.7448 80.5156 74.0719 80.5156 73.2604V71.1031H78.4573C77.626 71.1031 76.9729 70.45 76.9729 69.6188C76.9729 68.8073 77.6062 68.1542 78.4375 68.1344H80.5156V66.1552C80.5156 66.1156 80.5156 66.076 80.5354 66.0365C80.575 65.2844 81.2281 64.6708 82 64.6708C82.7917 64.6708 83.4448 65.3042 83.4844 66.0958V68.1344H85.5427C86.374 68.1344 87.0271 68.8073 87.0271 69.6188C87.0271 70.45 86.374 71.1031 85.5427 71.1031Z" fill="#92163A"/>
<path d="M88.9293 60.6443L88.9293 60.6444L88.9403 60.6524C89.7243 61.2257 91.0872 61.0706 91.4428 59.8598C92.1139 57.7556 92.5 55.486 92.5 53.0348C92.5 46.3991 87.2129 41 80.658 41C77.2449 41 74.1547 42.4839 72 44.8323C69.8453 42.4839 66.7551 41 63.342 41C56.7871 41 51.5 46.3991 51.5 53.0348C51.5 55.49 51.8874 57.763 52.5605 59.8701C54.1715 65.0284 57.447 69.1183 60.8892 72.1131C64.3231 75.1007 67.9785 77.0472 70.4562 77.9023C70.8091 78.03 71.1939 78.0378 71.5527 77.8946C71.9049 77.7542 72.1577 77.4984 72.3152 77.2254C72.6219 76.694 72.6316 76.0027 72.3071 75.4253C71.3569 73.7185 70.855 71.7942 70.855 69.8337C70.855 63.5246 75.9373 58.3974 82.14 58.3974C84.5997 58.3974 86.9811 59.1787 88.9293 60.6443Z" fill="#92163A" stroke="#FFF2F3" stroke-width="2"/>
</svg>
