<svg width="121" height="120" viewBox="0 0 121 120" fill="none" xmlns="http://www.w3.org/2000/svg">
<circle cx="60.5" cy="60" r="60" fill="#FFF2F3"/>
<path fill-rule="evenodd" clip-rule="evenodd" d="M76.5 31.333C69.6241 31.333 63.8333 37.0668 63.8333 44.0439C63.8333 51.2111 69.7711 55.8725 74.3392 58.7357L74.3736 58.7573L74.4089 58.7774C75.0456 59.1413 75.7663 59.333 76.5 59.333C77.2337 59.333 77.9544 59.1413 78.5911 58.7774L78.6219 58.7598L78.652 58.7412C83.2461 55.8948 89.1666 51.1873 89.1666 44.0439C89.1666 37.0668 83.3758 31.333 76.5 31.333ZM76.4791 39.333C73.9133 39.333 71.8333 41.4223 71.8333 43.9997C71.8333 46.577 73.9133 48.6663 76.4791 48.6663H76.5208C79.0866 48.6663 81.1666 46.577 81.1666 43.9997C81.1666 41.4223 79.0866 39.333 76.5208 39.333H76.4791Z" fill="#92163A"/>
<path d="M31.8333 78.666C31.8333 73.1432 36.3105 68.666 41.8333 68.666C47.3562 68.666 51.8333 73.1432 51.8333 78.666C51.8333 84.1889 47.3562 88.666 41.8333 88.666C36.3105 88.666 31.8333 84.1889 31.8333 78.666Z" fill="#92163A"/>
<path fill-rule="evenodd" clip-rule="evenodd" d="M41.8333 54.6667C41.8333 48.4048 47.6064 44 53.8333 44H57.8333C59.3061 44 60.5 45.1939 60.5 46.6667C60.5 48.1394 59.3061 49.3333 57.8333 49.3333H53.8333C49.7509 49.3333 47.1666 52.092 47.1666 54.6667C47.1666 57.2413 49.7509 60 53.8333 60H61.8333C68.0603 60 73.8333 64.4048 73.8333 70.6667C73.8333 76.9285 68.0603 81.3333 61.8333 81.3333H57.8333C56.3606 81.3333 55.1666 80.1394 55.1666 78.6667C55.1666 77.1939 56.3606 76 57.8333 76H61.8333C65.9157 76 68.5 73.2413 68.5 70.6667C68.5 68.092 65.9157 65.3333 61.8333 65.3333H53.8333C47.6064 65.3333 41.8333 60.9285 41.8333 54.6667Z" fill="#92163A"/>
</svg>
