<svg width="20" height="20" viewBox="0 0 20 20" fill="none" xmlns="http://www.w3.org/2000/svg">
<path d="M12.3188 4.33047L4.79375 6.83047C-0.264583 8.52214 -0.264583 11.2805 4.79375 12.9638L7.02708 13.7055L7.76875 15.9388C9.45208 20.9971 12.2188 20.9971 13.9021 15.9388L16.4104 8.42214C17.5271 5.04714 15.6938 3.20547 12.3188 4.33047ZM12.5854 8.81381L9.41875 11.9971C9.29375 12.1221 9.13542 12.1805 8.97708 12.1805C8.81875 12.1805 8.66042 12.1221 8.53542 11.9971C8.29375 11.7555 8.29375 11.3555 8.53542 11.1138L11.7021 7.93047C11.9438 7.68881 12.3438 7.68881 12.5854 7.93047C12.8271 8.17214 12.8271 8.57214 12.5854 8.81381Z" fill="white"/>
</svg>
