<svg width="20" height="22" viewBox="0 0 20 22" fill="none" xmlns="http://www.w3.org/2000/svg">
<path d="M10 1C7.61305 1 5.32387 1.84285 3.63604 3.34315C1.94821 4.84344 1 6.87827 1 9C1 10.892 1.45225 12.13 2.6875 13.5L10 21L17.3125 13.5C18.5478 12.13 19 10.892 19 9C19 6.87827 18.0518 4.84344 16.364 3.34315C14.6761 1.84285 12.3869 1 10 1Z" stroke="#DF3C4E" stroke-width="2" stroke-linecap="round" stroke-linejoin="round"/>
<path d="M9.82978 6.56684L10.0018 6.73002L10.1739 6.56684C10.7726 5.99896 11.5483 5.70813 12.3366 5.74966C13.1249 5.7912 13.8719 6.16244 14.4178 6.79187C14.964 7.42176 15.2636 8.25954 15.2501 9.12966C15.2365 9.99986 14.9109 10.8271 14.3459 11.4364L14.3457 11.4365L11.5661 14.4385L11.566 14.4385L10.0008 16.1279L6.31136 12.1439L6.31121 12.1438L5.657 11.4361L5.65676 11.4358C5.09163 10.8262 4.76493 9.9995 4.75153 9.1297C4.73813 8.25989 5.0392 7.42156 5.5856 6.7916C6.13143 6.16229 6.87841 5.79114 7.66673 5.74965C8.45494 5.70817 9.23114 5.99904 9.82978 6.56684Z" fill="#DF3C4E" stroke="white" stroke-width="0.5"/>
</svg>
