<svg width="117" height="116" viewBox="0 0 117 116" fill="none" xmlns="http://www.w3.org/2000/svg">
<circle cx="58.5" cy="58" r="57" fill="#282828" stroke="#F84754" stroke-width="2"/>
<circle cx="58.5001" cy="58.0002" r="44.8" fill="#282828"/>
<circle cx="57.5667" cy="58.0002" r="43.8" fill="#282828" stroke="#F84754" stroke-width="2"/>
<path d="M70.9992 33.025C72.738 31.7884 75.5439 31.1097 78.5798 32.9202C80.8441 34.2705 82.0178 37.0249 81.6038 40.026C81.1866 43.0497 79.2013 46.295 75.2793 49.1173C74.0329 50.0166 72.7571 50.9372 70.9992 50.9372C69.2413 50.9372 67.9655 50.0166 66.7191 49.1173C62.7971 46.295 60.8117 43.0497 60.3946 40.026C59.9806 37.0249 61.1543 34.2705 63.4185 32.9202C66.4545 31.1097 69.2603 31.7884 70.9992 33.025Z" fill="#F84754"/>
<path fill-rule="evenodd" clip-rule="evenodd" d="M57.5 31.8115C44.2143 31.8115 33.3125 42.1354 33.3125 55.0241C33.3125 61.2064 35.8319 66.8138 39.9152 70.9601C40.5176 71.5719 40.7136 72.199 40.627 72.6607C40.3069 74.3395 39.5832 75.8991 38.5306 77.1937C38.155 77.6557 38.0507 78.2814 38.256 78.8402C38.4614 79.3991 38.9461 79.8084 39.5314 79.9173C43.1564 80.5915 46.9147 79.9839 50.1361 78.2708C50.6615 77.9914 51.0048 77.8093 51.2624 77.6869C51.3334 77.6483 51.5225 77.5782 51.7107 77.607C51.963 77.6416 52.302 77.7048 52.8357 77.8051C54.3733 78.0938 55.9343 78.2386 57.5 78.2367C70.7857 78.2367 81.6875 67.9129 81.6875 55.0241C81.6875 53.6758 81.5682 52.3556 81.3393 51.0723C81.1621 50.0785 81.0735 49.5816 80.7025 49.4508C80.3314 49.32 79.9145 49.6832 79.0807 50.4094C78.5098 50.9066 77.9001 51.3892 77.2525 51.8553C76.0817 52.7048 73.8668 54.3117 70.9997 54.3117C68.6028 54.3117 65.831 52.673 64.7447 51.8537C60.2879 48.6457 57.6269 44.6561 57.0518 40.4867C56.7136 38.0356 57.1418 35.5429 58.3201 33.4725C58.6201 32.9455 58.7701 32.6819 58.7786 32.5229C58.794 32.2371 58.6624 32.0107 58.4064 31.8827C58.2639 31.8115 58.0093 31.8115 57.5 31.8115ZM48.5 53.7493C47.2574 53.7493 46.25 54.7566 46.25 55.9993C46.25 57.2419 47.2574 58.2493 48.5 58.2493H48.5202C49.7628 58.2493 50.7702 57.2419 50.7702 55.9993C50.7702 54.7566 49.7628 53.7493 48.5202 53.7493H48.5ZM57.4899 53.7493C56.2473 53.7493 55.2399 54.7566 55.2399 55.9993C55.2399 57.2419 56.2473 58.2493 57.4899 58.2493H57.5101C58.7527 58.2493 59.7601 57.2419 59.7601 55.9993C59.7601 54.7566 58.7527 53.7493 57.5101 53.7493H57.4899Z" fill="#F84754"/>
</svg>
