<svg width="91" height="201" viewBox="0 0 91 201" fill="none" xmlns="http://www.w3.org/2000/svg">
<g filter="url(#filter0_b_541_2577)">
<mask id="path-1-outside-1_541_2577" maskUnits="userSpaceOnUse" x="-0.00585938" y="0.560547" width="91" height="201" fill="black">
<rect fill="white" x="-0.00585938" y="0.560547" width="91" height="201"/>
<path fill-rule="evenodd" clip-rule="evenodd" d="M44.5355 1.56055C32.5119 1.56055 22.7648 11.3076 22.7648 23.3312V26.3868V117.111C9.72437 124.916 0.994141 139.18 0.994141 155.483C0.994141 180.163 21.0013 200.17 45.6814 200.17C70.3614 200.17 90.3686 180.163 90.3686 155.483C90.3686 138.243 80.6054 123.283 66.3062 115.83V26.3868V23.3312C66.3062 11.3076 56.5592 1.56055 44.5355 1.56055Z"/>
</mask>
<path fill-rule="evenodd" clip-rule="evenodd" d="M44.5355 1.56055C32.5119 1.56055 22.7648 11.3076 22.7648 23.3312V26.3868V117.111C9.72437 124.916 0.994141 139.18 0.994141 155.483C0.994141 180.163 21.0013 200.17 45.6814 200.17C70.3614 200.17 90.3686 180.163 90.3686 155.483C90.3686 138.243 80.6054 123.283 66.3062 115.83V26.3868V23.3312C66.3062 11.3076 56.5592 1.56055 44.5355 1.56055Z" fill="white" fill-opacity="0.24"/>
<path d="M22.7648 117.111L23.073 117.626L23.3648 117.452V117.111H22.7648ZM66.3062 115.83H65.7062V116.194L66.0289 116.362L66.3062 115.83ZM23.3648 23.3312C23.3648 11.639 32.8433 2.16055 44.5355 2.16055V0.960547C32.1805 0.960547 22.1648 10.9762 22.1648 23.3312H23.3648ZM23.3648 26.3868V23.3312H22.1648V26.3868H23.3648ZM23.3648 117.111V26.3868H22.1648V117.111H23.3648ZM1.59414 155.483C1.59414 139.4 10.206 125.327 23.073 117.626L22.4567 116.597C9.24272 124.505 0.394141 138.961 0.394141 155.483H1.59414ZM45.6814 199.57C21.3327 199.57 1.59414 179.832 1.59414 155.483H0.394141C0.394141 180.495 20.6699 200.77 45.6814 200.77V199.57ZM89.7686 155.483C89.7686 179.832 70.0301 199.57 45.6814 199.57V200.77C70.6928 200.77 90.9686 180.495 90.9686 155.483H89.7686ZM66.0289 116.362C80.1376 123.715 89.7686 138.475 89.7686 155.483H90.9686C90.9686 138.01 81.0732 122.85 66.5835 115.298L66.0289 116.362ZM65.7062 26.3868V115.83H66.9062V26.3868H65.7062ZM65.7062 23.3312V26.3868H66.9062V23.3312H65.7062ZM44.5355 2.16055C56.2278 2.16055 65.7062 11.639 65.7062 23.3312H66.9062C66.9062 10.9762 56.8905 0.960547 44.5355 0.960547V2.16055Z" fill="url(#paint0_linear_541_2577)" mask="url(#path-1-outside-1_541_2577)"/>
</g>
<defs>
<filter id="filter0_b_541_2577" x="-8.60596" y="-8.03906" width="108.574" height="217.81" filterUnits="userSpaceOnUse" color-interpolation-filters="sRGB">
<feFlood flood-opacity="0" result="BackgroundImageFix"/>
<feGaussianBlur in="BackgroundImageFix" stdDeviation="4.5"/>
<feComposite in2="SourceAlpha" operator="in" result="effect1_backgroundBlur_541_2577"/>
<feBlend mode="normal" in="SourceGraphic" in2="effect1_backgroundBlur_541_2577" result="shape"/>
</filter>
<linearGradient id="paint0_linear_541_2577" x1="45.6814" y1="1.56055" x2="45.6814" y2="200.17" gradientUnits="userSpaceOnUse">
<stop stop-color="#F84754"/>
<stop offset="1" stop-color="#92163A"/>
</linearGradient>
</defs>
</svg>
